M48
METRIC,LZ,000.000
;FILE_FORMAT=3:3
;TYPE=PLATED
;Layer: PTH_Through
;EasyEDA v6.5.57, 2026-07-19 20:03:15
;ccf68d3546cc488ca84b8e719732c7c5,1e612b17a94d4a96afa68f34b5e7b55f,10
;Gerber Generator version 0.2
;Holesize 1 = 0.712 mm
T01C0.712
;Holesize 2 = 0.720 mm
T02C0.720
;Holesize 3 = 0.900 mm
T03C0.900
;Holesize 4 = 0.901 mm
T04C0.901
;Holesize 5 = 1.101 mm
T05C1.101
%
G05
G90
T01
X023495Y-020447
X026035Y-020447
X034036Y-020447
X036576Y-020447
T02
X028575Y-004826
X031115Y-004826
T03
X026162Y-011938
X033782Y-011938
T04
X017272Y-030988
X017272Y-033528
X017272Y-036068
X017272Y-038608
X017272Y-041148
X017272Y-043688
X017272Y-046228
X017272Y-048768
X017272Y-051308
X017272Y-053848
X017272Y-056388
X017272Y-058928
X017272Y-061468
X017272Y-064008
X017272Y-066548
X017272Y-069088
X017272Y-071628
X017272Y-074168
X017272Y-076708
X042672Y-030988
X042672Y-033528
X042672Y-036068
X042672Y-038608
X042672Y-041148
X042672Y-043688
X042672Y-046228
X042672Y-048768
X042672Y-051308
X042672Y-053848
X042672Y-056388
X042672Y-058928
X042672Y-061468
X042672Y-064008
X042672Y-066548
X042672Y-069088
X042672Y-071628
X042672Y-074168
X042672Y-076708
T05
X006604Y-024257
X006604Y-021717
X009144Y-024257
X009144Y-021717
X011684Y-024257
X011684Y-021717
X014224Y-024257
X014224Y-021717
X045974Y-024257
X045974Y-021717
X048514Y-024257
X048514Y-021717
X051054Y-024257
X051054Y-021717
X053594Y-024257
X053594Y-021717
M30
