G04 Layer: TopLayer*
G04 EasyEDA v6.5.57, 2026-07-19 20:03:15*
G04 ccf68d3546cc488ca84b8e719732c7c5,1e612b17a94d4a96afa68f34b5e7b55f,10*
G04 Gerber Generator version 0.2*
G04 Scale: 100 percent, Rotated: No, Reflected: No *
G04 Dimensions in millimeters *
G04 leading zeros omitted , absolute positions ,4 integer and 5 decimal *
%FSLAX45Y45*%
%MOMM*%

%AMMACRO1*21,1,$1,$2,0,0,$3*%
%ADD10C,0.2540*%
%ADD11C,1.1938*%
%ADD12C,1.2000*%
%ADD13MACRO1,1.1989X1.1989X0.0000*%
%ADD14C,1.8796*%
%ADD15R,1.7000X1.7000*%
%ADD16C,1.7000*%
%ADD17C,1.5000*%
%ADD18C,0.0179*%

%LPD*%
G36*
X173228Y-7581849D02*
G01*
X173108Y-7665669D01*
X200660Y-7665669D01*
X200761Y-7629499D01*
X232130Y-7647686D01*
X287477Y-7647584D01*
X318820Y-7629448D01*
X318820Y-7665770D01*
X287324Y-7647686D01*
X232130Y-7647686D01*
X200812Y-7665821D01*
X200660Y-7665669D01*
X173108Y-7665669D01*
X173075Y-7681772D01*
X86664Y-7731658D01*
X86664Y-7731861D01*
X141681Y-7731861D01*
X141681Y-7731658D01*
X173177Y-7713624D01*
X173177Y-7749946D01*
X141681Y-7731861D01*
X86664Y-7731861D01*
X145693Y-7765948D01*
X200761Y-7765948D01*
X200761Y-7697571D01*
X259588Y-7663586D01*
X318820Y-7697622D01*
X318797Y-7713624D01*
X346506Y-7713624D01*
X377850Y-7731658D01*
X377850Y-7731861D01*
X346303Y-7749946D01*
X346303Y-7713624D01*
X318797Y-7713624D01*
X318719Y-7765948D01*
X259892Y-7799933D01*
X259588Y-7799933D01*
X200761Y-7765948D01*
X145693Y-7765948D01*
X173075Y-7781747D01*
X173108Y-7797901D01*
X200710Y-7797800D01*
X232156Y-7815834D01*
X287324Y-7815834D01*
X318820Y-7797749D01*
X318820Y-7834122D01*
X287324Y-7815834D01*
X232156Y-7815834D01*
X200761Y-7834071D01*
X200660Y-7797901D01*
X173108Y-7797901D01*
X173228Y-7881721D01*
X259791Y-7831785D01*
X346252Y-7881721D01*
X346405Y-7781747D01*
X432816Y-7731861D01*
X432816Y-7731658D01*
X346405Y-7681772D01*
X346252Y-7581849D01*
X259791Y-7631734D01*
G37*
G36*
X5173878Y-6711289D02*
G01*
X5169611Y-6714642D01*
X5169611Y-6797751D01*
X5173167Y-6800291D01*
X5365445Y-6800291D01*
X5366461Y-6802932D01*
X5362549Y-6805980D01*
X5317236Y-6836562D01*
X5309565Y-6842607D01*
X5306364Y-6844385D01*
X5287670Y-6857136D01*
X5284470Y-6861149D01*
X5284470Y-6906717D01*
X5286908Y-6910222D01*
X5315000Y-6928916D01*
X5316270Y-6928916D01*
X5318048Y-6931050D01*
X5358485Y-6957720D01*
X5363057Y-6960565D01*
X5366207Y-6963714D01*
X5366207Y-6965340D01*
X5200751Y-6965340D01*
X5190236Y-6966915D01*
X5184343Y-6969912D01*
X5179720Y-6973366D01*
X5176215Y-6976821D01*
X5172049Y-6985152D01*
X5169611Y-6996175D01*
X5169611Y-7051090D01*
X5172811Y-7054342D01*
X5504535Y-7054342D01*
X5507786Y-7051090D01*
X5507786Y-6968032D01*
X5503824Y-6964273D01*
X5495645Y-6959244D01*
X5462371Y-6936994D01*
X5461609Y-6936994D01*
X5452821Y-6930542D01*
X5452160Y-6930542D01*
X5397347Y-6894169D01*
X5395722Y-6892899D01*
X5382361Y-6884111D01*
X5382361Y-6881571D01*
X5387949Y-6877151D01*
X5388711Y-6877151D01*
X5413502Y-6860946D01*
X5442153Y-6841744D01*
X5444286Y-6840880D01*
X5504840Y-6800900D01*
X5507736Y-6797446D01*
X5507786Y-6714642D01*
X5503519Y-6711289D01*
G37*
G36*
X5171389Y-7102043D02*
G01*
X5169560Y-7104278D01*
X5170220Y-7239203D01*
X5170830Y-7253731D01*
X5172202Y-7270750D01*
X5175250Y-7282789D01*
X5175250Y-7287717D01*
X5177637Y-7295032D01*
X5181854Y-7309561D01*
X5183936Y-7313625D01*
X5185003Y-7319518D01*
X5187391Y-7321499D01*
X5187391Y-7323328D01*
X5195570Y-7339533D01*
X5200091Y-7347610D01*
X5211267Y-7363764D01*
X5232298Y-7384948D01*
X5244439Y-7393787D01*
X5256123Y-7401407D01*
X5257596Y-7401407D01*
X5259527Y-7403744D01*
X5264150Y-7404760D01*
X5265978Y-7406944D01*
X5271109Y-7408062D01*
X5273548Y-7410043D01*
X5281625Y-7412837D01*
X5289753Y-7415377D01*
X5308346Y-7419898D01*
X5325313Y-7421625D01*
X5352034Y-7421625D01*
X5369001Y-7419898D01*
X5387644Y-7415377D01*
X5403799Y-7410043D01*
X5406237Y-7408062D01*
X5411368Y-7406944D01*
X5413248Y-7404760D01*
X5417870Y-7403744D01*
X5419801Y-7401407D01*
X5421274Y-7401407D01*
X5432958Y-7393787D01*
X5445099Y-7384948D01*
X5466130Y-7363764D01*
X5477256Y-7347610D01*
X5481777Y-7339533D01*
X5490006Y-7323328D01*
X5489956Y-7321499D01*
X5492343Y-7319518D01*
X5493461Y-7313625D01*
X5496458Y-7307986D01*
X5496458Y-7305649D01*
X5502097Y-7287717D01*
X5502097Y-7282840D01*
X5504586Y-7274001D01*
X5506161Y-7256983D01*
X5507736Y-7234326D01*
X5507786Y-7103973D01*
X5505856Y-7102043D01*
X5307888Y-7102043D01*
X5297576Y-7106869D01*
X5292547Y-7111898D01*
X5287975Y-7118654D01*
X5285740Y-7125919D01*
X5285689Y-7187590D01*
X5287924Y-7190231D01*
X5425338Y-7190231D01*
X5428488Y-7191908D01*
X5428488Y-7242759D01*
X5425897Y-7260234D01*
X5421934Y-7275575D01*
X5413654Y-7292594D01*
X5410301Y-7297420D01*
X5403799Y-7305446D01*
X5400497Y-7308748D01*
X5392470Y-7315250D01*
X5387390Y-7318806D01*
X5383276Y-7319873D01*
X5381345Y-7322108D01*
X5378754Y-7322108D01*
X5373420Y-7325359D01*
X5371033Y-7325359D01*
X5360924Y-7329017D01*
X5314797Y-7328966D01*
X5309920Y-7326325D01*
X5303520Y-7325106D01*
X5298643Y-7322108D01*
X5296001Y-7322108D01*
X5294122Y-7319873D01*
X5289956Y-7318806D01*
X5284876Y-7315250D01*
X5276900Y-7308748D01*
X5273548Y-7305446D01*
X5267096Y-7297420D01*
X5263692Y-7292594D01*
X5255412Y-7275575D01*
X5251450Y-7260234D01*
X5248859Y-7242759D01*
X5248859Y-7128814D01*
X5247081Y-7120280D01*
X5242915Y-7112965D01*
X5236108Y-7106513D01*
X5227269Y-7102043D01*
G37*
G36*
X5201361Y-7442657D02*
G01*
X5197094Y-7446009D01*
X5197094Y-7447432D01*
X5191353Y-7456017D01*
X5189118Y-7460081D01*
X5180939Y-7477252D01*
X5180939Y-7479792D01*
X5179415Y-7480706D01*
X5177586Y-7486751D01*
X5175402Y-7492441D01*
X5172100Y-7503769D01*
X5168849Y-7516672D01*
X5167020Y-7527239D01*
X5163769Y-7555534D01*
X5164531Y-7598409D01*
X5168950Y-7621066D01*
X5172252Y-7632395D01*
X5175504Y-7641285D01*
X5178602Y-7648549D01*
X5180025Y-7650988D01*
X5185257Y-7661503D01*
X5192471Y-7671511D01*
X5199938Y-7680807D01*
X5208625Y-7689037D01*
X5216906Y-7695082D01*
X5220157Y-7696708D01*
X5226608Y-7700772D01*
X5237581Y-7705598D01*
X5240731Y-7705598D01*
X5248960Y-7708849D01*
X5256784Y-7708849D01*
X5263642Y-7711287D01*
X5283250Y-7711236D01*
X5287314Y-7708900D01*
X5297017Y-7708798D01*
X5304078Y-7705598D01*
X5307076Y-7705598D01*
X5313984Y-7702296D01*
X5320487Y-7698892D01*
X5331612Y-7691577D01*
X5344922Y-7678521D01*
X5353710Y-7666380D01*
X5357825Y-7659878D01*
X5366054Y-7644536D01*
X5373471Y-7627315D01*
X5373471Y-7625029D01*
X5374995Y-7623505D01*
X5386476Y-7587945D01*
X5387441Y-7581442D01*
X5389422Y-7577378D01*
X5390489Y-7570520D01*
X5392724Y-7565237D01*
X5396433Y-7552283D01*
X5399379Y-7546644D01*
X5399379Y-7544003D01*
X5408676Y-7534148D01*
X5413502Y-7533843D01*
X5418531Y-7534097D01*
X5422442Y-7537297D01*
X5426252Y-7540955D01*
X5430164Y-7549642D01*
X5432907Y-7566863D01*
X5432856Y-7584643D01*
X5430164Y-7607300D01*
X5425440Y-7628331D01*
X5422087Y-7639659D01*
X5419394Y-7647787D01*
X5417159Y-7652867D01*
X5417159Y-7654798D01*
X5414822Y-7659116D01*
X5410708Y-7668615D01*
X5410708Y-7670139D01*
X5407456Y-7674254D01*
X5407456Y-7676337D01*
X5401767Y-7684973D01*
X5402173Y-7689037D01*
X5485282Y-7689037D01*
X5491581Y-7677708D01*
X5496458Y-7666888D01*
X5496458Y-7664703D01*
X5498693Y-7661503D01*
X5499912Y-7655864D01*
X5501995Y-7650988D01*
X5508396Y-7628331D01*
X5512816Y-7601661D01*
X5513374Y-7554722D01*
X5510225Y-7532878D01*
X5505145Y-7512659D01*
X5502097Y-7506004D01*
X5502097Y-7503718D01*
X5497322Y-7494828D01*
X5494883Y-7489444D01*
X5489956Y-7482230D01*
X5489956Y-7481265D01*
X5480812Y-7470089D01*
X5469331Y-7459980D01*
X5463692Y-7455966D01*
X5459628Y-7453985D01*
X5457190Y-7452512D01*
X5448300Y-7448499D01*
X5441848Y-7445857D01*
X5432958Y-7444435D01*
X5428386Y-7442657D01*
X5398160Y-7442758D01*
X5382768Y-7445857D01*
X5365394Y-7452614D01*
X5365394Y-7453884D01*
X5361736Y-7455052D01*
X5356910Y-7458862D01*
X5354320Y-7461300D01*
X5352796Y-7461300D01*
X5342178Y-7472222D01*
X5334762Y-7482027D01*
X5331409Y-7487564D01*
X5328564Y-7493253D01*
X5326532Y-7495387D01*
X5326532Y-7497825D01*
X5323332Y-7501940D01*
X5323332Y-7504125D01*
X5316829Y-7518501D01*
X5316829Y-7521651D01*
X5315254Y-7523225D01*
X5311851Y-7532878D01*
X5309362Y-7541768D01*
X5308142Y-7543393D01*
X5307025Y-7549642D01*
X5304891Y-7554722D01*
X5301488Y-7566050D01*
X5295646Y-7586980D01*
X5290261Y-7601864D01*
X5287670Y-7606842D01*
X5283860Y-7612532D01*
X5279186Y-7616444D01*
X5272938Y-7619034D01*
X5267096Y-7619034D01*
X5259070Y-7616596D01*
X5255158Y-7612989D01*
X5250738Y-7606487D01*
X5246573Y-7593533D01*
X5244490Y-7578191D01*
X5244439Y-7561986D01*
X5247335Y-7539329D01*
X5252008Y-7519111D01*
X5257088Y-7503769D01*
X5261102Y-7493253D01*
X5266690Y-7480655D01*
X5266690Y-7463434D01*
X5262473Y-7454595D01*
X5253888Y-7446314D01*
X5244236Y-7442657D01*
G37*
G36*
X5762752Y-5040376D02*
G01*
X5755944Y-5040630D01*
X5749442Y-5041341D01*
X5743143Y-5042560D01*
X5737199Y-5044186D01*
X5731459Y-5046268D01*
X5726074Y-5048707D01*
X5720994Y-5051552D01*
X5716219Y-5054752D01*
X5711748Y-5058308D01*
X5707684Y-5062118D01*
X5703874Y-5066284D01*
X5700471Y-5070703D01*
X5697423Y-5075377D01*
X5694781Y-5080254D01*
X5692495Y-5085384D01*
X5690616Y-5090668D01*
X5689092Y-5096154D01*
X5688025Y-5101742D01*
X5687364Y-5107482D01*
X5687161Y-5113324D01*
X5695899Y-5113324D01*
X5696204Y-5106974D01*
X5697118Y-5100828D01*
X5698642Y-5094833D01*
X5700725Y-5089093D01*
X5703366Y-5083606D01*
X5706516Y-5078374D01*
X5710174Y-5073548D01*
X5714288Y-5069027D01*
X5718911Y-5064912D01*
X5723991Y-5061254D01*
X5729528Y-5058054D01*
X5735421Y-5055362D01*
X5741720Y-5053228D01*
X5748375Y-5051653D01*
X5755386Y-5050688D01*
X5762752Y-5050332D01*
X5770016Y-5050688D01*
X5776976Y-5051653D01*
X5783580Y-5053228D01*
X5789777Y-5055362D01*
X5795619Y-5058054D01*
X5801055Y-5061254D01*
X5806084Y-5064912D01*
X5810605Y-5069027D01*
X5814720Y-5073548D01*
X5818327Y-5078374D01*
X5821476Y-5083606D01*
X5824067Y-5089093D01*
X5826099Y-5094833D01*
X5827572Y-5100828D01*
X5828487Y-5106974D01*
X5828792Y-5113324D01*
X5828487Y-5119674D01*
X5827572Y-5125923D01*
X5826099Y-5131917D01*
X5824067Y-5137708D01*
X5821476Y-5143195D01*
X5818327Y-5148427D01*
X5814720Y-5153304D01*
X5810605Y-5157825D01*
X5806084Y-5161889D01*
X5801055Y-5165598D01*
X5795619Y-5168798D01*
X5789777Y-5171490D01*
X5783580Y-5173624D01*
X5776976Y-5175199D01*
X5770016Y-5176164D01*
X5762752Y-5176520D01*
X5755386Y-5176164D01*
X5748375Y-5175199D01*
X5741720Y-5173624D01*
X5735421Y-5171490D01*
X5729528Y-5168798D01*
X5723991Y-5165598D01*
X5718911Y-5161889D01*
X5714288Y-5157825D01*
X5710174Y-5153304D01*
X5706516Y-5148427D01*
X5703366Y-5143195D01*
X5700725Y-5137708D01*
X5698642Y-5131917D01*
X5697118Y-5125923D01*
X5696204Y-5119674D01*
X5695899Y-5113324D01*
X5687161Y-5113324D01*
X5687364Y-5119166D01*
X5688025Y-5124958D01*
X5689092Y-5130596D01*
X5690616Y-5136083D01*
X5692495Y-5141366D01*
X5694781Y-5146497D01*
X5697423Y-5151424D01*
X5700471Y-5156098D01*
X5703874Y-5160518D01*
X5707684Y-5164683D01*
X5711748Y-5168544D01*
X5716219Y-5172100D01*
X5720994Y-5175300D01*
X5726074Y-5178145D01*
X5731459Y-5180584D01*
X5737199Y-5182666D01*
X5743143Y-5184292D01*
X5749442Y-5185511D01*
X5755944Y-5186222D01*
X5762752Y-5186476D01*
X5769508Y-5186222D01*
X5775960Y-5185511D01*
X5782157Y-5184292D01*
X5788101Y-5182666D01*
X5793740Y-5180584D01*
X5799074Y-5178145D01*
X5804103Y-5175300D01*
X5808827Y-5172100D01*
X5813247Y-5168544D01*
X5817311Y-5164683D01*
X5821019Y-5160518D01*
X5824372Y-5156098D01*
X5827369Y-5151424D01*
X5830011Y-5146497D01*
X5832297Y-5141366D01*
X5834126Y-5136083D01*
X5835599Y-5130596D01*
X5836666Y-5124958D01*
X5837326Y-5119166D01*
X5837529Y-5113324D01*
X5837326Y-5107482D01*
X5836666Y-5101742D01*
X5835599Y-5096154D01*
X5834176Y-5090668D01*
X5832297Y-5085384D01*
X5830062Y-5080254D01*
X5827420Y-5075377D01*
X5824423Y-5070703D01*
X5821070Y-5066284D01*
X5817362Y-5062169D01*
X5813298Y-5058308D01*
X5808929Y-5054752D01*
X5804204Y-5051552D01*
X5799175Y-5048707D01*
X5793790Y-5046268D01*
X5788152Y-5044186D01*
X5782208Y-5042560D01*
X5776010Y-5041341D01*
X5769508Y-5040630D01*
G37*
G36*
X5762752Y-5074310D02*
G01*
X5755995Y-5074666D01*
X5749696Y-5075732D01*
X5743905Y-5077510D01*
X5738622Y-5079847D01*
X5733948Y-5082743D01*
X5729782Y-5086146D01*
X5726226Y-5090058D01*
X5723280Y-5094376D01*
X5720943Y-5099100D01*
X5719216Y-5104130D01*
X5718200Y-5109413D01*
X5717844Y-5114950D01*
X5718860Y-5124450D01*
X5721604Y-5132425D01*
X5725718Y-5139334D01*
X5730849Y-5145633D01*
X5739790Y-5139537D01*
X5735675Y-5134305D01*
X5732424Y-5128768D01*
X5730240Y-5122621D01*
X5729427Y-5115560D01*
X5730036Y-5109565D01*
X5731764Y-5104231D01*
X5734558Y-5099507D01*
X5738418Y-5095494D01*
X5743194Y-5092293D01*
X5748883Y-5089906D01*
X5755436Y-5088432D01*
X5762752Y-5087924D01*
X5769356Y-5088432D01*
X5775350Y-5089956D01*
X5780633Y-5092446D01*
X5785154Y-5095748D01*
X5788812Y-5099862D01*
X5791555Y-5104739D01*
X5793232Y-5110226D01*
X5793841Y-5116372D01*
X5793232Y-5122164D01*
X5791454Y-5127193D01*
X5788507Y-5131968D01*
X5784494Y-5136692D01*
X5792622Y-5143804D01*
X5797702Y-5138115D01*
X5801766Y-5131765D01*
X5804458Y-5124450D01*
X5805424Y-5115763D01*
X5805068Y-5110378D01*
X5804103Y-5105146D01*
X5802477Y-5100116D01*
X5800242Y-5095341D01*
X5797397Y-5090922D01*
X5793994Y-5086858D01*
X5790031Y-5083302D01*
X5785561Y-5080203D01*
X5780582Y-5077714D01*
X5775096Y-5075885D01*
X5769152Y-5074716D01*
G37*
G36*
X5689600Y-5218379D02*
G01*
X5689600Y-5235244D01*
X5824524Y-5235244D01*
X5824524Y-5253532D01*
X5824270Y-5260086D01*
X5823508Y-5266232D01*
X5822238Y-5271922D01*
X5820511Y-5277154D01*
X5818276Y-5281980D01*
X5815584Y-5286400D01*
X5812434Y-5290362D01*
X5808827Y-5293918D01*
X5804763Y-5297017D01*
X5800242Y-5299760D01*
X5795314Y-5301996D01*
X5789980Y-5303875D01*
X5784240Y-5305348D01*
X5778042Y-5306364D01*
X5771540Y-5306974D01*
X5764580Y-5307177D01*
X5757621Y-5306974D01*
X5751068Y-5306364D01*
X5744819Y-5305348D01*
X5738977Y-5303875D01*
X5733542Y-5301996D01*
X5728512Y-5299760D01*
X5723940Y-5297017D01*
X5719724Y-5293918D01*
X5716016Y-5290362D01*
X5712764Y-5286400D01*
X5709970Y-5281980D01*
X5707634Y-5277154D01*
X5705805Y-5271922D01*
X5704484Y-5266232D01*
X5703671Y-5260086D01*
X5703417Y-5253532D01*
X5703417Y-5235244D01*
X5689600Y-5235244D01*
X5689600Y-5255564D01*
X5689803Y-5262168D01*
X5690412Y-5268468D01*
X5691479Y-5274411D01*
X5692902Y-5280050D01*
X5694730Y-5285384D01*
X5696966Y-5290362D01*
X5699556Y-5294985D01*
X5702554Y-5299303D01*
X5705856Y-5303266D01*
X5709564Y-5306923D01*
X5713628Y-5310225D01*
X5717997Y-5313172D01*
X5722721Y-5315813D01*
X5727750Y-5318099D01*
X5733135Y-5320030D01*
X5738825Y-5321604D01*
X5744819Y-5322874D01*
X5751118Y-5323738D01*
X5757722Y-5324246D01*
X5764580Y-5324449D01*
X5771438Y-5324246D01*
X5777992Y-5323738D01*
X5784240Y-5322874D01*
X5790184Y-5321604D01*
X5795822Y-5320030D01*
X5801106Y-5318099D01*
X5806084Y-5315813D01*
X5810758Y-5313172D01*
X5815025Y-5310174D01*
X5818987Y-5306822D01*
X5822594Y-5303164D01*
X5825845Y-5299151D01*
X5828741Y-5294833D01*
X5831230Y-5290108D01*
X5833414Y-5285079D01*
X5835142Y-5279745D01*
X5836564Y-5274056D01*
X5837529Y-5268010D01*
X5838139Y-5261660D01*
X5838342Y-5254955D01*
X5838342Y-5218379D01*
G37*
G36*
X5744464Y-5347208D02*
G01*
X5737860Y-5347462D01*
X5731611Y-5348274D01*
X5725718Y-5349544D01*
X5720232Y-5351272D01*
X5715101Y-5353456D01*
X5710377Y-5356047D01*
X5706059Y-5359044D01*
X5701139Y-5363464D01*
X5752998Y-5363464D01*
X5761024Y-5364835D01*
X5768086Y-5367274D01*
X5774232Y-5370576D01*
X5779363Y-5374640D01*
X5783376Y-5379415D01*
X5786323Y-5384698D01*
X5788152Y-5390388D01*
X5788761Y-5396382D01*
X5788202Y-5402732D01*
X5786475Y-5408371D01*
X5783630Y-5413248D01*
X5779668Y-5417312D01*
X5774588Y-5420563D01*
X5768441Y-5422900D01*
X5761228Y-5424322D01*
X5752998Y-5424830D01*
X5752998Y-5363464D01*
X5701139Y-5363464D01*
X5698642Y-5366105D01*
X5695594Y-5370068D01*
X5693003Y-5374386D01*
X5690870Y-5378907D01*
X5689142Y-5383733D01*
X5687923Y-5388711D01*
X5687212Y-5393893D01*
X5686958Y-5399227D01*
X5687212Y-5404764D01*
X5687822Y-5409946D01*
X5688888Y-5414772D01*
X5690260Y-5419344D01*
X5691936Y-5423611D01*
X5693816Y-5427675D01*
X5698134Y-5435193D01*
X5709107Y-5429097D01*
X5705398Y-5422849D01*
X5702554Y-5416194D01*
X5700776Y-5409031D01*
X5700166Y-5401259D01*
X5700522Y-5395925D01*
X5701487Y-5390946D01*
X5703062Y-5386273D01*
X5705297Y-5382006D01*
X5708040Y-5378094D01*
X5711342Y-5374640D01*
X5715152Y-5371592D01*
X5719419Y-5369001D01*
X5724144Y-5366867D01*
X5729325Y-5365292D01*
X5734862Y-5364226D01*
X5740806Y-5363667D01*
X5740806Y-5438648D01*
X5745429Y-5439308D01*
X5750763Y-5439460D01*
X5758434Y-5439156D01*
X5765596Y-5438140D01*
X5772150Y-5436565D01*
X5778195Y-5434330D01*
X5783580Y-5431536D01*
X5788355Y-5428081D01*
X5792470Y-5424119D01*
X5795873Y-5419598D01*
X5798616Y-5414518D01*
X5800547Y-5408930D01*
X5801766Y-5402783D01*
X5802172Y-5396179D01*
X5801918Y-5391454D01*
X5801156Y-5386832D01*
X5799886Y-5382310D01*
X5798159Y-5377891D01*
X5795975Y-5373674D01*
X5793282Y-5369610D01*
X5790184Y-5365800D01*
X5786628Y-5362244D01*
X5782716Y-5358993D01*
X5778347Y-5356047D01*
X5773623Y-5353507D01*
X5768492Y-5351322D01*
X5763006Y-5349544D01*
X5757164Y-5348274D01*
X5750966Y-5347462D01*
G37*
G36*
X5701995Y-5454497D02*
G01*
X5698896Y-5458561D01*
X5696051Y-5463032D01*
X5693511Y-5467858D01*
X5691276Y-5472938D01*
X5689447Y-5478272D01*
X5688126Y-5483809D01*
X5687263Y-5489498D01*
X5686958Y-5495340D01*
X5687618Y-5504332D01*
X5689498Y-5512206D01*
X5692495Y-5518912D01*
X5696458Y-5524449D01*
X5701233Y-5528868D01*
X5706668Y-5532018D01*
X5712663Y-5533898D01*
X5719064Y-5534558D01*
X5726277Y-5533745D01*
X5732272Y-5531510D01*
X5737199Y-5528056D01*
X5741314Y-5523636D01*
X5744718Y-5518404D01*
X5747613Y-5512714D01*
X5752592Y-5500624D01*
X5755995Y-5491581D01*
X5760008Y-5483910D01*
X5765241Y-5478627D01*
X5772302Y-5476646D01*
X5778703Y-5477916D01*
X5783986Y-5481828D01*
X5787644Y-5488482D01*
X5788964Y-5497982D01*
X5788202Y-5505043D01*
X5786170Y-5511495D01*
X5783072Y-5517489D01*
X5779211Y-5523179D01*
X5789980Y-5531307D01*
X5794705Y-5524449D01*
X5798616Y-5516473D01*
X5801207Y-5507583D01*
X5802172Y-5497982D01*
X5801563Y-5489549D01*
X5799785Y-5482132D01*
X5796940Y-5475681D01*
X5793232Y-5470398D01*
X5788710Y-5466130D01*
X5783478Y-5463082D01*
X5777687Y-5461203D01*
X5771489Y-5460593D01*
X5764987Y-5461355D01*
X5759450Y-5463489D01*
X5754725Y-5466740D01*
X5750763Y-5470956D01*
X5747410Y-5475935D01*
X5744514Y-5481421D01*
X5742025Y-5487212D01*
X5736183Y-5502351D01*
X5734100Y-5506669D01*
X5731764Y-5510580D01*
X5729071Y-5513882D01*
X5725972Y-5516473D01*
X5722366Y-5518099D01*
X5718251Y-5518708D01*
X5711088Y-5517286D01*
X5705297Y-5513019D01*
X5701385Y-5505958D01*
X5699963Y-5495950D01*
X5700928Y-5486298D01*
X5703671Y-5477814D01*
X5707837Y-5470093D01*
X5713171Y-5462828D01*
G37*
G36*
X5834481Y-5558129D02*
G01*
X5829655Y-5558993D01*
X5826048Y-5561330D01*
X5823712Y-5564987D01*
X5822899Y-5569712D01*
X5823712Y-5574233D01*
X5826048Y-5577840D01*
X5829655Y-5580227D01*
X5834481Y-5581091D01*
X5839053Y-5580227D01*
X5842609Y-5577840D01*
X5844844Y-5574233D01*
X5845657Y-5569712D01*
X5844844Y-5564987D01*
X5842609Y-5561330D01*
X5839053Y-5558942D01*
G37*
G36*
X5689600Y-5561380D02*
G01*
X5689600Y-5577840D01*
X5799328Y-5577840D01*
X5799328Y-5561380D01*
G37*
G36*
X5668264Y-5607304D02*
G01*
X5663692Y-5607659D01*
X5659526Y-5608777D01*
X5655665Y-5610606D01*
X5652160Y-5613044D01*
X5649061Y-5616143D01*
X5646318Y-5619851D01*
X5644032Y-5624068D01*
X5642102Y-5628843D01*
X5640578Y-5634126D01*
X5639460Y-5639866D01*
X5638800Y-5646064D01*
X5638695Y-5654852D01*
X5650179Y-5654852D01*
X5650534Y-5647537D01*
X5651601Y-5641035D01*
X5653328Y-5635396D01*
X5655665Y-5630722D01*
X5658561Y-5626963D01*
X5662015Y-5624169D01*
X5665927Y-5622493D01*
X5670296Y-5621934D01*
X5675376Y-5622645D01*
X5680456Y-5624830D01*
X5685383Y-5628538D01*
X5690006Y-5633923D01*
X5688634Y-5641543D01*
X5688177Y-5647944D01*
X5688177Y-5668060D01*
X5687415Y-5678017D01*
X5685028Y-5685180D01*
X5680557Y-5689549D01*
X5673750Y-5691022D01*
X5669330Y-5690362D01*
X5665114Y-5688482D01*
X5661101Y-5685383D01*
X5657545Y-5681167D01*
X5654548Y-5675934D01*
X5652211Y-5669788D01*
X5650687Y-5662726D01*
X5650179Y-5654852D01*
X5638695Y-5654852D01*
X5638952Y-5660694D01*
X5640019Y-5668213D01*
X5641695Y-5675223D01*
X5643930Y-5681624D01*
X5646674Y-5687364D01*
X5649925Y-5692444D01*
X5653582Y-5696864D01*
X5657596Y-5700522D01*
X5661914Y-5703417D01*
X5666486Y-5705551D01*
X5671261Y-5706821D01*
X5676188Y-5707278D01*
X5682488Y-5706668D01*
X5687872Y-5704941D01*
X5692343Y-5701944D01*
X5696000Y-5697829D01*
X5698744Y-5692495D01*
X5700674Y-5685993D01*
X5701842Y-5678322D01*
X5702198Y-5669483D01*
X5702198Y-5647537D01*
X5703112Y-5638139D01*
X5705754Y-5632145D01*
X5709666Y-5628944D01*
X5714593Y-5628030D01*
X5719013Y-5628589D01*
X5722620Y-5630164D01*
X5725718Y-5632500D01*
X5728411Y-5635345D01*
X5726684Y-5639358D01*
X5725414Y-5643626D01*
X5724601Y-5647994D01*
X5724347Y-5652211D01*
X5735726Y-5652211D01*
X5736234Y-5647385D01*
X5737656Y-5642813D01*
X5739993Y-5638647D01*
X5743194Y-5634990D01*
X5747156Y-5631942D01*
X5751830Y-5629605D01*
X5757214Y-5628132D01*
X5763158Y-5627624D01*
X5769102Y-5628132D01*
X5774334Y-5629554D01*
X5778906Y-5631789D01*
X5782716Y-5634786D01*
X5785764Y-5638444D01*
X5787948Y-5642610D01*
X5789320Y-5647232D01*
X5789777Y-5652211D01*
X5789320Y-5657138D01*
X5787948Y-5661710D01*
X5785713Y-5665876D01*
X5782665Y-5669534D01*
X5778804Y-5672531D01*
X5774283Y-5674817D01*
X5769051Y-5676290D01*
X5763158Y-5676798D01*
X5757214Y-5676290D01*
X5751830Y-5674817D01*
X5747156Y-5672480D01*
X5743194Y-5669432D01*
X5739993Y-5665774D01*
X5737656Y-5661609D01*
X5736234Y-5657037D01*
X5735726Y-5652211D01*
X5724347Y-5652211D01*
X5724652Y-5657646D01*
X5725566Y-5662828D01*
X5727039Y-5667756D01*
X5729122Y-5672328D01*
X5731713Y-5676544D01*
X5734812Y-5680354D01*
X5738368Y-5683656D01*
X5742432Y-5686501D01*
X5746902Y-5688736D01*
X5751779Y-5690463D01*
X5757062Y-5691479D01*
X5762752Y-5691835D01*
X5769914Y-5691124D01*
X5776417Y-5689092D01*
X5782005Y-5686094D01*
X5786526Y-5682284D01*
X5786526Y-5705449D01*
X5799328Y-5705449D01*
X5799328Y-5667451D01*
X5800394Y-5664301D01*
X5801258Y-5660644D01*
X5801918Y-5656630D01*
X5802172Y-5652211D01*
X5801868Y-5646775D01*
X5800902Y-5641492D01*
X5799378Y-5636514D01*
X5797296Y-5631840D01*
X5794654Y-5627522D01*
X5791504Y-5623560D01*
X5787847Y-5620105D01*
X5783732Y-5617210D01*
X5779211Y-5614822D01*
X5774232Y-5613044D01*
X5768898Y-5611926D01*
X5763158Y-5611571D01*
X5753760Y-5612790D01*
X5745530Y-5616041D01*
X5738672Y-5620562D01*
X5733491Y-5625795D01*
X5732678Y-5625795D01*
X5729071Y-5621578D01*
X5724448Y-5617616D01*
X5718810Y-5614720D01*
X5712358Y-5613603D01*
X5706313Y-5614365D01*
X5701334Y-5616448D01*
X5697321Y-5619597D01*
X5694273Y-5623560D01*
X5693460Y-5623560D01*
X5688025Y-5616752D01*
X5681827Y-5611622D01*
X5675223Y-5608421D01*
G37*
G36*
X5689600Y-5729224D02*
G01*
X5689600Y-5745683D01*
X5769864Y-5745683D01*
X5774029Y-5749798D01*
X5777636Y-5753760D01*
X5780684Y-5757519D01*
X5783224Y-5761228D01*
X5785205Y-5764987D01*
X5786628Y-5768797D01*
X5787440Y-5772759D01*
X5787745Y-5776976D01*
X5787288Y-5782310D01*
X5785967Y-5786780D01*
X5783681Y-5790539D01*
X5780430Y-5793536D01*
X5776214Y-5795873D01*
X5770930Y-5797448D01*
X5764631Y-5798413D01*
X5757265Y-5798718D01*
X5689600Y-5798718D01*
X5689600Y-5815380D01*
X5759297Y-5815380D01*
X5766054Y-5815177D01*
X5772200Y-5814517D01*
X5777839Y-5813348D01*
X5782868Y-5811774D01*
X5787339Y-5809742D01*
X5791250Y-5807252D01*
X5794552Y-5804255D01*
X5797296Y-5800750D01*
X5799429Y-5796788D01*
X5800953Y-5792317D01*
X5801868Y-5787339D01*
X5802172Y-5781852D01*
X5801766Y-5776366D01*
X5800699Y-5771235D01*
X5798921Y-5766308D01*
X5796584Y-5761685D01*
X5793790Y-5757265D01*
X5790590Y-5752998D01*
X5787085Y-5748883D01*
X5783275Y-5744870D01*
X5783275Y-5744260D01*
X5799328Y-5742635D01*
X5799328Y-5729224D01*
G37*
G36*
X5744464Y-5843625D02*
G01*
X5737860Y-5843879D01*
X5731611Y-5844692D01*
X5725718Y-5845962D01*
X5720232Y-5847689D01*
X5715101Y-5849874D01*
X5710377Y-5852464D01*
X5706059Y-5855462D01*
X5701139Y-5859881D01*
X5752998Y-5859881D01*
X5761024Y-5861253D01*
X5768086Y-5863691D01*
X5774232Y-5866993D01*
X5779363Y-5871057D01*
X5783376Y-5875832D01*
X5786323Y-5881116D01*
X5788152Y-5886805D01*
X5788761Y-5892800D01*
X5788202Y-5899150D01*
X5786475Y-5904788D01*
X5783630Y-5909665D01*
X5779668Y-5913729D01*
X5774588Y-5916980D01*
X5768441Y-5919317D01*
X5761228Y-5920740D01*
X5752998Y-5921248D01*
X5752998Y-5859881D01*
X5701139Y-5859881D01*
X5698642Y-5862523D01*
X5695594Y-5866485D01*
X5693003Y-5870803D01*
X5690870Y-5875324D01*
X5689142Y-5880150D01*
X5687923Y-5885129D01*
X5687212Y-5890310D01*
X5686958Y-5895644D01*
X5687212Y-5901182D01*
X5687822Y-5906363D01*
X5688888Y-5911189D01*
X5690260Y-5915761D01*
X5691936Y-5920028D01*
X5693816Y-5924092D01*
X5698134Y-5931611D01*
X5709107Y-5925515D01*
X5705398Y-5919266D01*
X5702554Y-5912561D01*
X5700776Y-5905449D01*
X5700166Y-5897676D01*
X5700522Y-5892342D01*
X5701487Y-5887364D01*
X5703062Y-5882690D01*
X5705297Y-5878423D01*
X5708040Y-5874512D01*
X5711342Y-5871057D01*
X5715152Y-5868009D01*
X5719419Y-5865418D01*
X5724144Y-5863285D01*
X5729325Y-5861710D01*
X5734862Y-5860643D01*
X5740806Y-5860084D01*
X5740806Y-5935065D01*
X5745429Y-5935675D01*
X5750763Y-5935878D01*
X5758434Y-5935573D01*
X5765596Y-5934557D01*
X5772150Y-5932982D01*
X5778195Y-5930747D01*
X5783580Y-5927953D01*
X5788355Y-5924499D01*
X5792470Y-5920536D01*
X5795873Y-5916015D01*
X5798616Y-5910935D01*
X5800547Y-5905347D01*
X5801766Y-5899200D01*
X5802172Y-5892596D01*
X5801918Y-5887872D01*
X5801156Y-5883249D01*
X5799886Y-5878728D01*
X5798159Y-5874308D01*
X5795975Y-5870092D01*
X5793282Y-5866028D01*
X5790184Y-5862218D01*
X5786628Y-5858662D01*
X5782716Y-5855411D01*
X5778347Y-5852464D01*
X5773623Y-5849924D01*
X5768492Y-5847740D01*
X5763006Y-5845962D01*
X5757164Y-5844692D01*
X5750966Y-5843879D01*
G37*
G36*
X5744464Y-5955385D02*
G01*
X5737758Y-5955588D01*
X5731408Y-5956198D01*
X5725515Y-5957214D01*
X5719978Y-5958586D01*
X5714847Y-5960313D01*
X5710123Y-5962446D01*
X5705805Y-5964885D01*
X5701893Y-5967679D01*
X5698490Y-5970778D01*
X5695442Y-5974232D01*
X5692902Y-5977940D01*
X5690768Y-5981954D01*
X5689092Y-5986272D01*
X5687923Y-5990793D01*
X5687212Y-5995619D01*
X5686958Y-6000699D01*
X5687172Y-6004153D01*
X5700979Y-6004153D01*
X5701334Y-5999327D01*
X5702300Y-5994857D01*
X5703976Y-5990742D01*
X5706262Y-5987034D01*
X5709107Y-5983732D01*
X5712612Y-5980836D01*
X5716625Y-5978398D01*
X5721197Y-5976366D01*
X5726277Y-5974740D01*
X5731865Y-5973572D01*
X5737910Y-5972911D01*
X5744464Y-5972657D01*
X5750712Y-5972962D01*
X5756605Y-5973826D01*
X5762091Y-5975197D01*
X5767171Y-5977077D01*
X5771794Y-5979414D01*
X5775909Y-5982208D01*
X5779516Y-5985357D01*
X5782513Y-5988862D01*
X5784951Y-5992723D01*
X5786678Y-5996838D01*
X5787796Y-6001207D01*
X5788152Y-6005779D01*
X5787491Y-6012789D01*
X5785358Y-6019647D01*
X5781548Y-6026607D01*
X5775960Y-6033820D01*
X5716625Y-6033820D01*
X5709818Y-6026556D01*
X5704941Y-6019292D01*
X5701944Y-6011875D01*
X5700979Y-6004153D01*
X5687172Y-6004153D01*
X5687263Y-6005626D01*
X5688228Y-6010452D01*
X5689650Y-6015024D01*
X5691581Y-6019393D01*
X5693968Y-6023610D01*
X5696661Y-6027521D01*
X5699607Y-6031230D01*
X5702808Y-6034633D01*
X5702808Y-6035243D01*
X5689600Y-6036665D01*
X5689600Y-6050280D01*
X5851347Y-6050280D01*
X5851347Y-6033820D01*
X5808268Y-6033820D01*
X5789168Y-6034633D01*
X5794603Y-6027318D01*
X5798718Y-6020054D01*
X5801258Y-6012129D01*
X5802172Y-6003137D01*
X5801918Y-5998464D01*
X5801156Y-5993841D01*
X5799886Y-5989370D01*
X5798108Y-5985052D01*
X5795924Y-5980887D01*
X5793232Y-5976975D01*
X5790133Y-5973267D01*
X5786577Y-5969812D01*
X5782614Y-5966663D01*
X5778246Y-5963869D01*
X5773521Y-5961380D01*
X5768390Y-5959297D01*
X5762904Y-5957620D01*
X5757113Y-5956401D01*
X5750915Y-5955639D01*
G37*
G36*
X5689600Y-6133998D02*
G01*
X5689600Y-6147003D01*
X5700979Y-6148832D01*
X5700979Y-6149238D01*
X5695086Y-6156858D01*
X5690666Y-6164935D01*
X5687923Y-6173063D01*
X5687257Y-6178499D01*
X5700979Y-6178499D01*
X5701588Y-6172352D01*
X5703620Y-6165443D01*
X5707329Y-6158077D01*
X5712968Y-6150457D01*
X5772302Y-6150457D01*
X5779160Y-6158534D01*
X5784088Y-6166307D01*
X5787136Y-6173876D01*
X5788152Y-6181140D01*
X5787796Y-6186373D01*
X5786780Y-6190996D01*
X5785053Y-6195161D01*
X5782767Y-6198819D01*
X5779871Y-6201918D01*
X5776417Y-6204610D01*
X5772454Y-6206845D01*
X5768035Y-6208572D01*
X5763107Y-6209944D01*
X5757824Y-6210909D01*
X5752134Y-6211417D01*
X5746089Y-6211620D01*
X5739333Y-6211316D01*
X5733084Y-6210503D01*
X5727293Y-6209131D01*
X5722010Y-6207302D01*
X5717286Y-6204966D01*
X5713120Y-6202222D01*
X5709513Y-6199073D01*
X5706465Y-6195568D01*
X5704128Y-6191758D01*
X5702401Y-6187592D01*
X5701334Y-6183172D01*
X5700979Y-6178499D01*
X5687257Y-6178499D01*
X5686958Y-6180937D01*
X5687212Y-6185662D01*
X5687974Y-6190284D01*
X5689193Y-6194806D01*
X5690920Y-6199124D01*
X5693156Y-6203340D01*
X5695797Y-6207252D01*
X5698947Y-6211011D01*
X5702554Y-6214414D01*
X5706567Y-6217615D01*
X5710986Y-6220409D01*
X5715863Y-6222898D01*
X5721146Y-6224981D01*
X5726836Y-6226657D01*
X5732932Y-6227876D01*
X5739434Y-6228638D01*
X5746292Y-6228892D01*
X5752490Y-6228689D01*
X5758383Y-6228181D01*
X5763971Y-6227318D01*
X5769254Y-6226048D01*
X5774182Y-6224473D01*
X5778804Y-6222542D01*
X5783021Y-6220307D01*
X5786882Y-6217716D01*
X5790336Y-6214770D01*
X5793384Y-6211468D01*
X5796026Y-6207861D01*
X5798159Y-6203950D01*
X5799886Y-6199682D01*
X5801156Y-6195110D01*
X5801918Y-6190234D01*
X5802172Y-6185001D01*
X5801868Y-6180277D01*
X5800902Y-6175603D01*
X5799480Y-6171031D01*
X5797499Y-6166459D01*
X5795162Y-6162040D01*
X5792470Y-6157772D01*
X5789523Y-6153607D01*
X5786323Y-6149644D01*
X5806440Y-6150457D01*
X5851347Y-6150457D01*
X5851347Y-6133998D01*
G37*
G36*
X5799328Y-6241288D02*
G01*
X5688990Y-6285585D01*
X5680456Y-6283147D01*
X5675325Y-6281166D01*
X5670600Y-6278880D01*
X5666384Y-6276238D01*
X5662726Y-6273241D01*
X5659780Y-6269888D01*
X5657545Y-6266180D01*
X5656122Y-6262065D01*
X5655665Y-6257544D01*
X5656173Y-6252972D01*
X5657291Y-6249009D01*
X5643880Y-6245555D01*
X5642914Y-6248298D01*
X5641797Y-6254597D01*
X5641644Y-6258153D01*
X5642000Y-6263284D01*
X5643016Y-6268008D01*
X5644591Y-6272377D01*
X5646775Y-6276390D01*
X5649518Y-6280048D01*
X5652668Y-6283401D01*
X5656326Y-6286500D01*
X5660339Y-6289294D01*
X5664708Y-6291834D01*
X5669381Y-6294170D01*
X5679440Y-6298184D01*
X5799328Y-6340043D01*
X5799328Y-6323787D01*
X5729071Y-6300927D01*
X5705652Y-6293916D01*
X5705652Y-6292900D01*
X5736539Y-6281928D01*
X5799328Y-6258560D01*
G37*
G36*
X5735523Y-6399377D02*
G01*
X5729122Y-6399580D01*
X5723026Y-6400088D01*
X5717133Y-6400952D01*
X5711494Y-6402171D01*
X5706110Y-6403695D01*
X5701030Y-6405473D01*
X5696153Y-6407607D01*
X5691530Y-6410045D01*
X5687212Y-6412687D01*
X5683148Y-6415633D01*
X5679338Y-6418834D01*
X5675782Y-6422288D01*
X5672531Y-6425946D01*
X5669534Y-6429857D01*
X5666790Y-6433921D01*
X5664352Y-6438239D01*
X5662218Y-6442710D01*
X5660339Y-6447383D01*
X5658713Y-6452209D01*
X5657392Y-6457188D01*
X5656376Y-6462318D01*
X5655665Y-6467551D01*
X5655208Y-6472936D01*
X5655056Y-6478422D01*
X5655259Y-6484213D01*
X5655767Y-6489852D01*
X5656681Y-6495389D01*
X5657951Y-6500774D01*
X5659577Y-6506057D01*
X5661558Y-6511239D01*
X5663946Y-6516319D01*
X5666638Y-6521297D01*
X5676798Y-6516624D01*
X5672632Y-6508445D01*
X5670854Y-6504076D01*
X5669330Y-6499504D01*
X5668111Y-6494780D01*
X5667197Y-6489903D01*
X5666638Y-6484823D01*
X5666435Y-6479641D01*
X5666638Y-6473850D01*
X5667197Y-6468262D01*
X5668162Y-6462826D01*
X5669432Y-6457645D01*
X5671108Y-6452616D01*
X5673140Y-6447840D01*
X5675528Y-6443268D01*
X5678271Y-6438950D01*
X5681319Y-6434937D01*
X5684774Y-6431178D01*
X5688482Y-6427724D01*
X5692546Y-6424574D01*
X5696915Y-6421729D01*
X5701639Y-6419240D01*
X5706618Y-6417056D01*
X5711952Y-6415278D01*
X5717540Y-6413855D01*
X5723483Y-6412839D01*
X5729681Y-6412179D01*
X5736132Y-6411976D01*
X5742686Y-6412179D01*
X5749036Y-6412788D01*
X5755182Y-6413754D01*
X5761126Y-6415074D01*
X5766816Y-6416751D01*
X5772302Y-6418732D01*
X5777534Y-6421018D01*
X5782564Y-6423660D01*
X5787288Y-6426504D01*
X5791809Y-6429654D01*
X5796026Y-6433058D01*
X5799988Y-6436664D01*
X5803646Y-6440474D01*
X5807049Y-6444488D01*
X5810199Y-6448653D01*
X5812993Y-6453022D01*
X5815482Y-6457492D01*
X5817666Y-6462115D01*
X5819546Y-6466840D01*
X5821121Y-6471666D01*
X5822340Y-6476593D01*
X5823204Y-6481572D01*
X5823712Y-6486601D01*
X5823915Y-6491630D01*
X5823610Y-6499047D01*
X5822696Y-6506006D01*
X5821222Y-6512509D01*
X5819190Y-6518605D01*
X5816650Y-6524193D01*
X5813602Y-6529374D01*
X5810046Y-6534048D01*
X5806033Y-6538264D01*
X5801614Y-6542024D01*
X5796788Y-6545275D01*
X5791555Y-6548018D01*
X5785916Y-6550304D01*
X5779973Y-6552082D01*
X5773724Y-6553403D01*
X5767171Y-6554165D01*
X5760313Y-6554419D01*
X5753049Y-6554063D01*
X5746343Y-6553098D01*
X5740196Y-6551574D01*
X5734608Y-6549593D01*
X5729630Y-6547104D01*
X5725261Y-6544309D01*
X5721502Y-6541211D01*
X5718403Y-6537858D01*
X5715965Y-6534353D01*
X5714187Y-6530746D01*
X5713120Y-6527139D01*
X5712764Y-6523532D01*
X5713171Y-6519113D01*
X5714441Y-6515506D01*
X5716524Y-6512712D01*
X5719470Y-6510680D01*
X5723280Y-6509512D01*
X5728004Y-6509156D01*
X5733643Y-6509613D01*
X5784697Y-6519672D01*
X5784697Y-6508292D01*
X5775553Y-6506057D01*
X5775553Y-6505651D01*
X5780430Y-6502095D01*
X5783884Y-6497777D01*
X5785866Y-6492900D01*
X5786526Y-6487363D01*
X5785967Y-6480911D01*
X5784291Y-6474917D01*
X5781700Y-6469380D01*
X5778296Y-6464300D01*
X5774131Y-6459778D01*
X5769356Y-6455714D01*
X5764123Y-6452260D01*
X5758484Y-6449364D01*
X5752592Y-6447078D01*
X5746546Y-6445453D01*
X5740501Y-6444437D01*
X5734507Y-6444081D01*
X5727242Y-6444640D01*
X5720842Y-6446164D01*
X5715406Y-6448602D01*
X5710885Y-6451854D01*
X5707278Y-6455816D01*
X5704687Y-6460388D01*
X5703112Y-6465417D01*
X5702604Y-6470904D01*
X5703116Y-6473952D01*
X5714390Y-6473952D01*
X5715558Y-6467449D01*
X5719216Y-6462217D01*
X5725769Y-6458762D01*
X5735523Y-6457492D01*
X5742228Y-6458000D01*
X5749036Y-6459575D01*
X5755589Y-6462064D01*
X5761685Y-6465468D01*
X5766917Y-6469735D01*
X5771083Y-6474815D01*
X5773775Y-6480657D01*
X5774740Y-6487160D01*
X5774232Y-6491630D01*
X5772607Y-6495542D01*
X5769610Y-6499047D01*
X5764987Y-6502400D01*
X5728208Y-6495897D01*
X5721959Y-6490004D01*
X5717641Y-6484416D01*
X5715152Y-6479082D01*
X5714390Y-6473952D01*
X5703116Y-6473952D01*
X5703874Y-6478473D01*
X5707227Y-6485686D01*
X5712206Y-6492494D01*
X5718251Y-6498539D01*
X5718251Y-6498945D01*
X5710682Y-6501434D01*
X5705398Y-6506413D01*
X5702198Y-6513474D01*
X5701182Y-6522110D01*
X5701436Y-6525920D01*
X5702147Y-6529781D01*
X5703316Y-6533692D01*
X5704992Y-6537502D01*
X5707126Y-6541312D01*
X5709767Y-6544970D01*
X5712815Y-6548475D01*
X5716320Y-6551828D01*
X5720334Y-6554876D01*
X5724804Y-6557721D01*
X5729681Y-6560210D01*
X5735066Y-6562293D01*
X5740857Y-6564020D01*
X5747105Y-6565341D01*
X5753811Y-6566153D01*
X5760923Y-6566408D01*
X5767476Y-6566204D01*
X5773775Y-6565595D01*
X5779820Y-6564528D01*
X5785662Y-6563106D01*
X5791250Y-6561277D01*
X5796534Y-6559092D01*
X5801512Y-6556502D01*
X5806236Y-6553555D01*
X5810656Y-6550253D01*
X5814720Y-6546596D01*
X5818479Y-6542633D01*
X5821883Y-6538315D01*
X5824931Y-6533692D01*
X5827623Y-6528714D01*
X5829909Y-6523481D01*
X5831789Y-6517894D01*
X5833313Y-6512052D01*
X5834430Y-6505905D01*
X5835091Y-6499504D01*
X5835294Y-6492849D01*
X5835142Y-6487515D01*
X5834684Y-6482283D01*
X5833973Y-6477101D01*
X5832957Y-6472021D01*
X5831636Y-6466992D01*
X5830062Y-6462064D01*
X5828182Y-6457238D01*
X5823712Y-6447993D01*
X5821070Y-6443573D01*
X5818174Y-6439255D01*
X5815025Y-6435140D01*
X5811672Y-6431229D01*
X5808014Y-6427419D01*
X5804204Y-6423863D01*
X5800140Y-6420510D01*
X5795822Y-6417310D01*
X5791352Y-6414363D01*
X5786628Y-6411671D01*
X5781700Y-6409182D01*
X5776569Y-6406997D01*
X5771235Y-6405016D01*
X5765749Y-6403340D01*
X5760059Y-6401917D01*
X5754166Y-6400850D01*
X5748121Y-6400038D01*
X5741924Y-6399530D01*
G37*
G36*
X5689600Y-6598716D02*
G01*
X5689600Y-6614566D01*
X5776874Y-6614515D01*
X5788304Y-6614159D01*
X5816396Y-6612534D01*
X5816396Y-6613550D01*
X5785916Y-6629806D01*
X5689600Y-6685686D01*
X5689600Y-6703161D01*
X5838342Y-6703161D01*
X5838342Y-6687108D01*
X5752134Y-6687159D01*
X5728716Y-6688175D01*
X5711545Y-6689344D01*
X5711545Y-6688328D01*
X5742025Y-6672275D01*
X5838342Y-6615988D01*
X5838342Y-6598716D01*
G37*
G36*
X5834481Y-6739940D02*
G01*
X5829655Y-6740753D01*
X5826048Y-6743141D01*
X5823712Y-6746798D01*
X5822899Y-6751523D01*
X5823712Y-6756044D01*
X5826048Y-6759651D01*
X5829655Y-6762038D01*
X5834481Y-6762902D01*
X5839053Y-6762038D01*
X5842609Y-6759651D01*
X5844844Y-6756044D01*
X5845657Y-6751523D01*
X5844844Y-6746798D01*
X5842609Y-6743141D01*
X5839053Y-6740804D01*
G37*
G36*
X5689600Y-6743192D02*
G01*
X5689600Y-6759651D01*
X5799328Y-6759651D01*
X5799328Y-6743192D01*
G37*
G36*
X5701995Y-6785051D02*
G01*
X5698896Y-6789115D01*
X5696051Y-6793585D01*
X5693511Y-6798411D01*
X5691276Y-6803491D01*
X5689447Y-6808825D01*
X5688126Y-6814362D01*
X5687263Y-6820052D01*
X5686958Y-6825894D01*
X5687618Y-6834886D01*
X5689498Y-6842759D01*
X5692495Y-6849465D01*
X5696458Y-6855002D01*
X5701233Y-6859422D01*
X5706668Y-6862572D01*
X5712663Y-6864451D01*
X5719064Y-6865112D01*
X5726277Y-6864299D01*
X5732272Y-6862064D01*
X5737199Y-6858609D01*
X5741314Y-6854139D01*
X5744718Y-6848957D01*
X5747613Y-6843268D01*
X5752592Y-6831177D01*
X5755995Y-6822135D01*
X5760008Y-6814464D01*
X5765241Y-6809181D01*
X5772302Y-6807200D01*
X5778703Y-6808470D01*
X5783986Y-6812381D01*
X5787644Y-6819036D01*
X5788964Y-6828536D01*
X5788202Y-6835597D01*
X5786170Y-6842048D01*
X5783072Y-6848043D01*
X5779211Y-6853732D01*
X5789980Y-6861860D01*
X5794705Y-6855002D01*
X5798616Y-6847027D01*
X5801207Y-6838137D01*
X5802172Y-6828536D01*
X5801563Y-6820103D01*
X5799785Y-6812686D01*
X5796940Y-6806234D01*
X5793232Y-6800900D01*
X5788710Y-6796684D01*
X5783478Y-6793636D01*
X5777687Y-6791756D01*
X5771489Y-6791147D01*
X5764987Y-6791909D01*
X5759450Y-6794042D01*
X5754725Y-6797294D01*
X5750763Y-6801561D01*
X5747410Y-6806488D01*
X5744514Y-6811975D01*
X5742025Y-6817766D01*
X5736183Y-6832904D01*
X5734100Y-6837222D01*
X5731764Y-6841134D01*
X5729071Y-6844436D01*
X5725972Y-6847027D01*
X5722366Y-6848652D01*
X5718251Y-6849262D01*
X5711088Y-6847840D01*
X5705297Y-6843572D01*
X5701385Y-6836511D01*
X5699963Y-6826503D01*
X5700928Y-6816852D01*
X5703671Y-6808368D01*
X5707837Y-6800646D01*
X5713171Y-6793382D01*
G37*
G36*
X5785713Y-6873849D02*
G01*
X5785713Y-6890512D01*
X5722721Y-6890512D01*
X5715050Y-6890867D01*
X5708142Y-6892036D01*
X5702046Y-6894017D01*
X5696813Y-6897065D01*
X5692648Y-6901129D01*
X5689549Y-6906361D01*
X5687618Y-6912914D01*
X5686958Y-6920788D01*
X5687314Y-6925564D01*
X5688228Y-6930542D01*
X5691022Y-6940296D01*
X5703620Y-6937044D01*
X5702452Y-6934098D01*
X5701487Y-6930796D01*
X5700826Y-6927443D01*
X5700572Y-6924243D01*
X5702046Y-6915962D01*
X5706313Y-6910679D01*
X5713069Y-6907834D01*
X5722112Y-6906971D01*
X5785713Y-6906971D01*
X5785713Y-6937248D01*
X5799328Y-6937248D01*
X5799328Y-6906971D01*
X5830417Y-6906971D01*
X5830417Y-6893153D01*
X5799328Y-6891121D01*
X5798312Y-6873849D01*
G37*
G36*
X5744464Y-6950862D02*
G01*
X5737809Y-6951116D01*
X5731560Y-6951929D01*
X5725668Y-6953199D01*
X5720130Y-6954977D01*
X5715000Y-6957161D01*
X5710275Y-6959752D01*
X5705957Y-6962698D01*
X5702096Y-6966000D01*
X5698591Y-6969607D01*
X5695543Y-6973519D01*
X5692952Y-6977684D01*
X5690819Y-6982053D01*
X5689142Y-6986625D01*
X5687923Y-6991400D01*
X5687212Y-6996277D01*
X5686958Y-7001256D01*
X5700776Y-7001256D01*
X5701131Y-6996480D01*
X5702198Y-6991959D01*
X5703925Y-6987743D01*
X5706262Y-6983831D01*
X5709259Y-6980326D01*
X5712764Y-6977227D01*
X5716879Y-6974484D01*
X5721502Y-6972198D01*
X5726582Y-6970369D01*
X5732119Y-6969048D01*
X5738114Y-6968185D01*
X5744464Y-6967931D01*
X5750763Y-6968185D01*
X5756706Y-6969048D01*
X5762244Y-6970369D01*
X5767374Y-6972198D01*
X5771946Y-6974484D01*
X5776061Y-6977227D01*
X5779617Y-6980326D01*
X5782614Y-6983831D01*
X5785002Y-6987743D01*
X5786729Y-6991959D01*
X5787796Y-6996480D01*
X5788152Y-7001256D01*
X5787796Y-7006031D01*
X5786729Y-7010603D01*
X5785002Y-7014819D01*
X5782614Y-7018731D01*
X5779617Y-7022236D01*
X5776061Y-7025386D01*
X5771946Y-7028180D01*
X5767374Y-7030466D01*
X5762244Y-7032294D01*
X5756706Y-7033666D01*
X5750763Y-7034479D01*
X5744464Y-7034784D01*
X5738114Y-7034479D01*
X5732119Y-7033666D01*
X5726582Y-7032294D01*
X5721502Y-7030466D01*
X5716879Y-7028180D01*
X5712764Y-7025386D01*
X5709259Y-7022236D01*
X5706262Y-7018731D01*
X5703925Y-7014819D01*
X5702198Y-7010603D01*
X5701131Y-7006031D01*
X5700776Y-7001256D01*
X5686958Y-7001256D01*
X5687212Y-7006234D01*
X5687923Y-7011111D01*
X5689142Y-7015886D01*
X5690819Y-7020458D01*
X5692952Y-7024878D01*
X5695543Y-7029043D01*
X5698591Y-7032955D01*
X5702096Y-7036612D01*
X5705957Y-7039914D01*
X5710275Y-7042912D01*
X5715000Y-7045502D01*
X5720130Y-7047738D01*
X5725668Y-7049465D01*
X5731560Y-7050786D01*
X5737809Y-7051598D01*
X5744464Y-7051852D01*
X5751118Y-7051598D01*
X5757468Y-7050786D01*
X5763361Y-7049465D01*
X5768898Y-7047738D01*
X5774080Y-7045502D01*
X5778804Y-7042912D01*
X5783122Y-7039914D01*
X5787034Y-7036612D01*
X5790539Y-7032955D01*
X5793536Y-7029043D01*
X5796178Y-7024878D01*
X5798312Y-7020458D01*
X5799988Y-7015886D01*
X5801207Y-7011111D01*
X5801918Y-7006234D01*
X5802172Y-7001256D01*
X5801918Y-6996277D01*
X5801207Y-6991400D01*
X5799988Y-6986625D01*
X5798312Y-6982053D01*
X5796178Y-6977684D01*
X5793536Y-6973519D01*
X5790539Y-6969607D01*
X5787034Y-6966000D01*
X5783122Y-6962698D01*
X5778804Y-6959752D01*
X5774080Y-6957161D01*
X5768898Y-6954977D01*
X5763361Y-6953199D01*
X5757468Y-6951929D01*
X5751118Y-6951116D01*
G37*
G36*
X5689600Y-7081723D02*
G01*
X5689600Y-7098182D01*
X5761126Y-7098182D01*
X5767730Y-7101179D01*
X5773267Y-7104430D01*
X5777738Y-7107936D01*
X5781294Y-7111593D01*
X5783935Y-7115352D01*
X5785764Y-7119112D01*
X5786780Y-7122820D01*
X5787136Y-7126427D01*
X5787034Y-7129322D01*
X5786120Y-7134250D01*
X5785307Y-7136790D01*
X5799734Y-7140041D01*
X5800902Y-7137349D01*
X5801664Y-7134656D01*
X5802071Y-7131710D01*
X5802172Y-7128459D01*
X5801766Y-7123887D01*
X5800547Y-7119416D01*
X5798566Y-7115149D01*
X5795873Y-7111085D01*
X5792571Y-7107224D01*
X5788609Y-7103668D01*
X5784189Y-7100366D01*
X5779211Y-7097369D01*
X5779211Y-7096759D01*
X5799328Y-7095134D01*
X5799328Y-7081723D01*
G37*
G36*
X5689600Y-7160158D02*
G01*
X5689600Y-7177024D01*
X5824524Y-7177024D01*
X5824524Y-7195312D01*
X5824270Y-7201865D01*
X5823508Y-7208012D01*
X5822238Y-7213701D01*
X5820511Y-7218934D01*
X5818276Y-7223759D01*
X5815584Y-7228179D01*
X5812434Y-7232142D01*
X5808827Y-7235698D01*
X5804763Y-7238796D01*
X5800242Y-7241540D01*
X5795314Y-7243775D01*
X5789980Y-7245654D01*
X5784240Y-7247128D01*
X5778042Y-7248144D01*
X5771540Y-7248753D01*
X5764580Y-7248956D01*
X5757621Y-7248753D01*
X5751068Y-7248144D01*
X5744819Y-7247128D01*
X5738977Y-7245654D01*
X5733542Y-7243775D01*
X5728512Y-7241540D01*
X5723940Y-7238796D01*
X5719724Y-7235698D01*
X5716016Y-7232142D01*
X5712764Y-7228179D01*
X5709970Y-7223759D01*
X5707634Y-7218934D01*
X5705805Y-7213701D01*
X5704484Y-7208012D01*
X5703671Y-7201865D01*
X5703417Y-7195312D01*
X5703417Y-7177024D01*
X5689600Y-7177024D01*
X5689600Y-7197344D01*
X5689803Y-7203948D01*
X5690412Y-7210247D01*
X5691479Y-7216190D01*
X5692902Y-7221829D01*
X5694730Y-7227112D01*
X5696966Y-7232142D01*
X5699556Y-7236764D01*
X5702554Y-7241082D01*
X5705856Y-7245045D01*
X5709564Y-7248702D01*
X5713628Y-7252004D01*
X5717997Y-7254951D01*
X5722721Y-7257592D01*
X5727750Y-7259878D01*
X5733135Y-7261809D01*
X5738825Y-7263384D01*
X5744819Y-7264653D01*
X5751118Y-7265517D01*
X5757722Y-7266025D01*
X5764580Y-7266228D01*
X5771438Y-7266025D01*
X5777992Y-7265517D01*
X5784240Y-7264653D01*
X5790184Y-7263384D01*
X5795822Y-7261809D01*
X5801106Y-7259878D01*
X5806084Y-7257592D01*
X5810758Y-7254951D01*
X5815025Y-7251953D01*
X5818987Y-7248601D01*
X5822594Y-7244943D01*
X5825845Y-7240930D01*
X5828741Y-7236612D01*
X5831230Y-7231888D01*
X5833414Y-7226858D01*
X5835142Y-7221524D01*
X5836564Y-7215835D01*
X5837529Y-7209790D01*
X5838139Y-7203440D01*
X5838342Y-7196734D01*
X5838342Y-7160158D01*
G37*
G36*
X5717844Y-7290409D02*
G01*
X5710783Y-7291019D01*
X5704636Y-7292848D01*
X5699302Y-7295743D01*
X5694934Y-7299604D01*
X5691479Y-7304278D01*
X5688990Y-7309713D01*
X5687466Y-7315758D01*
X5686958Y-7322312D01*
X5687223Y-7326782D01*
X5700369Y-7326782D01*
X5701385Y-7318908D01*
X5704636Y-7312456D01*
X5710377Y-7308088D01*
X5718860Y-7306462D01*
X5722518Y-7306767D01*
X5725922Y-7307630D01*
X5729071Y-7309154D01*
X5732018Y-7311339D01*
X5734761Y-7314234D01*
X5737250Y-7317943D01*
X5739536Y-7322413D01*
X5741568Y-7327747D01*
X5743448Y-7333996D01*
X5745073Y-7341158D01*
X5746496Y-7349286D01*
X5747715Y-7358481D01*
X5715609Y-7358481D01*
X5709005Y-7350404D01*
X5704281Y-7342631D01*
X5701334Y-7334859D01*
X5700369Y-7326782D01*
X5687223Y-7326782D01*
X5688228Y-7332421D01*
X5689701Y-7337298D01*
X5691632Y-7342022D01*
X5694019Y-7346594D01*
X5696712Y-7351014D01*
X5703011Y-7359294D01*
X5703011Y-7359903D01*
X5689600Y-7361326D01*
X5689600Y-7374940D01*
X5757672Y-7374940D01*
X5764072Y-7374737D01*
X5770118Y-7374026D01*
X5775756Y-7372858D01*
X5780938Y-7371232D01*
X5785662Y-7369048D01*
X5789828Y-7366304D01*
X5793435Y-7363053D01*
X5796483Y-7359243D01*
X5798921Y-7354773D01*
X5800699Y-7349744D01*
X5801817Y-7344054D01*
X5802172Y-7337755D01*
X5801817Y-7331252D01*
X5800801Y-7324953D01*
X5799277Y-7319009D01*
X5797346Y-7313371D01*
X5795060Y-7308138D01*
X5792673Y-7303312D01*
X5787745Y-7295083D01*
X5776163Y-7301788D01*
X5780532Y-7308646D01*
X5784494Y-7316622D01*
X5787288Y-7325512D01*
X5788355Y-7335113D01*
X5787694Y-7341565D01*
X5785815Y-7346746D01*
X5782919Y-7350861D01*
X5779211Y-7353960D01*
X5774740Y-7356144D01*
X5769762Y-7357567D01*
X5764428Y-7358329D01*
X5758891Y-7358481D01*
X5756605Y-7342022D01*
X5755182Y-7334707D01*
X5753608Y-7327950D01*
X5751880Y-7321803D01*
X5749899Y-7316216D01*
X5747766Y-7311237D01*
X5745378Y-7306767D01*
X5742787Y-7302855D01*
X5739993Y-7299502D01*
X5736945Y-7296708D01*
X5733643Y-7294422D01*
X5730087Y-7292644D01*
X5726277Y-7291425D01*
X5722213Y-7290663D01*
G37*
G36*
X5689600Y-7411110D02*
G01*
X5689600Y-7427569D01*
X5761126Y-7427569D01*
X5767730Y-7430566D01*
X5773267Y-7433818D01*
X5777738Y-7437323D01*
X5781294Y-7440980D01*
X5783935Y-7444740D01*
X5785764Y-7448499D01*
X5786780Y-7452207D01*
X5787136Y-7455814D01*
X5787034Y-7458709D01*
X5786120Y-7463637D01*
X5785307Y-7466177D01*
X5799734Y-7469428D01*
X5800902Y-7466736D01*
X5801664Y-7464044D01*
X5802071Y-7461097D01*
X5802172Y-7457846D01*
X5801766Y-7453274D01*
X5800547Y-7448803D01*
X5798566Y-7444536D01*
X5795873Y-7440472D01*
X5792571Y-7436612D01*
X5788609Y-7433056D01*
X5784189Y-7429753D01*
X5779211Y-7426756D01*
X5779211Y-7426147D01*
X5799328Y-7424521D01*
X5799328Y-7411110D01*
G37*
G36*
X5834481Y-7484872D02*
G01*
X5829655Y-7485684D01*
X5826048Y-7488072D01*
X5823712Y-7491730D01*
X5822899Y-7496454D01*
X5823712Y-7500975D01*
X5826048Y-7504582D01*
X5829655Y-7506970D01*
X5834481Y-7507833D01*
X5839053Y-7506970D01*
X5842609Y-7504582D01*
X5844844Y-7500975D01*
X5845657Y-7496454D01*
X5844844Y-7491730D01*
X5842609Y-7488072D01*
X5839053Y-7485684D01*
G37*
G36*
X5689600Y-7488123D02*
G01*
X5689600Y-7504582D01*
X5799328Y-7504582D01*
X5799328Y-7488123D01*
G37*
G36*
X5729630Y-7541158D02*
G01*
X5722924Y-7541361D01*
X5716727Y-7542022D01*
X5711139Y-7543139D01*
X5706110Y-7544714D01*
X5701639Y-7546695D01*
X5697778Y-7549184D01*
X5694476Y-7552181D01*
X5691784Y-7555636D01*
X5689701Y-7559598D01*
X5688177Y-7564018D01*
X5687263Y-7568996D01*
X5686958Y-7574483D01*
X5687314Y-7580020D01*
X5688431Y-7585151D01*
X5690158Y-7590028D01*
X5692495Y-7594600D01*
X5695442Y-7598968D01*
X5698896Y-7603134D01*
X5702757Y-7607147D01*
X5707075Y-7611059D01*
X5707075Y-7611668D01*
X5689600Y-7613091D01*
X5689600Y-7626705D01*
X5799328Y-7626705D01*
X5799328Y-7610246D01*
X5720689Y-7610246D01*
X5716016Y-7606233D01*
X5712002Y-7602423D01*
X5708700Y-7598714D01*
X5706008Y-7595057D01*
X5703976Y-7591348D01*
X5702503Y-7587538D01*
X5701690Y-7583576D01*
X5701385Y-7579359D01*
X5701842Y-7573975D01*
X5703163Y-7569453D01*
X5705449Y-7565694D01*
X5708700Y-7562697D01*
X5712866Y-7560411D01*
X5718098Y-7558836D01*
X5724347Y-7557922D01*
X5731662Y-7557617D01*
X5799328Y-7557617D01*
X5799328Y-7541158D01*
G37*
G36*
X5701995Y-7652308D02*
G01*
X5698896Y-7656372D01*
X5696051Y-7660843D01*
X5693511Y-7665669D01*
X5691276Y-7670749D01*
X5689447Y-7676083D01*
X5688126Y-7681620D01*
X5687263Y-7687309D01*
X5686958Y-7693152D01*
X5687618Y-7702143D01*
X5689498Y-7710017D01*
X5692495Y-7716723D01*
X5696458Y-7722311D01*
X5701233Y-7726680D01*
X5706668Y-7729829D01*
X5712663Y-7731709D01*
X5719064Y-7732369D01*
X5726277Y-7731556D01*
X5732272Y-7729321D01*
X5737199Y-7725867D01*
X5741314Y-7721396D01*
X5744718Y-7716215D01*
X5747613Y-7710525D01*
X5752592Y-7698435D01*
X5755995Y-7689392D01*
X5760008Y-7681722D01*
X5765241Y-7676438D01*
X5772302Y-7674457D01*
X5778703Y-7675727D01*
X5783986Y-7679639D01*
X5787644Y-7686294D01*
X5788964Y-7695793D01*
X5788202Y-7702854D01*
X5786170Y-7709306D01*
X5783072Y-7715300D01*
X5779211Y-7720990D01*
X5789980Y-7729118D01*
X5794705Y-7722260D01*
X5798616Y-7714284D01*
X5801207Y-7705394D01*
X5802172Y-7695793D01*
X5801563Y-7687360D01*
X5799785Y-7679944D01*
X5796940Y-7673492D01*
X5793232Y-7668158D01*
X5788710Y-7663942D01*
X5783478Y-7660894D01*
X5777687Y-7659014D01*
X5771489Y-7658404D01*
X5764987Y-7659166D01*
X5759450Y-7661300D01*
X5754725Y-7664551D01*
X5750763Y-7668818D01*
X5747410Y-7673746D01*
X5744514Y-7679232D01*
X5742025Y-7685024D01*
X5736183Y-7700162D01*
X5734100Y-7704480D01*
X5731764Y-7708341D01*
X5729071Y-7711694D01*
X5725972Y-7714284D01*
X5722366Y-7715910D01*
X5718251Y-7716520D01*
X5711088Y-7715097D01*
X5705297Y-7710830D01*
X5701385Y-7703769D01*
X5699963Y-7693761D01*
X5700928Y-7684109D01*
X5703671Y-7675575D01*
X5707837Y-7667904D01*
X5713171Y-7660640D01*
G37*
G36*
X275945Y-2908096D02*
G01*
X273913Y-2920898D01*
X176377Y-2956661D01*
X176377Y-2964586D01*
X257657Y-2994253D01*
X239572Y-3000248D01*
X214121Y-3009442D01*
X176377Y-3023717D01*
X176377Y-3031642D01*
X273304Y-3064154D01*
X283260Y-3076752D01*
X283260Y-3036112D01*
X275945Y-3036112D01*
X273100Y-3053588D01*
X201777Y-3032048D01*
X273100Y-3005226D01*
X275945Y-3022295D01*
X283260Y-3022295D01*
X283260Y-2973933D01*
X275945Y-2973933D01*
X273304Y-2991002D01*
X200964Y-2965196D01*
X273507Y-2941015D01*
X275945Y-2958490D01*
X283260Y-2958490D01*
X283260Y-2908096D01*
G37*
G36*
X275945Y-3080410D02*
G01*
X273913Y-3093212D01*
X176377Y-3128975D01*
X176377Y-3136900D01*
X257657Y-3166567D01*
X239572Y-3172561D01*
X214121Y-3181756D01*
X176377Y-3196031D01*
X176377Y-3203956D01*
X273304Y-3236468D01*
X283260Y-3249066D01*
X283260Y-3208426D01*
X275945Y-3208426D01*
X273100Y-3225901D01*
X201777Y-3204362D01*
X273100Y-3177540D01*
X275945Y-3194608D01*
X283260Y-3194608D01*
X283260Y-3146247D01*
X275945Y-3146247D01*
X273304Y-3163316D01*
X200964Y-3137509D01*
X273507Y-3113328D01*
X275945Y-3130804D01*
X283260Y-3130804D01*
X283260Y-3080410D01*
G37*
G36*
X275945Y-3252724D02*
G01*
X273913Y-3265525D01*
X176377Y-3301288D01*
X176377Y-3309213D01*
X257657Y-3338880D01*
X239572Y-3344875D01*
X214121Y-3354070D01*
X176377Y-3368344D01*
X176377Y-3376269D01*
X273304Y-3408781D01*
X283260Y-3421379D01*
X283260Y-3380740D01*
X275945Y-3380740D01*
X273100Y-3398215D01*
X201777Y-3376676D01*
X273100Y-3349853D01*
X275945Y-3366922D01*
X283260Y-3366922D01*
X283260Y-3318560D01*
X275945Y-3318560D01*
X273304Y-3335629D01*
X200964Y-3309823D01*
X273507Y-3285642D01*
X275945Y-3303117D01*
X283260Y-3303117D01*
X283260Y-3252724D01*
G37*
G36*
X189788Y-3420973D02*
G01*
X184150Y-3422142D01*
X179425Y-3425342D01*
X176174Y-3430168D01*
X174955Y-3436010D01*
X176174Y-3442004D01*
X179425Y-3446830D01*
X184150Y-3450082D01*
X189788Y-3451250D01*
X195783Y-3450082D01*
X200710Y-3446830D01*
X204012Y-3442004D01*
X205232Y-3436010D01*
X204012Y-3430168D01*
X200710Y-3425342D01*
X195783Y-3422142D01*
G37*
G36*
X177800Y-3475634D02*
G01*
X177800Y-3530295D01*
X187147Y-3512413D01*
X224536Y-3512007D01*
X309067Y-3512007D01*
X340766Y-3513023D01*
X342392Y-3509975D01*
X333044Y-3475634D01*
X326339Y-3475634D01*
X324713Y-3493719D01*
X215239Y-3493668D01*
X187147Y-3493312D01*
X184708Y-3475634D01*
G37*
G36*
X267411Y-3543096D02*
G01*
X265785Y-3561181D01*
X252069Y-3561638D01*
X215900Y-3561740D01*
X187147Y-3561384D01*
X184708Y-3544315D01*
X177800Y-3544315D01*
X177800Y-3595522D01*
X187147Y-3580282D01*
X224536Y-3579876D01*
X254406Y-3579876D01*
X284073Y-3580282D01*
X286105Y-3577234D01*
X274116Y-3543096D01*
G37*
G36*
X325526Y-3556101D02*
G01*
X320040Y-3557219D01*
X315620Y-3560267D01*
X312775Y-3564839D01*
X311708Y-3570528D01*
X312775Y-3576015D01*
X315620Y-3580536D01*
X320040Y-3583635D01*
X325526Y-3584752D01*
X331063Y-3583635D01*
X335381Y-3580536D01*
X338175Y-3576015D01*
X339140Y-3570528D01*
X338175Y-3564839D01*
X335381Y-3560267D01*
X331063Y-3557219D01*
G37*
G36*
X267208Y-3610762D02*
G01*
X265379Y-3628440D01*
X252120Y-3628898D01*
X215900Y-3628999D01*
X187147Y-3628644D01*
X184708Y-3612184D01*
X177800Y-3612184D01*
X177800Y-3663391D01*
X184708Y-3663391D01*
X187147Y-3647948D01*
X224536Y-3647541D01*
X257454Y-3647541D01*
X264210Y-3655872D01*
X268833Y-3663696D01*
X271475Y-3671214D01*
X272288Y-3678631D01*
X271932Y-3683152D01*
X270916Y-3687013D01*
X269036Y-3690213D01*
X266293Y-3692753D01*
X262636Y-3694684D01*
X257962Y-3696055D01*
X252221Y-3696868D01*
X245262Y-3697122D01*
X187147Y-3696715D01*
X184708Y-3680256D01*
X177800Y-3680256D01*
X177800Y-3731463D01*
X187147Y-3715816D01*
X224536Y-3715410D01*
X245871Y-3715410D01*
X255828Y-3714953D01*
X264261Y-3713632D01*
X271272Y-3711397D01*
X276809Y-3708247D01*
X281076Y-3704285D01*
X284022Y-3699357D01*
X285750Y-3693617D01*
X286308Y-3686962D01*
X285953Y-3681729D01*
X284886Y-3676497D01*
X283159Y-3671214D01*
X280771Y-3666032D01*
X277825Y-3660952D01*
X274320Y-3656025D01*
X270306Y-3651351D01*
X265785Y-3646932D01*
X284073Y-3645103D01*
X286105Y-3642055D01*
X273913Y-3610762D01*
G37*
G36*
X326339Y-3744264D02*
G01*
X324713Y-3762349D01*
X215341Y-3762298D01*
X187147Y-3761943D01*
X184708Y-3744468D01*
X177800Y-3744468D01*
X177800Y-3798519D01*
X184708Y-3798519D01*
X187147Y-3781044D01*
X219456Y-3780637D01*
X234492Y-3795471D01*
X177800Y-3830015D01*
X177800Y-3860292D01*
X186740Y-3845864D01*
X247294Y-3808272D01*
X273100Y-3833876D01*
X275945Y-3854602D01*
X283260Y-3854602D01*
X283260Y-3803396D01*
X275945Y-3803396D01*
X272288Y-3820871D01*
X230835Y-3780637D01*
X309067Y-3780637D01*
X340766Y-3781653D01*
X342392Y-3778605D01*
X333044Y-3744264D01*
G37*
G36*
X229819Y-3866184D02*
G01*
X223469Y-3866438D01*
X217474Y-3867099D01*
X211836Y-3868267D01*
X206603Y-3869842D01*
X201676Y-3871823D01*
X197205Y-3874211D01*
X193090Y-3876954D01*
X189331Y-3880053D01*
X186029Y-3883558D01*
X183134Y-3887368D01*
X180695Y-3891483D01*
X178663Y-3895953D01*
X177038Y-3900627D01*
X175869Y-3905656D01*
X175209Y-3910888D01*
X174955Y-3916375D01*
X175412Y-3923487D01*
X176733Y-3930142D01*
X178866Y-3936187D01*
X181762Y-3941775D01*
X185420Y-3946753D01*
X189788Y-3951224D01*
X194767Y-3955084D01*
X200355Y-3958437D01*
X203403Y-3953967D01*
X196850Y-3947769D01*
X191770Y-3940860D01*
X188518Y-3932631D01*
X187350Y-3922674D01*
X187655Y-3917391D01*
X188569Y-3912412D01*
X190144Y-3907790D01*
X192278Y-3903522D01*
X195072Y-3899662D01*
X198475Y-3896207D01*
X202438Y-3893159D01*
X207060Y-3890619D01*
X212293Y-3888587D01*
X218135Y-3887063D01*
X224586Y-3886098D01*
X231648Y-3885692D01*
X231525Y-3928770D01*
X239572Y-3928770D01*
X239979Y-3885895D01*
X249174Y-3887266D01*
X257048Y-3889654D01*
X263550Y-3892854D01*
X268782Y-3896766D01*
X272796Y-3901186D01*
X275590Y-3906012D01*
X277215Y-3911041D01*
X277774Y-3916172D01*
X277215Y-3921353D01*
X275691Y-3926078D01*
X273253Y-3930294D01*
X270052Y-3933901D01*
X266192Y-3936796D01*
X261823Y-3938930D01*
X257048Y-3940301D01*
X251967Y-3940759D01*
X246938Y-3940251D01*
X243027Y-3938422D01*
X240487Y-3934764D01*
X239572Y-3928770D01*
X231525Y-3928770D01*
X231444Y-3957218D01*
X236880Y-3958386D01*
X240182Y-3958742D01*
X243840Y-3958844D01*
X250190Y-3958488D01*
X256082Y-3957421D01*
X261518Y-3955694D01*
X266496Y-3953357D01*
X270967Y-3950462D01*
X274878Y-3947007D01*
X278282Y-3943045D01*
X281127Y-3938625D01*
X283362Y-3933799D01*
X284988Y-3928618D01*
X285953Y-3923029D01*
X286308Y-3917187D01*
X286054Y-3912108D01*
X285292Y-3907129D01*
X284022Y-3902303D01*
X282295Y-3897629D01*
X280111Y-3893210D01*
X277469Y-3888994D01*
X274421Y-3885031D01*
X270916Y-3881374D01*
X267055Y-3878072D01*
X262788Y-3875074D01*
X258114Y-3872484D01*
X253136Y-3870299D01*
X247802Y-3868521D01*
X242112Y-3867251D01*
X236118Y-3866438D01*
G37*
G36*
X229616Y-3979164D02*
G01*
X221691Y-3979519D01*
X214274Y-3980637D01*
X207365Y-3982465D01*
X201015Y-3984955D01*
X195224Y-3988104D01*
X190093Y-3991813D01*
X185623Y-3996080D01*
X181914Y-4000906D01*
X178917Y-4006240D01*
X176733Y-4012031D01*
X175412Y-4018279D01*
X174955Y-4024884D01*
X175548Y-4030167D01*
X186334Y-4030167D01*
X186588Y-4025747D01*
X187452Y-4021531D01*
X188874Y-4017619D01*
X190855Y-4013962D01*
X193446Y-4010609D01*
X196697Y-4007612D01*
X200558Y-4005021D01*
X205130Y-4002836D01*
X210312Y-4001058D01*
X216255Y-3999737D01*
X222859Y-3998925D01*
X230225Y-3998671D01*
X237794Y-3998976D01*
X244652Y-3999839D01*
X250698Y-4001211D01*
X256032Y-4003090D01*
X260705Y-4005427D01*
X264617Y-4008120D01*
X267919Y-4011168D01*
X270560Y-4014571D01*
X272592Y-4018229D01*
X274015Y-4022090D01*
X274878Y-4026154D01*
X275132Y-4030370D01*
X274523Y-4036060D01*
X272592Y-4042054D01*
X268935Y-4048506D01*
X263347Y-4055567D01*
X198932Y-4055567D01*
X192938Y-4049369D01*
X189026Y-4043324D01*
X186944Y-4037076D01*
X186334Y-4030167D01*
X175548Y-4030167D01*
X176022Y-4034383D01*
X179120Y-4042664D01*
X184150Y-4049877D01*
X190804Y-4056176D01*
X175564Y-4057396D01*
X177800Y-4091940D01*
X186740Y-4073855D01*
X309067Y-4073855D01*
X340766Y-4074464D01*
X342392Y-4071620D01*
X333044Y-4037279D01*
X326339Y-4037279D01*
X324713Y-4055973D01*
X271881Y-4055973D01*
X278739Y-4048912D01*
X283210Y-4041749D01*
X285597Y-4034332D01*
X286308Y-4026712D01*
X286054Y-4021632D01*
X285292Y-4016806D01*
X284022Y-4012133D01*
X282295Y-4007713D01*
X280111Y-4003548D01*
X277469Y-3999636D01*
X274421Y-3995978D01*
X270916Y-3992626D01*
X267004Y-3989628D01*
X262737Y-3986987D01*
X258064Y-3984650D01*
X253034Y-3982720D01*
X247700Y-3981196D01*
X241960Y-3980078D01*
X235966Y-3979418D01*
G37*
G36*
X267411Y-4102506D02*
G01*
X265785Y-4120591D01*
X252069Y-4121048D01*
X215900Y-4121150D01*
X187147Y-4120794D01*
X184708Y-4103725D01*
X177800Y-4103725D01*
X177800Y-4154932D01*
X187147Y-4139692D01*
X224536Y-4139285D01*
X254406Y-4139285D01*
X284073Y-4139692D01*
X286105Y-4136644D01*
X274116Y-4102506D01*
G37*
G36*
X325526Y-4115511D02*
G01*
X320040Y-4116628D01*
X315620Y-4119676D01*
X312775Y-4124248D01*
X311708Y-4129938D01*
X312775Y-4135424D01*
X315620Y-4139946D01*
X320040Y-4143044D01*
X325526Y-4144162D01*
X331063Y-4143044D01*
X335381Y-4139946D01*
X338175Y-4135424D01*
X339140Y-4129938D01*
X338175Y-4124248D01*
X335381Y-4119676D01*
X331063Y-4116628D01*
G37*
G36*
X267208Y-4170172D02*
G01*
X265379Y-4187850D01*
X252120Y-4188307D01*
X215900Y-4188409D01*
X187147Y-4188053D01*
X184708Y-4171594D01*
X177800Y-4171594D01*
X177800Y-4222800D01*
X184708Y-4222800D01*
X187147Y-4207357D01*
X224536Y-4206951D01*
X257454Y-4206951D01*
X264210Y-4215282D01*
X268833Y-4223105D01*
X271475Y-4230624D01*
X272288Y-4238040D01*
X271932Y-4242562D01*
X270916Y-4246422D01*
X269036Y-4249623D01*
X266293Y-4252163D01*
X262636Y-4254093D01*
X257962Y-4255465D01*
X252221Y-4256278D01*
X245262Y-4256532D01*
X187147Y-4256125D01*
X184708Y-4239666D01*
X177800Y-4239666D01*
X177800Y-4290872D01*
X187147Y-4275226D01*
X224536Y-4274820D01*
X245871Y-4274820D01*
X255828Y-4274362D01*
X264261Y-4273042D01*
X271272Y-4270806D01*
X276809Y-4267708D01*
X281076Y-4263694D01*
X284022Y-4258767D01*
X285750Y-4253026D01*
X286308Y-4246372D01*
X285953Y-4241139D01*
X284886Y-4235907D01*
X283159Y-4230624D01*
X280771Y-4225442D01*
X277825Y-4220362D01*
X274320Y-4215434D01*
X270306Y-4210761D01*
X265785Y-4206341D01*
X284073Y-4204512D01*
X286105Y-4201464D01*
X273913Y-4170172D01*
G37*
G36*
X189788Y-4315866D02*
G01*
X184150Y-4317034D01*
X179425Y-4320235D01*
X176174Y-4325061D01*
X174955Y-4330903D01*
X176174Y-4336897D01*
X179425Y-4341723D01*
X184150Y-4344974D01*
X189788Y-4346143D01*
X195783Y-4344974D01*
X200710Y-4341723D01*
X204012Y-4336897D01*
X205232Y-4330903D01*
X204012Y-4325061D01*
X200710Y-4320235D01*
X195783Y-4317034D01*
G37*
G36*
X230225Y-4367479D02*
G01*
X224028Y-4367733D01*
X218084Y-4368393D01*
X212547Y-4369511D01*
X207264Y-4371086D01*
X202387Y-4373067D01*
X197815Y-4375454D01*
X193649Y-4378198D01*
X189890Y-4381296D01*
X186486Y-4384751D01*
X183489Y-4388561D01*
X180949Y-4392726D01*
X178816Y-4397146D01*
X177139Y-4401870D01*
X175920Y-4406900D01*
X175209Y-4412132D01*
X174955Y-4417669D01*
X175412Y-4425137D01*
X176784Y-4431944D01*
X179019Y-4438091D01*
X182067Y-4443628D01*
X185978Y-4448454D01*
X190652Y-4452620D01*
X196037Y-4456125D01*
X202184Y-4458919D01*
X204216Y-4454448D01*
X200456Y-4451604D01*
X197104Y-4448403D01*
X194259Y-4444847D01*
X191820Y-4441037D01*
X189890Y-4436922D01*
X188518Y-4432604D01*
X187655Y-4428083D01*
X187350Y-4423359D01*
X187706Y-4418177D01*
X188671Y-4413250D01*
X190347Y-4408627D01*
X192633Y-4404360D01*
X195529Y-4400448D01*
X199085Y-4396943D01*
X203200Y-4393946D01*
X207873Y-4391355D01*
X213156Y-4389323D01*
X218998Y-4387799D01*
X225348Y-4386884D01*
X232257Y-4386580D01*
X239217Y-4386884D01*
X245668Y-4387697D01*
X251561Y-4389069D01*
X256895Y-4390898D01*
X261670Y-4393234D01*
X265836Y-4396028D01*
X269443Y-4399229D01*
X272389Y-4402836D01*
X274726Y-4406798D01*
X276402Y-4411116D01*
X277418Y-4415790D01*
X277774Y-4420717D01*
X277672Y-4423460D01*
X276656Y-4429506D01*
X275742Y-4432706D01*
X260096Y-4436973D01*
X255828Y-4438345D01*
X252526Y-4440682D01*
X250444Y-4444085D01*
X249732Y-4448759D01*
X250240Y-4452366D01*
X251764Y-4455160D01*
X254254Y-4457192D01*
X257860Y-4458512D01*
X263804Y-4456785D01*
X269240Y-4453890D01*
X274116Y-4450029D01*
X278282Y-4445254D01*
X281635Y-4439716D01*
X284175Y-4433468D01*
X285750Y-4426712D01*
X286308Y-4419498D01*
X286054Y-4414469D01*
X285343Y-4409490D01*
X284124Y-4404664D01*
X282498Y-4399991D01*
X280365Y-4395470D01*
X277825Y-4391152D01*
X274828Y-4387138D01*
X271424Y-4383328D01*
X267614Y-4379925D01*
X263398Y-4376826D01*
X258825Y-4374083D01*
X253796Y-4371797D01*
X248462Y-4369968D01*
X242722Y-4368596D01*
X236626Y-4367784D01*
G37*
G36*
X230225Y-4476800D02*
G01*
X223570Y-4477105D01*
X217373Y-4477918D01*
X211531Y-4479239D01*
X206146Y-4481068D01*
X201218Y-4483354D01*
X196646Y-4486046D01*
X192532Y-4489094D01*
X188874Y-4492498D01*
X185623Y-4496155D01*
X182778Y-4500168D01*
X180390Y-4504334D01*
X178460Y-4508754D01*
X176936Y-4513376D01*
X175818Y-4518101D01*
X175158Y-4522927D01*
X174955Y-4527804D01*
X183489Y-4527804D01*
X183845Y-4523079D01*
X184810Y-4518761D01*
X186486Y-4514799D01*
X188772Y-4511192D01*
X191770Y-4507941D01*
X195326Y-4505147D01*
X199593Y-4502759D01*
X204470Y-4500727D01*
X209956Y-4499152D01*
X216103Y-4498035D01*
X222859Y-4497374D01*
X230225Y-4497120D01*
X237642Y-4497374D01*
X244449Y-4498035D01*
X250698Y-4499152D01*
X256286Y-4500727D01*
X261264Y-4502759D01*
X265582Y-4505147D01*
X269290Y-4507941D01*
X272288Y-4511192D01*
X274675Y-4514799D01*
X276402Y-4518761D01*
X277418Y-4523079D01*
X277774Y-4527804D01*
X277418Y-4532477D01*
X276402Y-4536795D01*
X274675Y-4540758D01*
X272288Y-4544314D01*
X269290Y-4547565D01*
X265582Y-4550359D01*
X261264Y-4552797D01*
X256286Y-4554829D01*
X250698Y-4556404D01*
X244449Y-4557572D01*
X237642Y-4558233D01*
X230225Y-4558487D01*
X222859Y-4558233D01*
X216103Y-4557572D01*
X209956Y-4556404D01*
X204470Y-4554829D01*
X199593Y-4552797D01*
X195376Y-4550410D01*
X191770Y-4547565D01*
X188772Y-4544314D01*
X186486Y-4540758D01*
X184810Y-4536795D01*
X183845Y-4532477D01*
X183489Y-4527804D01*
X174955Y-4527804D01*
X175158Y-4532680D01*
X175818Y-4537456D01*
X176885Y-4542180D01*
X178409Y-4546803D01*
X180390Y-4551222D01*
X182727Y-4555439D01*
X185572Y-4559452D01*
X188772Y-4563160D01*
X192481Y-4566564D01*
X196596Y-4569663D01*
X201117Y-4572355D01*
X206095Y-4574641D01*
X211480Y-4576521D01*
X217271Y-4577892D01*
X223520Y-4578705D01*
X230225Y-4579010D01*
X236931Y-4578705D01*
X243230Y-4577892D01*
X249123Y-4576521D01*
X254609Y-4574641D01*
X259638Y-4572355D01*
X264210Y-4569612D01*
X268376Y-4566513D01*
X272135Y-4563110D01*
X275437Y-4559350D01*
X278333Y-4555337D01*
X280771Y-4551121D01*
X282752Y-4546701D01*
X284327Y-4542129D01*
X285394Y-4537405D01*
X286105Y-4532630D01*
X286308Y-4527804D01*
X286105Y-4522927D01*
X285394Y-4518152D01*
X284276Y-4513427D01*
X282702Y-4508855D01*
X280720Y-4504436D01*
X278282Y-4500219D01*
X275386Y-4496257D01*
X272034Y-4492548D01*
X268325Y-4489145D01*
X264109Y-4486097D01*
X259537Y-4483404D01*
X254508Y-4481118D01*
X249072Y-4479290D01*
X243179Y-4477918D01*
X236931Y-4477105D01*
G37*
G36*
X267208Y-4596485D02*
G01*
X265379Y-4614164D01*
X252120Y-4614722D01*
X206197Y-4614672D01*
X187147Y-4614367D01*
X184708Y-4597908D01*
X177800Y-4597908D01*
X177800Y-4649114D01*
X184708Y-4649114D01*
X187147Y-4633671D01*
X224536Y-4633264D01*
X257454Y-4633264D01*
X264109Y-4641342D01*
X268681Y-4648860D01*
X271272Y-4656124D01*
X272084Y-4663541D01*
X271780Y-4667961D01*
X270713Y-4671720D01*
X268884Y-4674870D01*
X266192Y-4677410D01*
X262534Y-4679340D01*
X257860Y-4680762D01*
X252069Y-4681575D01*
X245059Y-4681829D01*
X187147Y-4681423D01*
X184708Y-4664557D01*
X177800Y-4664557D01*
X177800Y-4715764D01*
X184708Y-4715764D01*
X187147Y-4700524D01*
X205994Y-4700066D01*
X248970Y-4699863D01*
X257251Y-4699304D01*
X264109Y-4707737D01*
X268732Y-4715459D01*
X271272Y-4722723D01*
X272084Y-4729784D01*
X271780Y-4734255D01*
X270865Y-4738116D01*
X269138Y-4741316D01*
X266547Y-4743907D01*
X262991Y-4745939D01*
X258368Y-4747361D01*
X252577Y-4748225D01*
X245465Y-4748479D01*
X187147Y-4748072D01*
X184708Y-4731613D01*
X177800Y-4731613D01*
X177800Y-4782616D01*
X187147Y-4766970D01*
X224536Y-4766564D01*
X247700Y-4766564D01*
X257251Y-4766106D01*
X265328Y-4764684D01*
X271983Y-4762347D01*
X277266Y-4759147D01*
X281330Y-4755083D01*
X284124Y-4750206D01*
X285750Y-4744516D01*
X286308Y-4738116D01*
X286004Y-4732782D01*
X285038Y-4727498D01*
X283413Y-4722266D01*
X281178Y-4717084D01*
X278231Y-4712055D01*
X274624Y-4707128D01*
X270357Y-4702403D01*
X265379Y-4697882D01*
X270459Y-4696206D01*
X274828Y-4694072D01*
X278434Y-4691481D01*
X281330Y-4688433D01*
X283565Y-4684877D01*
X285089Y-4680864D01*
X286004Y-4676394D01*
X286308Y-4671466D01*
X285953Y-4666335D01*
X284886Y-4661204D01*
X283159Y-4656074D01*
X280822Y-4651095D01*
X277876Y-4646168D01*
X274370Y-4641443D01*
X270408Y-4636922D01*
X265988Y-4632655D01*
X284073Y-4630826D01*
X286105Y-4627778D01*
X273913Y-4596485D01*
G37*
G36*
X142240Y-4790135D02*
G01*
X142240Y-4802327D01*
X335686Y-4861661D01*
X335686Y-4849876D01*
G37*
G36*
X267411Y-4869180D02*
G01*
X265785Y-4887264D01*
X252069Y-4887722D01*
X215900Y-4887823D01*
X187147Y-4887468D01*
X184708Y-4870399D01*
X177800Y-4870399D01*
X177800Y-4921605D01*
X187147Y-4906365D01*
X224536Y-4905959D01*
X254406Y-4905959D01*
X284073Y-4906365D01*
X286105Y-4903317D01*
X274116Y-4869180D01*
G37*
G36*
X325526Y-4882184D02*
G01*
X320040Y-4883302D01*
X315620Y-4886350D01*
X312775Y-4890922D01*
X311708Y-4896612D01*
X312775Y-4902098D01*
X315620Y-4906619D01*
X320040Y-4909718D01*
X325526Y-4910836D01*
X331063Y-4909718D01*
X335381Y-4906619D01*
X338175Y-4902098D01*
X339140Y-4896612D01*
X338175Y-4890922D01*
X335381Y-4886350D01*
X331063Y-4883302D01*
G37*
G36*
X267208Y-4936845D02*
G01*
X265379Y-4954524D01*
X252120Y-4954981D01*
X215900Y-4955082D01*
X187147Y-4954727D01*
X184708Y-4938268D01*
X177800Y-4938268D01*
X177800Y-4989474D01*
X184708Y-4989474D01*
X187147Y-4974031D01*
X224536Y-4973624D01*
X257454Y-4973624D01*
X264210Y-4981956D01*
X268833Y-4989779D01*
X271475Y-4997297D01*
X272288Y-5004714D01*
X271932Y-5009235D01*
X270916Y-5013096D01*
X269036Y-5016296D01*
X266293Y-5018836D01*
X262636Y-5020767D01*
X257962Y-5022138D01*
X252221Y-5022951D01*
X245262Y-5023205D01*
X187147Y-5022799D01*
X184708Y-5006340D01*
X177800Y-5006340D01*
X177800Y-5057546D01*
X187147Y-5041900D01*
X224536Y-5041493D01*
X245871Y-5041493D01*
X255828Y-5041036D01*
X264261Y-5039715D01*
X271272Y-5037480D01*
X276809Y-5034381D01*
X281076Y-5030368D01*
X284022Y-5025440D01*
X285750Y-5019700D01*
X286308Y-5013045D01*
X285953Y-5007813D01*
X284886Y-5002580D01*
X283159Y-4997297D01*
X280771Y-4992116D01*
X277825Y-4987036D01*
X274320Y-4982108D01*
X270306Y-4977434D01*
X265785Y-4973015D01*
X284073Y-4971186D01*
X286105Y-4968138D01*
X273913Y-4936845D01*
G37*
G36*
X142240Y-5065064D02*
G01*
X142240Y-5077256D01*
X335686Y-5136591D01*
X335686Y-5124805D01*
G37*
G36*
X229616Y-5140655D02*
G01*
X221691Y-5141010D01*
X214274Y-5142128D01*
X207365Y-5143957D01*
X201015Y-5146446D01*
X195224Y-5149596D01*
X190093Y-5153304D01*
X185623Y-5157571D01*
X181914Y-5162397D01*
X178917Y-5167731D01*
X176733Y-5173522D01*
X175412Y-5179771D01*
X174955Y-5186375D01*
X175548Y-5191658D01*
X186334Y-5191658D01*
X186588Y-5187238D01*
X187452Y-5183022D01*
X188874Y-5179110D01*
X190855Y-5175453D01*
X193446Y-5172100D01*
X196697Y-5169103D01*
X200558Y-5166512D01*
X205130Y-5164328D01*
X210312Y-5162550D01*
X216255Y-5161229D01*
X222859Y-5160416D01*
X230225Y-5160162D01*
X237794Y-5160467D01*
X244652Y-5161330D01*
X250698Y-5162702D01*
X256032Y-5164582D01*
X260705Y-5166918D01*
X264617Y-5169611D01*
X267919Y-5172659D01*
X270560Y-5176062D01*
X272592Y-5179720D01*
X274015Y-5183581D01*
X274878Y-5187645D01*
X275132Y-5191861D01*
X274523Y-5197551D01*
X272592Y-5203545D01*
X268935Y-5209997D01*
X263347Y-5217058D01*
X198932Y-5217058D01*
X192938Y-5210860D01*
X189026Y-5204815D01*
X186944Y-5198567D01*
X186334Y-5191658D01*
X175548Y-5191658D01*
X176022Y-5195874D01*
X179120Y-5204155D01*
X184150Y-5211368D01*
X190804Y-5217668D01*
X175564Y-5218887D01*
X177800Y-5253431D01*
X186740Y-5235346D01*
X309067Y-5235346D01*
X340766Y-5235956D01*
X342392Y-5233111D01*
X333044Y-5198770D01*
X326339Y-5198770D01*
X324713Y-5217464D01*
X271881Y-5217464D01*
X278739Y-5210403D01*
X283210Y-5203240D01*
X285597Y-5195824D01*
X286308Y-5188204D01*
X286054Y-5183124D01*
X285292Y-5178298D01*
X284022Y-5173624D01*
X282295Y-5169204D01*
X280111Y-5165039D01*
X277469Y-5161127D01*
X274421Y-5157470D01*
X270916Y-5154117D01*
X267004Y-5151120D01*
X262737Y-5148478D01*
X258064Y-5146141D01*
X253034Y-5144211D01*
X247700Y-5142687D01*
X241960Y-5141569D01*
X235966Y-5140909D01*
G37*
G36*
X202184Y-5265623D02*
G01*
X195884Y-5266232D01*
X190398Y-5267960D01*
X185724Y-5270652D01*
X181864Y-5274259D01*
X178866Y-5278628D01*
X176682Y-5283606D01*
X175412Y-5289143D01*
X174955Y-5295087D01*
X175209Y-5299862D01*
X175751Y-5302605D01*
X187960Y-5302605D01*
X188976Y-5295392D01*
X192125Y-5289702D01*
X197459Y-5285892D01*
X205232Y-5284520D01*
X208279Y-5284724D01*
X211429Y-5285384D01*
X214528Y-5286654D01*
X217678Y-5288686D01*
X220725Y-5291632D01*
X223774Y-5295646D01*
X226720Y-5300878D01*
X229616Y-5307482D01*
X232816Y-5316626D01*
X236321Y-5328005D01*
X200964Y-5328005D01*
X194818Y-5319928D01*
X190804Y-5313629D01*
X188620Y-5308193D01*
X187960Y-5302605D01*
X175751Y-5302605D01*
X176072Y-5304231D01*
X177444Y-5308295D01*
X179425Y-5312206D01*
X181914Y-5316067D01*
X184962Y-5319928D01*
X192836Y-5328412D01*
X185572Y-5330748D01*
X180035Y-5334965D01*
X176580Y-5340858D01*
X175361Y-5348325D01*
X175971Y-5353862D01*
X177952Y-5358841D01*
X181457Y-5363362D01*
X186740Y-5367426D01*
X191008Y-5363362D01*
X188671Y-5361279D01*
X186994Y-5359196D01*
X185877Y-5356961D01*
X185521Y-5354421D01*
X186283Y-5351018D01*
X188671Y-5348427D01*
X193040Y-5346852D01*
X199745Y-5346293D01*
X248107Y-5346293D01*
X254660Y-5346039D01*
X260553Y-5345379D01*
X265734Y-5344160D01*
X270306Y-5342534D01*
X274218Y-5340400D01*
X277571Y-5337759D01*
X280314Y-5334660D01*
X282549Y-5331104D01*
X284226Y-5326989D01*
X285394Y-5322417D01*
X286105Y-5317337D01*
X286308Y-5311749D01*
X285851Y-5303469D01*
X284429Y-5295849D01*
X282143Y-5289042D01*
X278993Y-5283047D01*
X275082Y-5277967D01*
X270357Y-5273802D01*
X264972Y-5270703D01*
X258876Y-5268671D01*
X255219Y-5269636D01*
X252577Y-5271566D01*
X250901Y-5274564D01*
X250342Y-5278628D01*
X251002Y-5282539D01*
X252933Y-5285638D01*
X256184Y-5288076D01*
X260705Y-5289804D01*
X275945Y-5294071D01*
X277317Y-5300675D01*
X277774Y-5306669D01*
X277469Y-5311902D01*
X276555Y-5316321D01*
X274828Y-5320030D01*
X272186Y-5322976D01*
X268528Y-5325211D01*
X263702Y-5326786D01*
X257606Y-5327700D01*
X250139Y-5328005D01*
X243230Y-5328005D01*
X239826Y-5314543D01*
X235915Y-5302402D01*
X232054Y-5292496D01*
X228193Y-5284419D01*
X224282Y-5278018D01*
X220268Y-5273090D01*
X216103Y-5269585D01*
X211734Y-5267299D01*
X207111Y-5266029D01*
G37*
G36*
X267208Y-5375554D02*
G01*
X265379Y-5393232D01*
X252120Y-5393690D01*
X215900Y-5393791D01*
X187147Y-5393436D01*
X184708Y-5377180D01*
X177800Y-5377180D01*
X177800Y-5431231D01*
X184708Y-5431231D01*
X187350Y-5412740D01*
X224536Y-5412333D01*
X242011Y-5412333D01*
X251409Y-5415838D01*
X259334Y-5420156D01*
X265938Y-5425338D01*
X271475Y-5431637D01*
X266446Y-5437479D01*
X264464Y-5440781D01*
X263194Y-5444286D01*
X262737Y-5448096D01*
X263804Y-5453837D01*
X266852Y-5457748D01*
X271627Y-5459984D01*
X277977Y-5460695D01*
X281533Y-5458053D01*
X284124Y-5454243D01*
X285750Y-5449671D01*
X286308Y-5444642D01*
X285800Y-5439968D01*
X284327Y-5435346D01*
X281940Y-5430824D01*
X278638Y-5426506D01*
X274472Y-5422341D01*
X269494Y-5418531D01*
X263753Y-5415127D01*
X257251Y-5412130D01*
X284073Y-5409895D01*
X286105Y-5406847D01*
X273913Y-5375554D01*
G37*
G36*
X267411Y-5468823D02*
G01*
X265785Y-5486908D01*
X252069Y-5487365D01*
X215900Y-5487466D01*
X187147Y-5487111D01*
X184708Y-5470042D01*
X177800Y-5470042D01*
X177800Y-5521248D01*
X187147Y-5506008D01*
X224536Y-5505602D01*
X254406Y-5505602D01*
X284073Y-5506008D01*
X286105Y-5502960D01*
X274116Y-5468823D01*
G37*
G36*
X325526Y-5481828D02*
G01*
X320040Y-5482945D01*
X315620Y-5485993D01*
X312775Y-5490565D01*
X311708Y-5496255D01*
X312775Y-5501741D01*
X315620Y-5506262D01*
X320040Y-5509361D01*
X325526Y-5510479D01*
X331063Y-5509361D01*
X335381Y-5506262D01*
X338175Y-5501741D01*
X339140Y-5496255D01*
X338175Y-5490565D01*
X335381Y-5485993D01*
X331063Y-5482945D01*
G37*
G36*
X275132Y-5534660D02*
G01*
X271881Y-5550712D01*
X215188Y-5550103D01*
X204927Y-5550560D01*
X196392Y-5552033D01*
X189433Y-5554421D01*
X183946Y-5557774D01*
X179882Y-5561990D01*
X177088Y-5566968D01*
X175463Y-5572709D01*
X174955Y-5579160D01*
X175310Y-5584444D01*
X176276Y-5589676D01*
X177952Y-5594858D01*
X180289Y-5599988D01*
X183235Y-5604967D01*
X186893Y-5609742D01*
X191160Y-5614365D01*
X196088Y-5618784D01*
X175971Y-5620816D01*
X177800Y-5651703D01*
X186944Y-5636463D01*
X251155Y-5636463D01*
X282651Y-5637072D01*
X284886Y-5635040D01*
X281432Y-5602935D01*
X274726Y-5602935D01*
X271678Y-5618784D01*
X204012Y-5618175D01*
X197612Y-5610707D01*
X193040Y-5603036D01*
X190296Y-5595112D01*
X189382Y-5587085D01*
X189738Y-5582767D01*
X190754Y-5579059D01*
X192633Y-5575858D01*
X195326Y-5573268D01*
X198983Y-5571236D01*
X203606Y-5569762D01*
X209346Y-5568899D01*
X216204Y-5568594D01*
X251155Y-5568594D01*
X282651Y-5569610D01*
X284886Y-5567375D01*
X281635Y-5534660D01*
G37*
G36*
X207670Y-5670600D02*
G01*
X183286Y-5671007D01*
X179679Y-5679084D01*
X177088Y-5687060D01*
X175463Y-5695442D01*
X174955Y-5704535D01*
X175260Y-5711291D01*
X176123Y-5717540D01*
X177495Y-5723178D01*
X179374Y-5728258D01*
X181711Y-5732729D01*
X184404Y-5736691D01*
X187452Y-5739993D01*
X190855Y-5742736D01*
X194513Y-5744870D01*
X198374Y-5746394D01*
X202438Y-5747308D01*
X206654Y-5747613D01*
X211734Y-5747207D01*
X216509Y-5745937D01*
X220929Y-5743752D01*
X225094Y-5740603D01*
X228904Y-5736437D01*
X232460Y-5731154D01*
X235762Y-5724753D01*
X241604Y-5709412D01*
X245617Y-5699810D01*
X249783Y-5693410D01*
X254812Y-5689803D01*
X261315Y-5688685D01*
X267970Y-5690057D01*
X273100Y-5694222D01*
X276402Y-5701030D01*
X277571Y-5710428D01*
X277317Y-5714492D01*
X276555Y-5718556D01*
X275234Y-5722518D01*
X273507Y-5726480D01*
X254609Y-5730748D01*
X254609Y-5740704D01*
X277164Y-5741517D01*
X281076Y-5734253D01*
X283921Y-5726836D01*
X285699Y-5718962D01*
X286308Y-5710428D01*
X285648Y-5701588D01*
X283768Y-5693816D01*
X280822Y-5687161D01*
X276910Y-5681624D01*
X272288Y-5677306D01*
X267004Y-5674156D01*
X261264Y-5672277D01*
X255219Y-5671616D01*
X249783Y-5672124D01*
X244957Y-5673547D01*
X240588Y-5675884D01*
X236728Y-5679084D01*
X233324Y-5682996D01*
X230276Y-5687669D01*
X227584Y-5692952D01*
X225145Y-5698845D01*
X221691Y-5709208D01*
X217576Y-5718606D01*
X213106Y-5725058D01*
X207873Y-5728766D01*
X201371Y-5729935D01*
X197561Y-5729528D01*
X194106Y-5728411D01*
X191058Y-5726430D01*
X188468Y-5723686D01*
X186385Y-5720130D01*
X184810Y-5715711D01*
X183845Y-5710428D01*
X183489Y-5704332D01*
X183743Y-5699201D01*
X184404Y-5694527D01*
X185572Y-5690108D01*
X187147Y-5686044D01*
X207670Y-5681167D01*
G37*
G36*
X227177Y-5765088D02*
G01*
X227177Y-5816904D01*
X240182Y-5816904D01*
G37*
G36*
X267208Y-5833364D02*
G01*
X265379Y-5851042D01*
X252120Y-5851499D01*
X215900Y-5851601D01*
X187147Y-5851245D01*
X184708Y-5834786D01*
X177800Y-5834786D01*
X177800Y-5885992D01*
X184708Y-5885992D01*
X187147Y-5870549D01*
X224536Y-5870143D01*
X257454Y-5870143D01*
X264210Y-5878474D01*
X268833Y-5886297D01*
X271475Y-5893816D01*
X272288Y-5901232D01*
X271932Y-5905754D01*
X270916Y-5909614D01*
X269036Y-5912815D01*
X266293Y-5915355D01*
X262636Y-5917285D01*
X257962Y-5918657D01*
X252221Y-5919470D01*
X245262Y-5919724D01*
X187147Y-5919317D01*
X184708Y-5902858D01*
X177800Y-5902858D01*
X177800Y-5954064D01*
X187147Y-5938418D01*
X224536Y-5938012D01*
X245871Y-5938012D01*
X255828Y-5937554D01*
X264261Y-5936234D01*
X271272Y-5933998D01*
X276809Y-5930900D01*
X281076Y-5926886D01*
X284022Y-5921959D01*
X285750Y-5916218D01*
X286308Y-5909564D01*
X285953Y-5904331D01*
X284886Y-5899099D01*
X283159Y-5893816D01*
X280771Y-5888634D01*
X277825Y-5883554D01*
X274320Y-5878626D01*
X270306Y-5873953D01*
X265785Y-5869533D01*
X284073Y-5867704D01*
X286105Y-5864656D01*
X273913Y-5833364D01*
G37*
G36*
X267411Y-5967476D02*
G01*
X265785Y-5985560D01*
X252069Y-5986018D01*
X215900Y-5986119D01*
X187147Y-5985764D01*
X184708Y-5968695D01*
X177800Y-5968695D01*
X177800Y-6019901D01*
X187147Y-6004661D01*
X224536Y-6004255D01*
X254406Y-6004255D01*
X284073Y-6004661D01*
X286105Y-6001613D01*
X274116Y-5967476D01*
G37*
G36*
X325526Y-5980480D02*
G01*
X320040Y-5981598D01*
X315620Y-5984646D01*
X312775Y-5989218D01*
X311708Y-5994908D01*
X312775Y-6000394D01*
X315620Y-6004915D01*
X320040Y-6008014D01*
X325526Y-6009132D01*
X331063Y-6008014D01*
X335381Y-6004915D01*
X338175Y-6000394D01*
X339140Y-5994908D01*
X338175Y-5989218D01*
X335381Y-5984646D01*
X331063Y-5981598D01*
G37*
G36*
X207670Y-6038596D02*
G01*
X183286Y-6039002D01*
X179679Y-6047079D01*
X177088Y-6055106D01*
X175463Y-6063437D01*
X174955Y-6072530D01*
X175260Y-6079286D01*
X176123Y-6085535D01*
X177495Y-6091174D01*
X179374Y-6096254D01*
X181711Y-6100724D01*
X184404Y-6104636D01*
X187452Y-6107988D01*
X190855Y-6110732D01*
X194513Y-6112865D01*
X198374Y-6114389D01*
X202438Y-6115304D01*
X206654Y-6115608D01*
X211734Y-6115202D01*
X216509Y-6113932D01*
X220929Y-6111748D01*
X225094Y-6108598D01*
X228904Y-6104432D01*
X232460Y-6099149D01*
X235762Y-6092748D01*
X241604Y-6077407D01*
X245617Y-6067806D01*
X249783Y-6061405D01*
X254812Y-6057798D01*
X261315Y-6056680D01*
X267970Y-6058103D01*
X273100Y-6062218D01*
X276402Y-6069025D01*
X277571Y-6078423D01*
X277317Y-6082487D01*
X276555Y-6086500D01*
X275234Y-6090513D01*
X273507Y-6094476D01*
X254609Y-6098743D01*
X254609Y-6108700D01*
X277164Y-6109512D01*
X281076Y-6102248D01*
X283921Y-6094780D01*
X285699Y-6086957D01*
X286308Y-6078423D01*
X285648Y-6069584D01*
X283768Y-6061811D01*
X280822Y-6055156D01*
X276910Y-6049619D01*
X272288Y-6045301D01*
X267004Y-6042152D01*
X261264Y-6040272D01*
X255219Y-6039612D01*
X249783Y-6040120D01*
X244957Y-6041542D01*
X240588Y-6043879D01*
X236728Y-6047079D01*
X233324Y-6050991D01*
X230276Y-6055664D01*
X227584Y-6060948D01*
X225145Y-6066840D01*
X221691Y-6077204D01*
X217576Y-6086602D01*
X213106Y-6093053D01*
X207873Y-6096762D01*
X201371Y-6097930D01*
X197561Y-6097524D01*
X194106Y-6096406D01*
X191058Y-6094425D01*
X188468Y-6091682D01*
X186385Y-6088126D01*
X184810Y-6083706D01*
X183845Y-6078423D01*
X183489Y-6072327D01*
X183743Y-6067196D01*
X184404Y-6062472D01*
X185572Y-6058103D01*
X187147Y-6054039D01*
X207670Y-6049162D01*
G37*
G36*
X273507Y-6126378D02*
G01*
X273507Y-6145276D01*
X200964Y-6145072D01*
X194716Y-6145530D01*
X189331Y-6146800D01*
X184861Y-6148882D01*
X181254Y-6151727D01*
X178460Y-6155334D01*
X176530Y-6159652D01*
X175361Y-6164630D01*
X174955Y-6170269D01*
X175717Y-6178296D01*
X178003Y-6185306D01*
X181559Y-6191250D01*
X186334Y-6196076D01*
X191414Y-6191605D01*
X188620Y-6187490D01*
X186690Y-6183782D01*
X185521Y-6180124D01*
X185115Y-6176365D01*
X186080Y-6171031D01*
X189026Y-6167018D01*
X194208Y-6164427D01*
X201777Y-6163564D01*
X273507Y-6163564D01*
X273507Y-6193637D01*
X283260Y-6193637D01*
X283260Y-6163767D01*
X313944Y-6164986D01*
X313944Y-6152184D01*
X283870Y-6146292D01*
X281432Y-6126378D01*
G37*
G36*
X230225Y-6207048D02*
G01*
X223570Y-6207353D01*
X217373Y-6208166D01*
X211531Y-6209487D01*
X206146Y-6211316D01*
X201218Y-6213602D01*
X196646Y-6216294D01*
X192532Y-6219342D01*
X188874Y-6222746D01*
X185623Y-6226403D01*
X182778Y-6230416D01*
X180390Y-6234582D01*
X178460Y-6239002D01*
X176936Y-6243624D01*
X175818Y-6248349D01*
X175158Y-6253175D01*
X174955Y-6258052D01*
X183489Y-6258052D01*
X183845Y-6253327D01*
X184810Y-6249009D01*
X186486Y-6245047D01*
X188772Y-6241440D01*
X191770Y-6238189D01*
X195326Y-6235395D01*
X199593Y-6233007D01*
X204470Y-6230975D01*
X209956Y-6229400D01*
X216103Y-6228283D01*
X222859Y-6227622D01*
X230225Y-6227368D01*
X237642Y-6227622D01*
X244449Y-6228283D01*
X250698Y-6229400D01*
X256286Y-6230975D01*
X261264Y-6233007D01*
X265582Y-6235395D01*
X269290Y-6238189D01*
X272288Y-6241440D01*
X274675Y-6245047D01*
X276402Y-6249009D01*
X277418Y-6253327D01*
X277774Y-6258052D01*
X277418Y-6262725D01*
X276402Y-6267043D01*
X274675Y-6271006D01*
X272288Y-6274562D01*
X269290Y-6277813D01*
X265582Y-6280607D01*
X261264Y-6283045D01*
X256286Y-6285077D01*
X250698Y-6286652D01*
X244449Y-6287820D01*
X237642Y-6288481D01*
X230225Y-6288735D01*
X222859Y-6288481D01*
X216103Y-6287820D01*
X209956Y-6286652D01*
X204470Y-6285077D01*
X199593Y-6283045D01*
X195376Y-6280658D01*
X191770Y-6277813D01*
X188772Y-6274562D01*
X186486Y-6271006D01*
X184810Y-6267043D01*
X183845Y-6262725D01*
X183489Y-6258052D01*
X174955Y-6258052D01*
X175158Y-6262928D01*
X175818Y-6267704D01*
X176885Y-6272428D01*
X178409Y-6277051D01*
X180390Y-6281470D01*
X182727Y-6285687D01*
X185572Y-6289700D01*
X188772Y-6293408D01*
X192481Y-6296812D01*
X196596Y-6299911D01*
X201117Y-6302603D01*
X206095Y-6304940D01*
X211480Y-6306769D01*
X217271Y-6308140D01*
X223520Y-6308953D01*
X230225Y-6309258D01*
X236931Y-6308953D01*
X243230Y-6308140D01*
X249123Y-6306769D01*
X254609Y-6304889D01*
X259638Y-6302603D01*
X264210Y-6299860D01*
X268376Y-6296761D01*
X272135Y-6293358D01*
X275437Y-6289598D01*
X278333Y-6285585D01*
X280771Y-6281369D01*
X282752Y-6276949D01*
X284327Y-6272377D01*
X285394Y-6267653D01*
X286105Y-6262878D01*
X286308Y-6258052D01*
X286105Y-6253175D01*
X285394Y-6248400D01*
X284276Y-6243675D01*
X282702Y-6239103D01*
X280720Y-6234684D01*
X278282Y-6230467D01*
X275386Y-6226505D01*
X272034Y-6222796D01*
X268325Y-6219393D01*
X264109Y-6216345D01*
X259537Y-6213652D01*
X254508Y-6211366D01*
X249072Y-6209538D01*
X243179Y-6208166D01*
X236931Y-6207353D01*
G37*
G36*
X267208Y-6326733D02*
G01*
X265379Y-6344412D01*
X252120Y-6344869D01*
X215900Y-6344970D01*
X187147Y-6344615D01*
X184708Y-6328359D01*
X177800Y-6328359D01*
X177800Y-6382410D01*
X184708Y-6382410D01*
X187350Y-6363919D01*
X224536Y-6363512D01*
X242011Y-6363512D01*
X251409Y-6367018D01*
X259334Y-6371336D01*
X265938Y-6376517D01*
X271475Y-6382816D01*
X266446Y-6388658D01*
X264464Y-6391960D01*
X263194Y-6395466D01*
X262737Y-6399276D01*
X263804Y-6405016D01*
X266852Y-6408928D01*
X271627Y-6411163D01*
X277977Y-6411874D01*
X281533Y-6409232D01*
X284124Y-6405422D01*
X285750Y-6400850D01*
X286308Y-6395821D01*
X285800Y-6391148D01*
X284327Y-6386525D01*
X281940Y-6382004D01*
X278638Y-6377686D01*
X274472Y-6373520D01*
X269494Y-6369710D01*
X263753Y-6366306D01*
X257251Y-6363309D01*
X284073Y-6361074D01*
X286105Y-6358026D01*
X273913Y-6326733D01*
G37*
G36*
X227177Y-6415938D02*
G01*
X227177Y-6467754D01*
X240182Y-6467754D01*
G37*
G36*
X205841Y-6486448D02*
G01*
X198323Y-6488531D01*
X191922Y-6491732D01*
X186588Y-6495897D01*
X182321Y-6501028D01*
X179070Y-6506972D01*
X176733Y-6513677D01*
X175412Y-6521094D01*
X174955Y-6529120D01*
X175310Y-6536334D01*
X176377Y-6543090D01*
X178104Y-6549390D01*
X180492Y-6555231D01*
X183438Y-6560464D01*
X186944Y-6565138D01*
X190957Y-6569202D01*
X195427Y-6572605D01*
X200355Y-6575298D01*
X205638Y-6577279D01*
X211277Y-6578498D01*
X217220Y-6578904D01*
X222097Y-6578650D01*
X226720Y-6577939D01*
X231140Y-6576720D01*
X235254Y-6575044D01*
X239064Y-6572808D01*
X242620Y-6570116D01*
X245821Y-6566865D01*
X248716Y-6563106D01*
X251206Y-6558838D01*
X253339Y-6554012D01*
X255117Y-6548678D01*
X256438Y-6542735D01*
X259130Y-6549898D01*
X262483Y-6556248D01*
X266395Y-6561632D01*
X270865Y-6566103D01*
X275894Y-6569608D01*
X281330Y-6572148D01*
X287172Y-6573723D01*
X293420Y-6574231D01*
X298704Y-6573875D01*
X303682Y-6572910D01*
X308254Y-6571284D01*
X312521Y-6569049D01*
X316331Y-6566255D01*
X319735Y-6562852D01*
X322732Y-6558991D01*
X325170Y-6554520D01*
X327152Y-6549644D01*
X328625Y-6544259D01*
X329488Y-6538417D01*
X329793Y-6532168D01*
X329336Y-6524650D01*
X328015Y-6517589D01*
X325831Y-6511035D01*
X322681Y-6505194D01*
X318668Y-6500063D01*
X313740Y-6495846D01*
X307898Y-6492646D01*
X301142Y-6490512D01*
X297535Y-6492341D01*
X295148Y-6494678D01*
X293827Y-6497574D01*
X293420Y-6500876D01*
X294233Y-6505498D01*
X296722Y-6508953D01*
X300888Y-6511493D01*
X306832Y-6513474D01*
X319836Y-6517131D01*
X320852Y-6522872D01*
X321056Y-6527901D01*
X320598Y-6534099D01*
X319176Y-6539585D01*
X316890Y-6544309D01*
X313639Y-6548272D01*
X309575Y-6551422D01*
X304698Y-6553657D01*
X298958Y-6555079D01*
X292404Y-6555536D01*
X285343Y-6554978D01*
X279146Y-6553250D01*
X273812Y-6550507D01*
X269392Y-6546748D01*
X265887Y-6542074D01*
X263347Y-6536486D01*
X261823Y-6530136D01*
X261315Y-6523024D01*
X261315Y-6514287D01*
X251358Y-6514287D01*
X251358Y-6524853D01*
X250748Y-6532930D01*
X249021Y-6539941D01*
X246125Y-6545884D01*
X242265Y-6550710D01*
X237388Y-6554520D01*
X231648Y-6557213D01*
X225044Y-6558838D01*
X217627Y-6559397D01*
X210362Y-6558838D01*
X203809Y-6557162D01*
X197967Y-6554419D01*
X193040Y-6550659D01*
X188976Y-6545834D01*
X185978Y-6540093D01*
X184150Y-6533438D01*
X183489Y-6525869D01*
X183845Y-6519621D01*
X185115Y-6513068D01*
X198323Y-6509410D01*
X204876Y-6507378D01*
X209448Y-6504889D01*
X212090Y-6501688D01*
X212953Y-6497218D01*
X212547Y-6493916D01*
X211226Y-6490970D01*
X208991Y-6488480D01*
G37*
G36*
X296265Y-6598208D02*
G01*
X293370Y-6600190D01*
X291236Y-6602679D01*
X289814Y-6605625D01*
X289356Y-6608978D01*
X290068Y-6612890D01*
X292455Y-6616192D01*
X296824Y-6618935D01*
X303377Y-6621170D01*
X319633Y-6625640D01*
X320700Y-6632143D01*
X321056Y-6637629D01*
X320497Y-6643573D01*
X318770Y-6648907D01*
X316077Y-6653580D01*
X312369Y-6657492D01*
X307797Y-6660642D01*
X302361Y-6662928D01*
X296214Y-6664350D01*
X289356Y-6664858D01*
X284886Y-6664655D01*
X280466Y-6663994D01*
X275996Y-6662928D01*
X271475Y-6661403D01*
X266903Y-6659473D01*
X262178Y-6657035D01*
X257302Y-6654190D01*
X247040Y-6647129D01*
X235864Y-6638137D01*
X191617Y-6599224D01*
X177800Y-6599224D01*
X177800Y-6690664D01*
X195072Y-6690664D01*
X195072Y-6613448D01*
X222097Y-6639661D01*
X237896Y-6654546D01*
X250952Y-6666077D01*
X256692Y-6670649D01*
X262026Y-6674510D01*
X267055Y-6677659D01*
X271830Y-6680200D01*
X276453Y-6682079D01*
X281025Y-6683349D01*
X285648Y-6684111D01*
X290372Y-6684365D01*
X296011Y-6684111D01*
X301345Y-6683298D01*
X306324Y-6681927D01*
X310896Y-6679996D01*
X315061Y-6677456D01*
X318770Y-6674358D01*
X322021Y-6670700D01*
X324713Y-6666382D01*
X326898Y-6661454D01*
X328472Y-6655917D01*
X329438Y-6649770D01*
X329793Y-6642912D01*
X329539Y-6637426D01*
X328879Y-6632143D01*
X327710Y-6627012D01*
X326085Y-6622135D01*
X323951Y-6617614D01*
X321411Y-6613398D01*
X318363Y-6609588D01*
X314909Y-6606235D01*
X310946Y-6603390D01*
X306527Y-6601053D01*
X301599Y-6599326D01*
G37*
G36*
X282244Y-6706717D02*
G01*
X275488Y-6707124D01*
X269240Y-6708241D01*
X263499Y-6710121D01*
X258216Y-6712610D01*
X253492Y-6715709D01*
X249377Y-6719366D01*
X245770Y-6723481D01*
X242773Y-6728053D01*
X240436Y-6733031D01*
X238709Y-6738366D01*
X237693Y-6743953D01*
X237337Y-6749796D01*
X237859Y-6756095D01*
X249123Y-6756095D01*
X249631Y-6749897D01*
X251256Y-6744157D01*
X253949Y-6739026D01*
X257759Y-6734556D01*
X262686Y-6730898D01*
X268732Y-6728155D01*
X275996Y-6726428D01*
X284480Y-6725818D01*
X293014Y-6726377D01*
X300380Y-6728002D01*
X306679Y-6730542D01*
X311861Y-6733844D01*
X315874Y-6737908D01*
X318719Y-6742531D01*
X320497Y-6747611D01*
X321056Y-6753047D01*
X320700Y-6757060D01*
X319684Y-6760819D01*
X317957Y-6764324D01*
X315569Y-6767575D01*
X312420Y-6770522D01*
X308508Y-6773164D01*
X303885Y-6775399D01*
X298450Y-6777329D01*
X292252Y-6778853D01*
X285242Y-6779971D01*
X277469Y-6780631D01*
X266141Y-6780834D01*
X258267Y-6780479D01*
X254203Y-6775094D01*
X251307Y-6769303D01*
X249682Y-6762953D01*
X249123Y-6756095D01*
X237859Y-6756095D01*
X238048Y-6758381D01*
X240182Y-6766255D01*
X243687Y-6773265D01*
X248513Y-6779463D01*
X242570Y-6778294D01*
X236829Y-6776872D01*
X231343Y-6775043D01*
X226110Y-6772909D01*
X221081Y-6770420D01*
X216255Y-6767626D01*
X211683Y-6764375D01*
X207365Y-6760819D01*
X203200Y-6756857D01*
X199339Y-6752488D01*
X195630Y-6747713D01*
X192176Y-6742531D01*
X188976Y-6736943D01*
X185978Y-6730898D01*
X183184Y-6724396D01*
X180644Y-6717487D01*
X173736Y-6719112D01*
X175564Y-6726072D01*
X177647Y-6732727D01*
X179984Y-6738975D01*
X182575Y-6744970D01*
X185369Y-6750608D01*
X188366Y-6755892D01*
X191566Y-6760870D01*
X195021Y-6765544D01*
X198628Y-6769912D01*
X202438Y-6773976D01*
X206451Y-6777736D01*
X210616Y-6781139D01*
X214884Y-6784289D01*
X219354Y-6787184D01*
X223977Y-6789724D01*
X228701Y-6792010D01*
X233578Y-6793992D01*
X238556Y-6795719D01*
X248869Y-6798360D01*
X259486Y-6799884D01*
X264972Y-6800291D01*
X270459Y-6800392D01*
X277063Y-6800189D01*
X283413Y-6799580D01*
X289356Y-6798564D01*
X294995Y-6797192D01*
X300228Y-6795414D01*
X305104Y-6793280D01*
X309626Y-6790791D01*
X313690Y-6787946D01*
X317347Y-6784746D01*
X320548Y-6781241D01*
X323342Y-6777431D01*
X325628Y-6773316D01*
X327406Y-6768846D01*
X328726Y-6764121D01*
X329539Y-6759143D01*
X329793Y-6753859D01*
X329387Y-6747103D01*
X328269Y-6740753D01*
X326390Y-6734809D01*
X323850Y-6729374D01*
X320598Y-6724396D01*
X316788Y-6719925D01*
X312318Y-6716064D01*
X307289Y-6712813D01*
X301752Y-6710222D01*
X295706Y-6708292D01*
X289204Y-6707124D01*
G37*
G36*
X296265Y-6821322D02*
G01*
X293370Y-6823303D01*
X291236Y-6825792D01*
X289814Y-6828739D01*
X289356Y-6832092D01*
X290068Y-6836003D01*
X292455Y-6839356D01*
X296824Y-6842048D01*
X303377Y-6844284D01*
X319633Y-6848754D01*
X320700Y-6855256D01*
X321056Y-6860743D01*
X320497Y-6866686D01*
X318770Y-6872020D01*
X316077Y-6876694D01*
X312369Y-6880606D01*
X307797Y-6883755D01*
X302361Y-6886041D01*
X296214Y-6887464D01*
X289356Y-6887972D01*
X284886Y-6887768D01*
X280466Y-6887108D01*
X275996Y-6886041D01*
X271475Y-6884517D01*
X266903Y-6882587D01*
X262178Y-6880148D01*
X257302Y-6877303D01*
X247040Y-6870242D01*
X235864Y-6861251D01*
X191617Y-6822338D01*
X177800Y-6822338D01*
X177800Y-6913778D01*
X195072Y-6913778D01*
X195072Y-6836562D01*
X222097Y-6862775D01*
X237896Y-6877659D01*
X250952Y-6889191D01*
X256692Y-6893763D01*
X262026Y-6897624D01*
X267055Y-6900773D01*
X271830Y-6903313D01*
X276453Y-6905193D01*
X281025Y-6906463D01*
X285648Y-6907225D01*
X290372Y-6907479D01*
X296011Y-6907225D01*
X301345Y-6906412D01*
X306324Y-6905040D01*
X310896Y-6903110D01*
X315061Y-6900570D01*
X318770Y-6897471D01*
X322021Y-6893814D01*
X324713Y-6889496D01*
X326898Y-6884568D01*
X328472Y-6879031D01*
X329438Y-6872884D01*
X329793Y-6866026D01*
X329539Y-6860540D01*
X328879Y-6855256D01*
X327710Y-6850125D01*
X326085Y-6845249D01*
X323951Y-6840728D01*
X321411Y-6836511D01*
X318363Y-6832701D01*
X314909Y-6829348D01*
X310946Y-6826453D01*
X306527Y-6824167D01*
X301599Y-6822440D01*
G37*
G36*
X309270Y-6934098D02*
G01*
X309270Y-7012127D01*
X179832Y-6952792D01*
X177800Y-6954824D01*
X177800Y-6971893D01*
X315772Y-7024522D01*
X326745Y-7024522D01*
X326745Y-6934098D01*
G37*
G36*
X211531Y-7044436D02*
G01*
X205841Y-7044791D01*
X200660Y-7045909D01*
X195884Y-7047738D01*
X191566Y-7050227D01*
X187756Y-7053376D01*
X184404Y-7057085D01*
X181559Y-7061352D01*
X179222Y-7066178D01*
X177342Y-7071512D01*
X176022Y-7077303D01*
X175209Y-7083552D01*
X174984Y-7090765D01*
X183286Y-7090765D01*
X183845Y-7084618D01*
X185470Y-7079081D01*
X188112Y-7074204D01*
X191617Y-7070039D01*
X196037Y-7066686D01*
X201218Y-7064197D01*
X207060Y-7062622D01*
X213563Y-7062114D01*
X219151Y-7062419D01*
X224180Y-7063435D01*
X228752Y-7065060D01*
X232968Y-7067397D01*
X236880Y-7070394D01*
X240538Y-7074103D01*
X244043Y-7078522D01*
X247497Y-7083653D01*
X243027Y-7092645D01*
X241501Y-7095236D01*
X260908Y-7095236D01*
X265226Y-7087260D01*
X269544Y-7080808D01*
X273964Y-7075728D01*
X278434Y-7071817D01*
X282956Y-7069074D01*
X287528Y-7067245D01*
X292201Y-7066280D01*
X296875Y-7065975D01*
X302158Y-7066483D01*
X306933Y-7067956D01*
X311048Y-7070242D01*
X314502Y-7073290D01*
X317296Y-7076948D01*
X319379Y-7081062D01*
X320649Y-7085584D01*
X321056Y-7090359D01*
X320497Y-7095490D01*
X318922Y-7100011D01*
X316484Y-7103922D01*
X313283Y-7107174D01*
X309422Y-7109714D01*
X305104Y-7111593D01*
X300380Y-7112711D01*
X295452Y-7113117D01*
X290118Y-7112914D01*
X285242Y-7112203D01*
X280670Y-7110933D01*
X276453Y-7109155D01*
X272389Y-7106716D01*
X268528Y-7103618D01*
X264718Y-7099808D01*
X260908Y-7095236D01*
X241501Y-7095236D01*
X238658Y-7100062D01*
X234340Y-7105954D01*
X230022Y-7110526D01*
X225653Y-7113879D01*
X221081Y-7116165D01*
X216357Y-7117384D01*
X211328Y-7117791D01*
X205333Y-7117283D01*
X199898Y-7115860D01*
X195122Y-7113524D01*
X191058Y-7110374D01*
X187756Y-7106462D01*
X185318Y-7101840D01*
X183794Y-7096607D01*
X183286Y-7090765D01*
X174984Y-7090765D01*
X175260Y-7096556D01*
X176276Y-7102652D01*
X177850Y-7108342D01*
X179984Y-7113625D01*
X182676Y-7118451D01*
X185877Y-7122718D01*
X189585Y-7126528D01*
X193751Y-7129678D01*
X198374Y-7132269D01*
X203352Y-7134098D01*
X208686Y-7135266D01*
X214375Y-7135672D01*
X221488Y-7135164D01*
X227990Y-7133640D01*
X233883Y-7131100D01*
X239318Y-7127494D01*
X244297Y-7122820D01*
X248970Y-7117080D01*
X253390Y-7110171D01*
X257657Y-7102144D01*
X262178Y-7109256D01*
X266801Y-7115098D01*
X271576Y-7119721D01*
X276352Y-7123328D01*
X281127Y-7125970D01*
X285902Y-7127697D01*
X290525Y-7128662D01*
X295046Y-7128967D01*
X299974Y-7128662D01*
X304596Y-7127798D01*
X308965Y-7126325D01*
X312978Y-7124293D01*
X316687Y-7121753D01*
X319989Y-7118705D01*
X322834Y-7115149D01*
X325272Y-7111136D01*
X327202Y-7106666D01*
X328625Y-7101789D01*
X329488Y-7096455D01*
X329793Y-7090765D01*
X329488Y-7085075D01*
X328625Y-7079640D01*
X327202Y-7074509D01*
X325272Y-7069683D01*
X322783Y-7065264D01*
X319836Y-7061250D01*
X316382Y-7057745D01*
X312521Y-7054748D01*
X308203Y-7052360D01*
X303428Y-7050582D01*
X298297Y-7049465D01*
X292811Y-7049109D01*
X286512Y-7049516D01*
X280517Y-7050684D01*
X274828Y-7052716D01*
X269443Y-7055612D01*
X264363Y-7059422D01*
X259588Y-7064197D01*
X255117Y-7069937D01*
X250952Y-7076744D01*
X247040Y-7069226D01*
X242925Y-7062673D01*
X238506Y-7057136D01*
X233832Y-7052614D01*
X228803Y-7049008D01*
X223469Y-7046468D01*
X217728Y-7044944D01*
G37*
G36*
X205841Y-7155789D02*
G01*
X198323Y-7157872D01*
X191922Y-7161072D01*
X186588Y-7165238D01*
X182321Y-7170318D01*
X179070Y-7176312D01*
X176733Y-7183018D01*
X175412Y-7190435D01*
X174955Y-7198461D01*
X175310Y-7205675D01*
X176377Y-7212431D01*
X178104Y-7218781D01*
X180492Y-7224572D01*
X183438Y-7229805D01*
X186944Y-7234478D01*
X190957Y-7238542D01*
X195427Y-7241946D01*
X200355Y-7244638D01*
X205638Y-7246620D01*
X211277Y-7247839D01*
X217220Y-7248245D01*
X222097Y-7247991D01*
X226720Y-7247280D01*
X231140Y-7246061D01*
X235254Y-7244384D01*
X239064Y-7242149D01*
X242620Y-7239457D01*
X245821Y-7236206D01*
X248716Y-7232446D01*
X251206Y-7228179D01*
X253339Y-7223353D01*
X255117Y-7218019D01*
X256438Y-7212075D01*
X259130Y-7219238D01*
X262483Y-7225588D01*
X266395Y-7230973D01*
X270865Y-7235444D01*
X275894Y-7238949D01*
X281330Y-7241489D01*
X287172Y-7243064D01*
X293420Y-7243572D01*
X298704Y-7243216D01*
X303682Y-7242251D01*
X308254Y-7240625D01*
X312521Y-7238390D01*
X316331Y-7235596D01*
X319735Y-7232192D01*
X322732Y-7228331D01*
X325170Y-7223861D01*
X327152Y-7218984D01*
X328625Y-7213600D01*
X329488Y-7207758D01*
X329793Y-7201509D01*
X329336Y-7193991D01*
X328015Y-7186930D01*
X325831Y-7180376D01*
X322681Y-7174484D01*
X318668Y-7169403D01*
X313740Y-7165187D01*
X307898Y-7161987D01*
X301142Y-7159853D01*
X297535Y-7161682D01*
X295148Y-7164019D01*
X293827Y-7166914D01*
X293420Y-7170216D01*
X294233Y-7174839D01*
X296722Y-7178294D01*
X300888Y-7180834D01*
X306832Y-7182815D01*
X319836Y-7186472D01*
X320852Y-7192213D01*
X321056Y-7197242D01*
X320598Y-7203440D01*
X319176Y-7208926D01*
X316890Y-7213650D01*
X313639Y-7217613D01*
X309575Y-7220762D01*
X304698Y-7222998D01*
X298958Y-7224420D01*
X292404Y-7224877D01*
X285343Y-7224318D01*
X279146Y-7222591D01*
X273812Y-7219848D01*
X269392Y-7216089D01*
X265887Y-7211415D01*
X263347Y-7205827D01*
X261823Y-7199477D01*
X261315Y-7192365D01*
X261315Y-7183628D01*
X251358Y-7183628D01*
X251358Y-7194194D01*
X250748Y-7202271D01*
X249021Y-7209281D01*
X246125Y-7215225D01*
X242265Y-7220102D01*
X237388Y-7223861D01*
X231648Y-7226553D01*
X225044Y-7228179D01*
X217627Y-7228738D01*
X210362Y-7228179D01*
X203809Y-7226503D01*
X197967Y-7223759D01*
X193040Y-7220000D01*
X188976Y-7215174D01*
X185978Y-7209434D01*
X184150Y-7202779D01*
X183489Y-7195210D01*
X183845Y-7188962D01*
X185115Y-7182408D01*
X198323Y-7178751D01*
X204876Y-7176719D01*
X209448Y-7174230D01*
X212090Y-7171029D01*
X212953Y-7166559D01*
X212547Y-7163257D01*
X211226Y-7160361D01*
X208991Y-7157821D01*
G37*
G36*
X326339Y-7263688D02*
G01*
X324510Y-7281773D01*
X215900Y-7281722D01*
X187147Y-7281367D01*
X184708Y-7264704D01*
X177800Y-7264704D01*
X175564Y-7297826D01*
X190804Y-7299655D01*
X183083Y-7307325D01*
X178206Y-7315200D01*
X175666Y-7323175D01*
X175327Y-7326884D01*
X186334Y-7326884D01*
X186994Y-7320381D01*
X189179Y-7313675D01*
X192938Y-7306919D01*
X198526Y-7300061D01*
X262331Y-7300061D01*
X269036Y-7308545D01*
X272897Y-7315860D01*
X274726Y-7322159D01*
X275132Y-7327696D01*
X274828Y-7331862D01*
X273862Y-7335774D01*
X272288Y-7339482D01*
X270052Y-7342886D01*
X267258Y-7345984D01*
X263753Y-7348728D01*
X259689Y-7351115D01*
X255016Y-7353147D01*
X249682Y-7354773D01*
X243738Y-7355992D01*
X237185Y-7356703D01*
X230022Y-7356957D01*
X222656Y-7356652D01*
X216001Y-7355840D01*
X210058Y-7354468D01*
X204876Y-7352690D01*
X200355Y-7350455D01*
X196494Y-7347864D01*
X193344Y-7344918D01*
X190754Y-7341717D01*
X188772Y-7338263D01*
X187401Y-7334605D01*
X186588Y-7330795D01*
X186334Y-7326884D01*
X175327Y-7326884D01*
X174955Y-7330948D01*
X175209Y-7335875D01*
X176022Y-7340600D01*
X177292Y-7345121D01*
X179120Y-7349388D01*
X181356Y-7353401D01*
X184048Y-7357160D01*
X187198Y-7360615D01*
X190754Y-7363764D01*
X194665Y-7366609D01*
X198983Y-7369149D01*
X203657Y-7371334D01*
X208635Y-7373112D01*
X213969Y-7374585D01*
X219608Y-7375601D01*
X225501Y-7376261D01*
X231648Y-7376464D01*
X239928Y-7376109D01*
X247599Y-7374991D01*
X254660Y-7373213D01*
X261061Y-7370775D01*
X266801Y-7367778D01*
X271830Y-7364222D01*
X276199Y-7360158D01*
X279755Y-7355687D01*
X282600Y-7350759D01*
X284632Y-7345476D01*
X285902Y-7339888D01*
X286308Y-7333996D01*
X286054Y-7329576D01*
X285343Y-7325156D01*
X284073Y-7320737D01*
X282295Y-7316368D01*
X280009Y-7312050D01*
X277114Y-7307834D01*
X273710Y-7303668D01*
X269646Y-7299655D01*
X309067Y-7299655D01*
X340766Y-7300264D01*
X342392Y-7297420D01*
X333044Y-7263688D01*
G37*
G36*
X177800Y-7403084D02*
G01*
X177800Y-7485176D01*
X184708Y-7485176D01*
X189179Y-7453884D01*
X215849Y-7453528D01*
X294640Y-7453477D01*
X326745Y-7454290D01*
X328980Y-7451242D01*
X316992Y-7405522D01*
X309270Y-7405522D01*
X312115Y-7435189D01*
X206959Y-7435088D01*
X189179Y-7434783D01*
X184708Y-7403084D01*
G37*
D10*
X4597400Y-2171700D02*
G01*
X3530600Y-2171700D01*
X3403600Y-2044700D01*
X4597400Y-2171700D02*
G01*
X2476500Y-2171700D01*
X2349500Y-2044700D01*
X3378200Y-1193800D02*
G01*
X3619500Y-1193800D01*
X4597400Y-2171700D01*
X4597400Y-2171700D02*
G01*
X4597400Y-2006600D01*
X4965700Y-1638300D01*
X5372100Y-1638300D01*
X5905500Y-2171700D01*
X5905500Y-4584700D01*
X4470400Y-6019800D01*
X1422400Y-6019800D01*
X1422400Y-3403600D01*
X1727200Y-3098800D01*
X914400Y-2171700D02*
G01*
X762000Y-2019300D01*
X469900Y-2019300D01*
X469900Y-5778500D01*
X1473200Y-6781800D01*
X4140200Y-6781800D01*
X4267200Y-6908800D01*
X914400Y-2425700D02*
G01*
X1130300Y-2641600D01*
X2120900Y-2641600D01*
X2120900Y-3746500D01*
X4267200Y-5892800D01*
X4851400Y-2171700D02*
G01*
X4851400Y-1905000D01*
X5003800Y-1752600D01*
X5359400Y-1752600D01*
X5778500Y-2171700D01*
X5778500Y-2857500D01*
X4267200Y-4368800D01*
X5105400Y-2425700D02*
G01*
X4686300Y-2844800D01*
X3746500Y-2844800D01*
X3746500Y-4610100D01*
X4267200Y-5130800D01*
X5359400Y-2425700D02*
G01*
X4876800Y-2908300D01*
X3835400Y-2908300D01*
X3835400Y-4445000D01*
X4267200Y-4876800D01*
X660400Y-2171700D02*
G01*
X800100Y-2311400D01*
X800100Y-2743200D01*
X1371600Y-2743200D01*
X1727200Y-3098800D01*
D11*
G01*
X2349500Y-2044700D03*
G01*
X2603500Y-2044700D03*
G01*
X3403600Y-2044700D03*
G01*
X3657600Y-2044700D03*
D12*
G01*
X2857494Y-482600D03*
D13*
G01*
X3111500Y-482600D03*
D14*
G01*
X2616200Y-1193800D03*
G01*
X3378200Y-1193800D03*
D15*
G01*
X660400Y-2425700D03*
D16*
G01*
X660400Y-2171700D03*
G01*
X914400Y-2425700D03*
G01*
X914400Y-2171700D03*
G01*
X1168400Y-2425700D03*
G01*
X1168400Y-2171700D03*
G01*
X1422400Y-2425700D03*
G01*
X1422400Y-2171700D03*
D15*
G01*
X4597400Y-2425700D03*
D16*
G01*
X4597400Y-2171700D03*
G01*
X4851400Y-2425700D03*
G01*
X4851400Y-2171700D03*
G01*
X5105400Y-2425700D03*
G01*
X5105400Y-2171700D03*
G01*
X5359400Y-2425700D03*
G01*
X5359400Y-2171700D03*
D17*
G01*
X1727200Y-3098800D03*
G01*
X1727200Y-3352800D03*
G01*
X1727200Y-3606800D03*
G01*
X1727200Y-3860800D03*
G01*
X1727200Y-4114800D03*
G01*
X1727200Y-4368800D03*
G01*
X1727200Y-4622800D03*
G01*
X1727200Y-4876800D03*
G01*
X1727200Y-5130800D03*
G01*
X1727200Y-5384800D03*
G01*
X1727200Y-5638800D03*
G01*
X1727200Y-5892800D03*
G01*
X1727200Y-6146800D03*
G01*
X1727200Y-6400800D03*
G01*
X1727200Y-6654800D03*
G01*
X1727200Y-6908800D03*
G01*
X1727200Y-7162800D03*
G01*
X1727200Y-7416800D03*
G01*
X1727200Y-7670800D03*
G01*
X4267200Y-3098800D03*
G01*
X4267200Y-3352800D03*
G01*
X4267200Y-3606800D03*
G01*
X4267200Y-3860800D03*
G01*
X4267200Y-4114800D03*
G01*
X4267200Y-4368800D03*
G01*
X4267200Y-4622800D03*
G01*
X4267200Y-4876800D03*
G01*
X4267200Y-5130800D03*
G01*
X4267200Y-5384800D03*
G01*
X4267200Y-5638800D03*
G01*
X4267200Y-5892800D03*
G01*
X4267200Y-6146800D03*
G01*
X4267200Y-6400800D03*
G01*
X4267200Y-6654800D03*
G01*
X4267200Y-6908800D03*
G01*
X4267200Y-7162800D03*
G01*
X4267200Y-7416800D03*
G01*
X4267200Y-7670800D03*
M02*
