G04 Layer: TopSilkscreenLayer*
G04 EasyEDA v6.5.57, 2026-07-19 20:03:15*
G04 ccf68d3546cc488ca84b8e719732c7c5,1e612b17a94d4a96afa68f34b5e7b55f,10*
G04 Gerber Generator version 0.2*
G04 Scale: 100 percent, Rotated: No, Reflected: No *
G04 Dimensions in millimeters *
G04 leading zeros omitted , absolute positions ,4 integer and 5 decimal *
%FSLAX45Y45*%
%MOMM*%

%ADD10C,0.1524*%
%ADD11C,0.1030*%
%ADD12C,0.2032*%
%ADD13C,0.2007*%
%ADD14C,0.2540*%
%ADD15C,0.2997*%
%ADD16C,0.0115*%

%LPD*%
D10*
X2531618Y-1795271D02*
G01*
X2526284Y-1784857D01*
X2515870Y-1774444D01*
X2505709Y-1769363D01*
X2484881Y-1769363D01*
X2474468Y-1774444D01*
X2464054Y-1784857D01*
X2458720Y-1795271D01*
X2453640Y-1811020D01*
X2453640Y-1836928D01*
X2458720Y-1852421D01*
X2464054Y-1862836D01*
X2474468Y-1873250D01*
X2484881Y-1878329D01*
X2505709Y-1878329D01*
X2515870Y-1873250D01*
X2526284Y-1862836D01*
X2531618Y-1852421D01*
X2576322Y-1769363D02*
G01*
X2633472Y-1769363D01*
X2602229Y-1811020D01*
X2617724Y-1811020D01*
X2628138Y-1816100D01*
X2633472Y-1821179D01*
X2638552Y-1836928D01*
X2638552Y-1847342D01*
X2633472Y-1862836D01*
X2623058Y-1873250D01*
X2607309Y-1878329D01*
X2591815Y-1878329D01*
X2576322Y-1873250D01*
X2570988Y-1868170D01*
X2565908Y-1857755D01*
X3585718Y-1795271D02*
G01*
X3580384Y-1784857D01*
X3569970Y-1774444D01*
X3559809Y-1769363D01*
X3538981Y-1769363D01*
X3528568Y-1774444D01*
X3518154Y-1784857D01*
X3512820Y-1795271D01*
X3507740Y-1811020D01*
X3507740Y-1836928D01*
X3512820Y-1852421D01*
X3518154Y-1862836D01*
X3528568Y-1873250D01*
X3538981Y-1878329D01*
X3559809Y-1878329D01*
X3569970Y-1873250D01*
X3580384Y-1862836D01*
X3585718Y-1852421D01*
X3671824Y-1769363D02*
G01*
X3620008Y-1842007D01*
X3697986Y-1842007D01*
X3671824Y-1769363D02*
G01*
X3671824Y-1878329D01*
X2994019Y-52806D02*
G01*
X2994019Y-161772D01*
X2994019Y-161772D02*
G01*
X3056249Y-161772D01*
X3090539Y-52806D02*
G01*
X3090539Y-161772D01*
X3090539Y-52806D02*
G01*
X3158103Y-52806D01*
X3090539Y-104622D02*
G01*
X3132195Y-104622D01*
X3090539Y-161772D02*
G01*
X3158103Y-161772D01*
X3192393Y-52806D02*
G01*
X3192393Y-161772D01*
X3192393Y-52806D02*
G01*
X3228969Y-52806D01*
X3244463Y-57886D01*
X3254877Y-68300D01*
X3259957Y-78714D01*
X3265291Y-94462D01*
X3265291Y-120370D01*
X3259957Y-135864D01*
X3254877Y-146278D01*
X3244463Y-156692D01*
X3228969Y-161772D01*
X3192393Y-161772D01*
X3304661Y-78714D02*
G01*
X3304661Y-73634D01*
X3309995Y-63220D01*
X3315075Y-57886D01*
X3325489Y-52806D01*
X3346317Y-52806D01*
X3356731Y-57886D01*
X3361811Y-63220D01*
X3367145Y-73634D01*
X3367145Y-84048D01*
X3361811Y-94462D01*
X3351397Y-109956D01*
X3299581Y-161772D01*
X3372225Y-161772D01*
X2997200Y-951484D02*
G01*
X2997200Y-1060450D01*
X2997200Y-951484D02*
G01*
X3043936Y-951484D01*
X3059429Y-956563D01*
X3064763Y-961897D01*
X3069843Y-972312D01*
X3069843Y-982726D01*
X3064763Y-993139D01*
X3059429Y-998220D01*
X3043936Y-1003300D01*
X2997200Y-1003300D01*
X3033522Y-1003300D02*
G01*
X3069843Y-1060450D01*
X3109468Y-977392D02*
G01*
X3109468Y-972312D01*
X3114547Y-961897D01*
X3119881Y-956563D01*
X3130295Y-951484D01*
X3150870Y-951484D01*
X3161284Y-956563D01*
X3166618Y-961897D01*
X3171697Y-972312D01*
X3171697Y-982726D01*
X3166618Y-993139D01*
X3156204Y-1008634D01*
X3104134Y-1060450D01*
X3177031Y-1060450D01*
X113284Y-215900D02*
G01*
X191262Y-215900D01*
X206755Y-210820D01*
X217170Y-200405D01*
X222250Y-184657D01*
X222250Y-174244D01*
X217170Y-158750D01*
X206755Y-148336D01*
X191262Y-143255D01*
X113284Y-143255D01*
X134112Y-108965D02*
G01*
X128778Y-98552D01*
X113284Y-82804D01*
X222250Y-82804D01*
X4050284Y-215900D02*
G01*
X4128261Y-215900D01*
X4143756Y-210820D01*
X4154170Y-200405D01*
X4159250Y-184657D01*
X4159250Y-174244D01*
X4154170Y-158750D01*
X4143756Y-148336D01*
X4128261Y-143255D01*
X4050284Y-143255D01*
X4076191Y-103631D02*
G01*
X4071111Y-103631D01*
X4060697Y-98552D01*
X4055363Y-93218D01*
X4050284Y-82804D01*
X4050284Y-62229D01*
X4055363Y-51815D01*
X4060697Y-46481D01*
X4071111Y-41402D01*
X4081525Y-41402D01*
X4091940Y-46481D01*
X4107434Y-56895D01*
X4159250Y-108965D01*
X4159250Y-36068D01*
D11*
X3983365Y-7650861D02*
G01*
X3979555Y-7643495D01*
X3972443Y-7636129D01*
X3965077Y-7632572D01*
X3950599Y-7632572D01*
X3943233Y-7636129D01*
X3936121Y-7643495D01*
X3932311Y-7650861D01*
X3928755Y-7661783D01*
X3928755Y-7679817D01*
X3932311Y-7690738D01*
X3936121Y-7698104D01*
X3943233Y-7705470D01*
X3950599Y-7709027D01*
X3965077Y-7709027D01*
X3972443Y-7705470D01*
X3979555Y-7698104D01*
X3983365Y-7690738D01*
X4007241Y-7632572D02*
G01*
X4007241Y-7709027D01*
X4007241Y-7709027D02*
G01*
X4050929Y-7709027D01*
X4074805Y-7632572D02*
G01*
X4074805Y-7709027D01*
X4125859Y-7632572D02*
G01*
X4074805Y-7683627D01*
X4093093Y-7665338D02*
G01*
X4125859Y-7709027D01*
X3975999Y-7389495D02*
G01*
X3968887Y-7382383D01*
X3957965Y-7378572D01*
X3943487Y-7378572D01*
X3932565Y-7382383D01*
X3925199Y-7389495D01*
X3925199Y-7396861D01*
X3928755Y-7403972D01*
X3932565Y-7407783D01*
X3939677Y-7411338D01*
X3961521Y-7418704D01*
X3968887Y-7422261D01*
X3972443Y-7425817D01*
X3975999Y-7433183D01*
X3975999Y-7444104D01*
X3968887Y-7451470D01*
X3957965Y-7455027D01*
X3943487Y-7455027D01*
X3932565Y-7451470D01*
X3925199Y-7444104D01*
X4000129Y-7378572D02*
G01*
X4000129Y-7455027D01*
X4000129Y-7378572D02*
G01*
X4025529Y-7378572D01*
X4036451Y-7382383D01*
X4043817Y-7389495D01*
X4047373Y-7396861D01*
X4050929Y-7407783D01*
X4050929Y-7425817D01*
X4047373Y-7436738D01*
X4043817Y-7444104D01*
X4036451Y-7451470D01*
X4025529Y-7455027D01*
X4000129Y-7455027D01*
X4096903Y-7378572D02*
G01*
X4085981Y-7382383D01*
X4078615Y-7393051D01*
X4075059Y-7411338D01*
X4075059Y-7422261D01*
X4078615Y-7440548D01*
X4085981Y-7451470D01*
X4096903Y-7455027D01*
X4104015Y-7455027D01*
X4114937Y-7451470D01*
X4122303Y-7440548D01*
X4125859Y-7422261D01*
X4125859Y-7411338D01*
X4122303Y-7393051D01*
X4114937Y-7382383D01*
X4104015Y-7378572D01*
X4096903Y-7378572D01*
X4008762Y-7126036D02*
G01*
X4001650Y-7118924D01*
X3990728Y-7115114D01*
X3976250Y-7115114D01*
X3965328Y-7118924D01*
X3957962Y-7126036D01*
X3957962Y-7133402D01*
X3961518Y-7140514D01*
X3965328Y-7144324D01*
X3972440Y-7147880D01*
X3994284Y-7155246D01*
X4001650Y-7158802D01*
X4005206Y-7162358D01*
X4008762Y-7169724D01*
X4008762Y-7180646D01*
X4001650Y-7188012D01*
X3990728Y-7191568D01*
X3976250Y-7191568D01*
X3965328Y-7188012D01*
X3957962Y-7180646D01*
X4032892Y-7115114D02*
G01*
X4032892Y-7191568D01*
X4032892Y-7115114D02*
G01*
X4058292Y-7115114D01*
X4069214Y-7118924D01*
X4076580Y-7126036D01*
X4080136Y-7133402D01*
X4083692Y-7144324D01*
X4083692Y-7162358D01*
X4080136Y-7173280D01*
X4076580Y-7180646D01*
X4069214Y-7188012D01*
X4058292Y-7191568D01*
X4032892Y-7191568D01*
X4107822Y-7129592D02*
G01*
X4114934Y-7126036D01*
X4125856Y-7115114D01*
X4125856Y-7191568D01*
X4012572Y-6888863D02*
G01*
X4008762Y-6881497D01*
X4001650Y-6874385D01*
X3994284Y-6870575D01*
X3979806Y-6870575D01*
X3972440Y-6874385D01*
X3965328Y-6881497D01*
X3961518Y-6888863D01*
X3957962Y-6899785D01*
X3957962Y-6917819D01*
X3961518Y-6928741D01*
X3965328Y-6936107D01*
X3972440Y-6943473D01*
X3979806Y-6947029D01*
X3994284Y-6947029D01*
X4001650Y-6943473D01*
X4008762Y-6936107D01*
X4012572Y-6928741D01*
X4012572Y-6917819D01*
X3994284Y-6917819D02*
G01*
X4012572Y-6917819D01*
X4036448Y-6885053D02*
G01*
X4043814Y-6881497D01*
X4054736Y-6870575D01*
X4054736Y-6947029D01*
X4122300Y-6870575D02*
G01*
X4085978Y-6870575D01*
X4082422Y-6903341D01*
X4085978Y-6899785D01*
X4096900Y-6895975D01*
X4107822Y-6895975D01*
X4118744Y-6899785D01*
X4125856Y-6906897D01*
X4129666Y-6917819D01*
X4129666Y-6925185D01*
X4125856Y-6936107D01*
X4118744Y-6943473D01*
X4107822Y-6947029D01*
X4096900Y-6947029D01*
X4085978Y-6943473D01*
X4082422Y-6939663D01*
X4078612Y-6932551D01*
X4065899Y-6644642D02*
G01*
X4073265Y-6640832D01*
X4080377Y-6633720D01*
X4084187Y-6626354D01*
X4084187Y-6611876D01*
X4080377Y-6604510D01*
X4073265Y-6597398D01*
X4065899Y-6593588D01*
X4054977Y-6590032D01*
X4036943Y-6590032D01*
X4026021Y-6593588D01*
X4018655Y-6597398D01*
X4011289Y-6604510D01*
X4007733Y-6611876D01*
X4007733Y-6626354D01*
X4011289Y-6633720D01*
X4018655Y-6640832D01*
X4026021Y-6644642D01*
X4036943Y-6644642D01*
X4036943Y-6626354D02*
G01*
X4036943Y-6644642D01*
X4065899Y-6672328D02*
G01*
X4069709Y-6672328D01*
X4076821Y-6675884D01*
X4080377Y-6679440D01*
X4084187Y-6686806D01*
X4084187Y-6701284D01*
X4080377Y-6708650D01*
X4076821Y-6712206D01*
X4069709Y-6715762D01*
X4062343Y-6715762D01*
X4054977Y-6712206D01*
X4044055Y-6704840D01*
X4007733Y-6668518D01*
X4007733Y-6719572D01*
X4065899Y-6390642D02*
G01*
X4073265Y-6386832D01*
X4080377Y-6379720D01*
X4084187Y-6372354D01*
X4084187Y-6357876D01*
X4080377Y-6350510D01*
X4073265Y-6343398D01*
X4065899Y-6339588D01*
X4054977Y-6336032D01*
X4036943Y-6336032D01*
X4026021Y-6339588D01*
X4018655Y-6343398D01*
X4011289Y-6350510D01*
X4007733Y-6357876D01*
X4007733Y-6372354D01*
X4011289Y-6379720D01*
X4018655Y-6386832D01*
X4026021Y-6390642D01*
X4036943Y-6390642D01*
X4036943Y-6372354D02*
G01*
X4036943Y-6390642D01*
X4084187Y-6436362D02*
G01*
X4080377Y-6425440D01*
X4069709Y-6418328D01*
X4051421Y-6414518D01*
X4040499Y-6414518D01*
X4022211Y-6418328D01*
X4011289Y-6425440D01*
X4007733Y-6436362D01*
X4007733Y-6443728D01*
X4011289Y-6454650D01*
X4022211Y-6461762D01*
X4040499Y-6465572D01*
X4051421Y-6465572D01*
X4069709Y-6461762D01*
X4080377Y-6454650D01*
X4084187Y-6443728D01*
X4084187Y-6436362D01*
X4071233Y-6136081D02*
G01*
X4078599Y-6132271D01*
X4085711Y-6125159D01*
X4089521Y-6117793D01*
X4089521Y-6103315D01*
X4085711Y-6095949D01*
X4078599Y-6088837D01*
X4071233Y-6085027D01*
X4060311Y-6081471D01*
X4042277Y-6081471D01*
X4031355Y-6085027D01*
X4023989Y-6088837D01*
X4016623Y-6095949D01*
X4013067Y-6103315D01*
X4013067Y-6117793D01*
X4016623Y-6125159D01*
X4023989Y-6132271D01*
X4031355Y-6136081D01*
X4042277Y-6136081D01*
X4042277Y-6117793D02*
G01*
X4042277Y-6136081D01*
X4089521Y-6196279D02*
G01*
X4038467Y-6159957D01*
X4038467Y-6214567D01*
X4089521Y-6196279D02*
G01*
X4013067Y-6196279D01*
X4071233Y-5869381D02*
G01*
X4078599Y-5865571D01*
X4085711Y-5858459D01*
X4089521Y-5851093D01*
X4089521Y-5836615D01*
X4085711Y-5829249D01*
X4078599Y-5822137D01*
X4071233Y-5818327D01*
X4060311Y-5814771D01*
X4042277Y-5814771D01*
X4031355Y-5818327D01*
X4023989Y-5822137D01*
X4016623Y-5829249D01*
X4013067Y-5836615D01*
X4013067Y-5851093D01*
X4016623Y-5858459D01*
X4023989Y-5865571D01*
X4031355Y-5869381D01*
X4042277Y-5869381D01*
X4042277Y-5851093D02*
G01*
X4042277Y-5869381D01*
X4075043Y-5893257D02*
G01*
X4078599Y-5900623D01*
X4089521Y-5911545D01*
X4013067Y-5911545D01*
X4078599Y-5979109D02*
G01*
X4085711Y-5975553D01*
X4089521Y-5964631D01*
X4089521Y-5957265D01*
X4085711Y-5946343D01*
X4075043Y-5939231D01*
X4056755Y-5935421D01*
X4038467Y-5935421D01*
X4023989Y-5939231D01*
X4016623Y-5946343D01*
X4013067Y-5957265D01*
X4013067Y-5961075D01*
X4016623Y-5971743D01*
X4023989Y-5979109D01*
X4034911Y-5982665D01*
X4038467Y-5982665D01*
X4049389Y-5979109D01*
X4056755Y-5971743D01*
X4060311Y-5961075D01*
X4060311Y-5957265D01*
X4056755Y-5946343D01*
X4049389Y-5939231D01*
X4038467Y-5935421D01*
X4071233Y-5609031D02*
G01*
X4078599Y-5605221D01*
X4085711Y-5598109D01*
X4089521Y-5590743D01*
X4089521Y-5576265D01*
X4085711Y-5568899D01*
X4078599Y-5561787D01*
X4071233Y-5557977D01*
X4060311Y-5554421D01*
X4042277Y-5554421D01*
X4031355Y-5557977D01*
X4023989Y-5561787D01*
X4016623Y-5568899D01*
X4013067Y-5576265D01*
X4013067Y-5590743D01*
X4016623Y-5598109D01*
X4023989Y-5605221D01*
X4031355Y-5609031D01*
X4042277Y-5609031D01*
X4042277Y-5590743D02*
G01*
X4042277Y-5609031D01*
X4075043Y-5632907D02*
G01*
X4078599Y-5640273D01*
X4089521Y-5651195D01*
X4013067Y-5651195D01*
X4089521Y-5726125D02*
G01*
X4013067Y-5689803D01*
X4089521Y-5675071D02*
G01*
X4089521Y-5726125D01*
X4071233Y-5374642D02*
G01*
X4078599Y-5370832D01*
X4085711Y-5363720D01*
X4089521Y-5356354D01*
X4089521Y-5341876D01*
X4085711Y-5334510D01*
X4078599Y-5327398D01*
X4071233Y-5323588D01*
X4060311Y-5320032D01*
X4042277Y-5320032D01*
X4031355Y-5323588D01*
X4023989Y-5327398D01*
X4016623Y-5334510D01*
X4013067Y-5341876D01*
X4013067Y-5356354D01*
X4016623Y-5363720D01*
X4023989Y-5370832D01*
X4031355Y-5374642D01*
X4042277Y-5374642D01*
X4042277Y-5356354D02*
G01*
X4042277Y-5374642D01*
X4089521Y-5442206D02*
G01*
X4089521Y-5405884D01*
X4056755Y-5402328D01*
X4060311Y-5405884D01*
X4064121Y-5416806D01*
X4064121Y-5427728D01*
X4060311Y-5438650D01*
X4053199Y-5445762D01*
X4042277Y-5449572D01*
X4034911Y-5449572D01*
X4023989Y-5445762D01*
X4016623Y-5438650D01*
X4013067Y-5427728D01*
X4013067Y-5416806D01*
X4016623Y-5405884D01*
X4020433Y-5402328D01*
X4027545Y-5398518D01*
X4064000Y-5109210D02*
G01*
X4071365Y-5105400D01*
X4078477Y-5098287D01*
X4082288Y-5090921D01*
X4082288Y-5076444D01*
X4078477Y-5069078D01*
X4071365Y-5061965D01*
X4064000Y-5058155D01*
X4053077Y-5054600D01*
X4035043Y-5054600D01*
X4024122Y-5058155D01*
X4016756Y-5061965D01*
X4009390Y-5069078D01*
X4005834Y-5076444D01*
X4005834Y-5090921D01*
X4009390Y-5098287D01*
X4016756Y-5105400D01*
X4024122Y-5109210D01*
X4035043Y-5109210D01*
X4035043Y-5090921D02*
G01*
X4035043Y-5109210D01*
X4067809Y-5133086D02*
G01*
X4071365Y-5140452D01*
X4082288Y-5151373D01*
X4005834Y-5151373D01*
X4082288Y-5193537D02*
G01*
X4078477Y-5182615D01*
X4071365Y-5179060D01*
X4064000Y-5179060D01*
X4056888Y-5182615D01*
X4053077Y-5189981D01*
X4049522Y-5204460D01*
X4045965Y-5215381D01*
X4038600Y-5222494D01*
X4031234Y-5226304D01*
X4020311Y-5226304D01*
X4013200Y-5222494D01*
X4009390Y-5218937D01*
X4005834Y-5208015D01*
X4005834Y-5193537D01*
X4009390Y-5182615D01*
X4013200Y-5179060D01*
X4020311Y-5175250D01*
X4031234Y-5175250D01*
X4038600Y-5179060D01*
X4045965Y-5186171D01*
X4049522Y-5197094D01*
X4053077Y-5211571D01*
X4056888Y-5218937D01*
X4064000Y-5222494D01*
X4071365Y-5222494D01*
X4078477Y-5218937D01*
X4082288Y-5208015D01*
X4082288Y-5193537D01*
X4071233Y-4853381D02*
G01*
X4078599Y-4849571D01*
X4085711Y-4842459D01*
X4089521Y-4835093D01*
X4089521Y-4820615D01*
X4085711Y-4813249D01*
X4078599Y-4806137D01*
X4071233Y-4802327D01*
X4060311Y-4798771D01*
X4042277Y-4798771D01*
X4031355Y-4802327D01*
X4023989Y-4806137D01*
X4016623Y-4813249D01*
X4013067Y-4820615D01*
X4013067Y-4835093D01*
X4016623Y-4842459D01*
X4023989Y-4849571D01*
X4031355Y-4853381D01*
X4042277Y-4853381D01*
X4042277Y-4835093D02*
G01*
X4042277Y-4853381D01*
X4075043Y-4877257D02*
G01*
X4078599Y-4884623D01*
X4089521Y-4895545D01*
X4013067Y-4895545D01*
X4064121Y-4966665D02*
G01*
X4053199Y-4963109D01*
X4045833Y-4955743D01*
X4042277Y-4945075D01*
X4042277Y-4941265D01*
X4045833Y-4930343D01*
X4053199Y-4923231D01*
X4064121Y-4919421D01*
X4067677Y-4919421D01*
X4078599Y-4923231D01*
X4085711Y-4930343D01*
X4089521Y-4941265D01*
X4089521Y-4945075D01*
X4085711Y-4955743D01*
X4078599Y-4963109D01*
X4064121Y-4966665D01*
X4045833Y-4966665D01*
X4027545Y-4963109D01*
X4016623Y-4955743D01*
X4013067Y-4945075D01*
X4013067Y-4937709D01*
X4016623Y-4926787D01*
X4023989Y-4923231D01*
X4071233Y-4586681D02*
G01*
X4078599Y-4582871D01*
X4085711Y-4575759D01*
X4089521Y-4568393D01*
X4089521Y-4553915D01*
X4085711Y-4546549D01*
X4078599Y-4539437D01*
X4071233Y-4535627D01*
X4060311Y-4532071D01*
X4042277Y-4532071D01*
X4031355Y-4535627D01*
X4023989Y-4539437D01*
X4016623Y-4546549D01*
X4013067Y-4553915D01*
X4013067Y-4568393D01*
X4016623Y-4575759D01*
X4023989Y-4582871D01*
X4031355Y-4586681D01*
X4042277Y-4586681D01*
X4042277Y-4568393D02*
G01*
X4042277Y-4586681D01*
X4089521Y-4610557D02*
G01*
X4013067Y-4610557D01*
X4089521Y-4610557D02*
G01*
X4013067Y-4661611D01*
X4089521Y-4661611D02*
G01*
X4013067Y-4661611D01*
X4089521Y-4685487D02*
G01*
X4013067Y-4685487D01*
X4089521Y-4685487D02*
G01*
X4089521Y-4710887D01*
X4085711Y-4721809D01*
X4078599Y-4729175D01*
X4071233Y-4732731D01*
X4060311Y-4736541D01*
X4042277Y-4736541D01*
X4031355Y-4732731D01*
X4023989Y-4729175D01*
X4016623Y-4721809D01*
X4013067Y-4710887D01*
X4013067Y-4685487D01*
X4078599Y-4364809D02*
G01*
X4085965Y-4360999D01*
X4093077Y-4353887D01*
X4096887Y-4346521D01*
X4096887Y-4332043D01*
X4093077Y-4324677D01*
X4085965Y-4317565D01*
X4078599Y-4313755D01*
X4067677Y-4310199D01*
X4049643Y-4310199D01*
X4038721Y-4313755D01*
X4031355Y-4317565D01*
X4023989Y-4324677D01*
X4020433Y-4332043D01*
X4020433Y-4346521D01*
X4023989Y-4353887D01*
X4031355Y-4360999D01*
X4038721Y-4364809D01*
X4049643Y-4364809D01*
X4049643Y-4346521D02*
G01*
X4049643Y-4364809D01*
X4078599Y-4392495D02*
G01*
X4082409Y-4392495D01*
X4089521Y-4396051D01*
X4093077Y-4399607D01*
X4096887Y-4406973D01*
X4096887Y-4421451D01*
X4093077Y-4428817D01*
X4089521Y-4432373D01*
X4082409Y-4435929D01*
X4075043Y-4435929D01*
X4067677Y-4432373D01*
X4056755Y-4425007D01*
X4020433Y-4388685D01*
X4020433Y-4439739D01*
X4082409Y-4463615D02*
G01*
X4085965Y-4470981D01*
X4096887Y-4481903D01*
X4020433Y-4481903D01*
X4096887Y-4014470D02*
G01*
X4020433Y-4014470D01*
X4096887Y-4014470D02*
G01*
X4096887Y-4047236D01*
X4093077Y-4058157D01*
X4089521Y-4061713D01*
X4082409Y-4065270D01*
X4075043Y-4065270D01*
X4067677Y-4061713D01*
X4064121Y-4058157D01*
X4060565Y-4047236D01*
X4060565Y-4014470D01*
X4060565Y-4039870D02*
G01*
X4020433Y-4065270D01*
X4096887Y-4089400D02*
G01*
X4020433Y-4140200D01*
X4096887Y-4140200D02*
G01*
X4020433Y-4089400D01*
X4096887Y-4164329D02*
G01*
X4020433Y-4164329D01*
X4096887Y-4164329D02*
G01*
X4096887Y-4189729D01*
X4093077Y-4200652D01*
X4085965Y-4208018D01*
X4078599Y-4211573D01*
X4067677Y-4215129D01*
X4049643Y-4215129D01*
X4038721Y-4211573D01*
X4031355Y-4208018D01*
X4023989Y-4200652D01*
X4020433Y-4189729D01*
X4020433Y-4164329D01*
X4096887Y-3792118D02*
G01*
X4020433Y-3792118D01*
X4096887Y-3766718D02*
G01*
X4096887Y-3817518D01*
X4096887Y-3841648D02*
G01*
X4020433Y-3892448D01*
X4096887Y-3892448D02*
G01*
X4020433Y-3841648D01*
X4096887Y-3916578D02*
G01*
X4020433Y-3916578D01*
X4096887Y-3916578D02*
G01*
X4096887Y-3941978D01*
X4093077Y-3952900D01*
X4085965Y-3960266D01*
X4078599Y-3963822D01*
X4067677Y-3967378D01*
X4049643Y-3967378D01*
X4038721Y-3963822D01*
X4031355Y-3960266D01*
X4023989Y-3952900D01*
X4020433Y-3941978D01*
X4020433Y-3916578D01*
X4078599Y-3559177D02*
G01*
X4085965Y-3555367D01*
X4093077Y-3548255D01*
X4096887Y-3540889D01*
X4096887Y-3526411D01*
X4093077Y-3519045D01*
X4085965Y-3511933D01*
X4078599Y-3508123D01*
X4067677Y-3504567D01*
X4049643Y-3504567D01*
X4038721Y-3508123D01*
X4031355Y-3511933D01*
X4023989Y-3519045D01*
X4020433Y-3526411D01*
X4020433Y-3540889D01*
X4023989Y-3548255D01*
X4031355Y-3555367D01*
X4038721Y-3559177D01*
X4049643Y-3559177D01*
X4049643Y-3540889D02*
G01*
X4049643Y-3559177D01*
X4078599Y-3586863D02*
G01*
X4082409Y-3586863D01*
X4089521Y-3590419D01*
X4093077Y-3593975D01*
X4096887Y-3601341D01*
X4096887Y-3615819D01*
X4093077Y-3623185D01*
X4089521Y-3626741D01*
X4082409Y-3630297D01*
X4075043Y-3630297D01*
X4067677Y-3626741D01*
X4056755Y-3619375D01*
X4020433Y-3583053D01*
X4020433Y-3634107D01*
X4078599Y-3661539D02*
G01*
X4082409Y-3661539D01*
X4089521Y-3665349D01*
X4093077Y-3668905D01*
X4096887Y-3676271D01*
X4096887Y-3690749D01*
X4093077Y-3698115D01*
X4089521Y-3701671D01*
X4082409Y-3705227D01*
X4075043Y-3705227D01*
X4067677Y-3701671D01*
X4056755Y-3694305D01*
X4020433Y-3657983D01*
X4020433Y-3709037D01*
X4078599Y-3305177D02*
G01*
X4085965Y-3301367D01*
X4093077Y-3294255D01*
X4096887Y-3286889D01*
X4096887Y-3272411D01*
X4093077Y-3265045D01*
X4085965Y-3257933D01*
X4078599Y-3254123D01*
X4067677Y-3250567D01*
X4049643Y-3250567D01*
X4038721Y-3254123D01*
X4031355Y-3257933D01*
X4023989Y-3265045D01*
X4020433Y-3272411D01*
X4020433Y-3286889D01*
X4023989Y-3294255D01*
X4031355Y-3301367D01*
X4038721Y-3305177D01*
X4049643Y-3305177D01*
X4049643Y-3286889D02*
G01*
X4049643Y-3305177D01*
X4078599Y-3332863D02*
G01*
X4082409Y-3332863D01*
X4089521Y-3336419D01*
X4093077Y-3339975D01*
X4096887Y-3347341D01*
X4096887Y-3361819D01*
X4093077Y-3369185D01*
X4089521Y-3372741D01*
X4082409Y-3376297D01*
X4075043Y-3376297D01*
X4067677Y-3372741D01*
X4056755Y-3365375D01*
X4020433Y-3329053D01*
X4020433Y-3380107D01*
X4096887Y-3411349D02*
G01*
X4096887Y-3451227D01*
X4067677Y-3429383D01*
X4067677Y-3440305D01*
X4064121Y-3447671D01*
X4060565Y-3451227D01*
X4049643Y-3455037D01*
X4042277Y-3455037D01*
X4031355Y-3451227D01*
X4023989Y-3444115D01*
X4020433Y-3433193D01*
X4020433Y-3422271D01*
X4023989Y-3411349D01*
X4027799Y-3407539D01*
X4034911Y-3403983D01*
X4078599Y-3051177D02*
G01*
X4085965Y-3047367D01*
X4093077Y-3040255D01*
X4096887Y-3032889D01*
X4096887Y-3018411D01*
X4093077Y-3011045D01*
X4085965Y-3003933D01*
X4078599Y-3000123D01*
X4067677Y-2996567D01*
X4049643Y-2996567D01*
X4038721Y-3000123D01*
X4031355Y-3003933D01*
X4023989Y-3011045D01*
X4020433Y-3018411D01*
X4020433Y-3032889D01*
X4023989Y-3040255D01*
X4031355Y-3047367D01*
X4038721Y-3051177D01*
X4049643Y-3051177D01*
X4049643Y-3032889D02*
G01*
X4049643Y-3051177D01*
X4096887Y-3075053D02*
G01*
X4020433Y-3075053D01*
X4096887Y-3075053D02*
G01*
X4020433Y-3126107D01*
X4096887Y-3126107D02*
G01*
X4020433Y-3126107D01*
X4096887Y-3149983D02*
G01*
X4020433Y-3149983D01*
X4096887Y-3149983D02*
G01*
X4096887Y-3175383D01*
X4093077Y-3186305D01*
X4085965Y-3193671D01*
X4078599Y-3197227D01*
X4067677Y-3201037D01*
X4049643Y-3201037D01*
X4038721Y-3197227D01*
X4031355Y-3193671D01*
X4023989Y-3186305D01*
X4020433Y-3175383D01*
X4020433Y-3149983D01*
D12*
X2389200Y-3899110D02*
G01*
X2407488Y-3975564D01*
X2425522Y-3899110D02*
G01*
X2407488Y-3975564D01*
X2425522Y-3899110D02*
G01*
X2443810Y-3975564D01*
X2461844Y-3899110D02*
G01*
X2443810Y-3975564D01*
X2485974Y-3899110D02*
G01*
X2485974Y-3975564D01*
X2509850Y-3899110D02*
G01*
X2509850Y-3975564D01*
X2509850Y-3899110D02*
G01*
X2557094Y-3899110D01*
X2509850Y-3935432D02*
G01*
X2539060Y-3935432D01*
X2581224Y-3899110D02*
G01*
X2581224Y-3975564D01*
X2661234Y-3899110D02*
G01*
X2661234Y-3975564D01*
X2661234Y-3899110D02*
G01*
X2708478Y-3899110D01*
X2661234Y-3935432D02*
G01*
X2690190Y-3935432D01*
X2661234Y-3975564D02*
G01*
X2708478Y-3975564D01*
X2783408Y-3910032D02*
G01*
X2776042Y-3902920D01*
X2765120Y-3899110D01*
X2750642Y-3899110D01*
X2739720Y-3902920D01*
X2732354Y-3910032D01*
X2732354Y-3917398D01*
X2736164Y-3924510D01*
X2739720Y-3928320D01*
X2747086Y-3931876D01*
X2768930Y-3939242D01*
X2776042Y-3942798D01*
X2779852Y-3946354D01*
X2783408Y-3953720D01*
X2783408Y-3964642D01*
X2776042Y-3972008D01*
X2765120Y-3975564D01*
X2750642Y-3975564D01*
X2739720Y-3972008D01*
X2732354Y-3964642D01*
X2807284Y-3899110D02*
G01*
X2807284Y-3975564D01*
X2807284Y-3899110D02*
G01*
X2840050Y-3899110D01*
X2850972Y-3902920D01*
X2854528Y-3906476D01*
X2858338Y-3913588D01*
X2858338Y-3924510D01*
X2854528Y-3931876D01*
X2850972Y-3935432D01*
X2840050Y-3939242D01*
X2807284Y-3939242D01*
X2882214Y-3942798D02*
G01*
X2947746Y-3942798D01*
X2971622Y-3899110D02*
G01*
X2989910Y-3975564D01*
X3008198Y-3899110D02*
G01*
X2989910Y-3975564D01*
X3008198Y-3899110D02*
G01*
X3026232Y-3975564D01*
X3044520Y-3899110D02*
G01*
X3026232Y-3975564D01*
X3068396Y-3899110D02*
G01*
X3068396Y-3975564D01*
X3068396Y-3899110D02*
G01*
X3101162Y-3899110D01*
X3112084Y-3902920D01*
X3115640Y-3906476D01*
X3119450Y-3913588D01*
X3119450Y-3920954D01*
X3115640Y-3928320D01*
X3112084Y-3931876D01*
X3101162Y-3935432D01*
X3068396Y-3935432D01*
X3094050Y-3935432D02*
G01*
X3119450Y-3975564D01*
X3165170Y-3899110D02*
G01*
X3157804Y-3902920D01*
X3150692Y-3910032D01*
X3147136Y-3917398D01*
X3143326Y-3928320D01*
X3143326Y-3946354D01*
X3147136Y-3957276D01*
X3150692Y-3964642D01*
X3157804Y-3972008D01*
X3165170Y-3975564D01*
X3179648Y-3975564D01*
X3187014Y-3972008D01*
X3194380Y-3964642D01*
X3197936Y-3957276D01*
X3201492Y-3946354D01*
X3201492Y-3928320D01*
X3197936Y-3917398D01*
X3194380Y-3910032D01*
X3187014Y-3902920D01*
X3179648Y-3899110D01*
X3165170Y-3899110D01*
X3247466Y-3899110D02*
G01*
X3240100Y-3902920D01*
X3232734Y-3910032D01*
X3229178Y-3917398D01*
X3225622Y-3928320D01*
X3225622Y-3946354D01*
X3229178Y-3957276D01*
X3232734Y-3964642D01*
X3240100Y-3972008D01*
X3247466Y-3975564D01*
X3261944Y-3975564D01*
X3269310Y-3972008D01*
X3276422Y-3964642D01*
X3280232Y-3957276D01*
X3283788Y-3946354D01*
X3283788Y-3928320D01*
X3280232Y-3917398D01*
X3276422Y-3910032D01*
X3269310Y-3902920D01*
X3261944Y-3899110D01*
X3247466Y-3899110D01*
X3307664Y-3899110D02*
G01*
X3307664Y-3975564D01*
X3307664Y-3899110D02*
G01*
X3336874Y-3975564D01*
X3365830Y-3899110D02*
G01*
X3336874Y-3975564D01*
X3365830Y-3899110D02*
G01*
X3365830Y-3975564D01*
X3389960Y-3942798D02*
G01*
X3455492Y-3942798D01*
X3486734Y-3899110D02*
G01*
X3526612Y-3899110D01*
X3504768Y-3928320D01*
X3515690Y-3928320D01*
X3523056Y-3931876D01*
X3526612Y-3935432D01*
X3530168Y-3946354D01*
X3530168Y-3953720D01*
X3526612Y-3964642D01*
X3519500Y-3972008D01*
X3508578Y-3975564D01*
X3497656Y-3975564D01*
X3486734Y-3972008D01*
X3482924Y-3968198D01*
X3479368Y-3961086D01*
X3557854Y-3917398D02*
G01*
X3557854Y-3913588D01*
X3561664Y-3906476D01*
X3565220Y-3902920D01*
X3572586Y-3899110D01*
X3587064Y-3899110D01*
X3594176Y-3902920D01*
X3597986Y-3906476D01*
X3601542Y-3913588D01*
X3601542Y-3920954D01*
X3597986Y-3928320D01*
X3590620Y-3939242D01*
X3554298Y-3975564D01*
X3605098Y-3975564D01*
D11*
X1920887Y-7632575D02*
G01*
X1884565Y-7632575D01*
X1880755Y-7665341D01*
X1884565Y-7661785D01*
X1895487Y-7657975D01*
X1906409Y-7657975D01*
X1917077Y-7661785D01*
X1924443Y-7668897D01*
X1927999Y-7679819D01*
X1927999Y-7687185D01*
X1924443Y-7698107D01*
X1917077Y-7705473D01*
X1906409Y-7709029D01*
X1895487Y-7709029D01*
X1884565Y-7705473D01*
X1880755Y-7701663D01*
X1877199Y-7694551D01*
X1952129Y-7632575D02*
G01*
X1981085Y-7709029D01*
X2010295Y-7632575D02*
G01*
X1981085Y-7709029D01*
X1931807Y-7396861D02*
G01*
X1927997Y-7389495D01*
X1920885Y-7382383D01*
X1913519Y-7378572D01*
X1899041Y-7378572D01*
X1891675Y-7382383D01*
X1884563Y-7389495D01*
X1880753Y-7396861D01*
X1877197Y-7407783D01*
X1877197Y-7425817D01*
X1880753Y-7436738D01*
X1884563Y-7444104D01*
X1891675Y-7451470D01*
X1899041Y-7455027D01*
X1913519Y-7455027D01*
X1920885Y-7451470D01*
X1927997Y-7444104D01*
X1931807Y-7436738D01*
X1955683Y-7378572D02*
G01*
X1955683Y-7455027D01*
X1955683Y-7378572D02*
G01*
X1984893Y-7455027D01*
X2013849Y-7378572D02*
G01*
X1984893Y-7455027D01*
X2013849Y-7378572D02*
G01*
X2013849Y-7455027D01*
X2037979Y-7378572D02*
G01*
X2037979Y-7455027D01*
X2037979Y-7378572D02*
G01*
X2063379Y-7378572D01*
X2074301Y-7382383D01*
X2081667Y-7389495D01*
X2085223Y-7396861D01*
X2088779Y-7407783D01*
X2088779Y-7425817D01*
X2085223Y-7436738D01*
X2081667Y-7444104D01*
X2074301Y-7451470D01*
X2063379Y-7455027D01*
X2037979Y-7455027D01*
X1928002Y-7135497D02*
G01*
X1920890Y-7128385D01*
X1909968Y-7124575D01*
X1895490Y-7124575D01*
X1884568Y-7128385D01*
X1877202Y-7135497D01*
X1877202Y-7142863D01*
X1880758Y-7149975D01*
X1884568Y-7153785D01*
X1891680Y-7157341D01*
X1913524Y-7164707D01*
X1920890Y-7168263D01*
X1924446Y-7171819D01*
X1928002Y-7179185D01*
X1928002Y-7190107D01*
X1920890Y-7197473D01*
X1909968Y-7201029D01*
X1895490Y-7201029D01*
X1884568Y-7197473D01*
X1877202Y-7190107D01*
X1952132Y-7124575D02*
G01*
X1952132Y-7201029D01*
X1952132Y-7124575D02*
G01*
X1977532Y-7124575D01*
X1988454Y-7128385D01*
X1995820Y-7135497D01*
X1999376Y-7142863D01*
X2002932Y-7153785D01*
X2002932Y-7171819D01*
X1999376Y-7182741D01*
X1995820Y-7190107D01*
X1988454Y-7197473D01*
X1977532Y-7201029D01*
X1952132Y-7201029D01*
X2034174Y-7124575D02*
G01*
X2074306Y-7124575D01*
X2052462Y-7153785D01*
X2063384Y-7153785D01*
X2070750Y-7157341D01*
X2074306Y-7160897D01*
X2077862Y-7171819D01*
X2077862Y-7179185D01*
X2074306Y-7190107D01*
X2066940Y-7197473D01*
X2056018Y-7201029D01*
X2045096Y-7201029D01*
X2034174Y-7197473D01*
X2030618Y-7193663D01*
X2027062Y-7186551D01*
X1927999Y-6886033D02*
G01*
X1920887Y-6878921D01*
X1909965Y-6875111D01*
X1895487Y-6875111D01*
X1884565Y-6878921D01*
X1877199Y-6886033D01*
X1877199Y-6893399D01*
X1880755Y-6900511D01*
X1884565Y-6904321D01*
X1891677Y-6907877D01*
X1913521Y-6915243D01*
X1920887Y-6918799D01*
X1924443Y-6922355D01*
X1927999Y-6929721D01*
X1927999Y-6940643D01*
X1920887Y-6948009D01*
X1909965Y-6951565D01*
X1895487Y-6951565D01*
X1884565Y-6948009D01*
X1877199Y-6940643D01*
X1952129Y-6875111D02*
G01*
X1952129Y-6951565D01*
X1952129Y-6875111D02*
G01*
X1977529Y-6875111D01*
X1988451Y-6878921D01*
X1995817Y-6886033D01*
X1999373Y-6893399D01*
X2002929Y-6904321D01*
X2002929Y-6922355D01*
X1999373Y-6933277D01*
X1995817Y-6940643D01*
X1988451Y-6948009D01*
X1977529Y-6951565D01*
X1952129Y-6951565D01*
X2030615Y-6893399D02*
G01*
X2030615Y-6889589D01*
X2034171Y-6882477D01*
X2037981Y-6878921D01*
X2045093Y-6875111D01*
X2059825Y-6875111D01*
X2066937Y-6878921D01*
X2070747Y-6882477D01*
X2074303Y-6889589D01*
X2074303Y-6896955D01*
X2070747Y-6904321D01*
X2063381Y-6915243D01*
X2027059Y-6951565D01*
X2077859Y-6951565D01*
X1922912Y-6686042D02*
G01*
X1915546Y-6689852D01*
X1908434Y-6696963D01*
X1904624Y-6704329D01*
X1904624Y-6718808D01*
X1908434Y-6726173D01*
X1915546Y-6733286D01*
X1922912Y-6737095D01*
X1933834Y-6740652D01*
X1951868Y-6740652D01*
X1962790Y-6737095D01*
X1970156Y-6733286D01*
X1977522Y-6726173D01*
X1981078Y-6718808D01*
X1981078Y-6704329D01*
X1977522Y-6696963D01*
X1970156Y-6689852D01*
X1962790Y-6686042D01*
X1951868Y-6686042D01*
X1951868Y-6704329D02*
G01*
X1951868Y-6686042D01*
X1919102Y-6662165D02*
G01*
X1915546Y-6654800D01*
X1904624Y-6643878D01*
X1981078Y-6643878D01*
X1904624Y-6612636D02*
G01*
X1904624Y-6572758D01*
X1933834Y-6594347D01*
X1933834Y-6583679D01*
X1937390Y-6576313D01*
X1940946Y-6572758D01*
X1951868Y-6568947D01*
X1959234Y-6568947D01*
X1970156Y-6572758D01*
X1977522Y-6579870D01*
X1981078Y-6590792D01*
X1981078Y-6601713D01*
X1977522Y-6612636D01*
X1973712Y-6616192D01*
X1966600Y-6620002D01*
X1922912Y-6447142D02*
G01*
X1915546Y-6450952D01*
X1908434Y-6458064D01*
X1904624Y-6465430D01*
X1904624Y-6479908D01*
X1908434Y-6487274D01*
X1915546Y-6494386D01*
X1922912Y-6498196D01*
X1933834Y-6501752D01*
X1951868Y-6501752D01*
X1962790Y-6498196D01*
X1970156Y-6494386D01*
X1977522Y-6487274D01*
X1981078Y-6479908D01*
X1981078Y-6465430D01*
X1977522Y-6458064D01*
X1970156Y-6450952D01*
X1962790Y-6447142D01*
X1951868Y-6447142D01*
X1951868Y-6465430D02*
G01*
X1951868Y-6447142D01*
X1904624Y-6423266D02*
G01*
X1981078Y-6423266D01*
X1904624Y-6423266D02*
G01*
X1981078Y-6372212D01*
X1904624Y-6372212D02*
G01*
X1981078Y-6372212D01*
X1904624Y-6348336D02*
G01*
X1981078Y-6348336D01*
X1904624Y-6348336D02*
G01*
X1904624Y-6322936D01*
X1908434Y-6312014D01*
X1915546Y-6304648D01*
X1922912Y-6301092D01*
X1933834Y-6297282D01*
X1951868Y-6297282D01*
X1962790Y-6301092D01*
X1970156Y-6304648D01*
X1977522Y-6312014D01*
X1981078Y-6322936D01*
X1981078Y-6348336D01*
X1922912Y-6178042D02*
G01*
X1915546Y-6181852D01*
X1908434Y-6188963D01*
X1904624Y-6196329D01*
X1904624Y-6210807D01*
X1908434Y-6218173D01*
X1915546Y-6225286D01*
X1922912Y-6229095D01*
X1933834Y-6232652D01*
X1951868Y-6232652D01*
X1962790Y-6229095D01*
X1970156Y-6225286D01*
X1977522Y-6218173D01*
X1981078Y-6210807D01*
X1981078Y-6196329D01*
X1977522Y-6188963D01*
X1970156Y-6181852D01*
X1962790Y-6178042D01*
X1951868Y-6178042D01*
X1951868Y-6196329D02*
G01*
X1951868Y-6178042D01*
X1919102Y-6154165D02*
G01*
X1915546Y-6146800D01*
X1904624Y-6135878D01*
X1981078Y-6135878D01*
X1922912Y-6108192D02*
G01*
X1919102Y-6108192D01*
X1911990Y-6104636D01*
X1908434Y-6101079D01*
X1904624Y-6093713D01*
X1904624Y-6079236D01*
X1908434Y-6071870D01*
X1911990Y-6068313D01*
X1919102Y-6064757D01*
X1926468Y-6064757D01*
X1933834Y-6068313D01*
X1944756Y-6075679D01*
X1981078Y-6112002D01*
X1981078Y-6060947D01*
X1922912Y-5925822D02*
G01*
X1915546Y-5929632D01*
X1908434Y-5936744D01*
X1904624Y-5944110D01*
X1904624Y-5958588D01*
X1908434Y-5965954D01*
X1915546Y-5973066D01*
X1922912Y-5976876D01*
X1933834Y-5980432D01*
X1951868Y-5980432D01*
X1962790Y-5976876D01*
X1970156Y-5973066D01*
X1977522Y-5965954D01*
X1981078Y-5958588D01*
X1981078Y-5944110D01*
X1977522Y-5936744D01*
X1970156Y-5929632D01*
X1962790Y-5925822D01*
X1951868Y-5925822D01*
X1951868Y-5944110D02*
G01*
X1951868Y-5925822D01*
X1919102Y-5901946D02*
G01*
X1915546Y-5894580D01*
X1904624Y-5883658D01*
X1981078Y-5883658D01*
X1904624Y-5823460D02*
G01*
X1955678Y-5859782D01*
X1955678Y-5805172D01*
X1904624Y-5823460D02*
G01*
X1981078Y-5823460D01*
X1922912Y-5686425D02*
G01*
X1915546Y-5690235D01*
X1908434Y-5697346D01*
X1904624Y-5704712D01*
X1904624Y-5719190D01*
X1908434Y-5726556D01*
X1915546Y-5733669D01*
X1922912Y-5737479D01*
X1933834Y-5741035D01*
X1951868Y-5741035D01*
X1962790Y-5737479D01*
X1970156Y-5733669D01*
X1977522Y-5726556D01*
X1981078Y-5719190D01*
X1981078Y-5704712D01*
X1977522Y-5697346D01*
X1970156Y-5690235D01*
X1962790Y-5686425D01*
X1951868Y-5686425D01*
X1951868Y-5704712D02*
G01*
X1951868Y-5686425D01*
X1922912Y-5658738D02*
G01*
X1919102Y-5658738D01*
X1911990Y-5655182D01*
X1908434Y-5651627D01*
X1904624Y-5644261D01*
X1904624Y-5629782D01*
X1908434Y-5622417D01*
X1911990Y-5618861D01*
X1919102Y-5615304D01*
X1926468Y-5615304D01*
X1933834Y-5618861D01*
X1944756Y-5626227D01*
X1981078Y-5662548D01*
X1981078Y-5611495D01*
X1904624Y-5536564D02*
G01*
X1981078Y-5573140D01*
X1904624Y-5587619D02*
G01*
X1904624Y-5536564D01*
X1922912Y-5430522D02*
G01*
X1915546Y-5434332D01*
X1908434Y-5441444D01*
X1904624Y-5448810D01*
X1904624Y-5463288D01*
X1908434Y-5470654D01*
X1915546Y-5477766D01*
X1922912Y-5481576D01*
X1933834Y-5485132D01*
X1951868Y-5485132D01*
X1962790Y-5481576D01*
X1970156Y-5477766D01*
X1977522Y-5470654D01*
X1981078Y-5463288D01*
X1981078Y-5448810D01*
X1977522Y-5441444D01*
X1970156Y-5434332D01*
X1962790Y-5430522D01*
X1951868Y-5430522D01*
X1951868Y-5448810D02*
G01*
X1951868Y-5430522D01*
X1922912Y-5402836D02*
G01*
X1919102Y-5402836D01*
X1911990Y-5399280D01*
X1908434Y-5395724D01*
X1904624Y-5388358D01*
X1904624Y-5373880D01*
X1908434Y-5366514D01*
X1911990Y-5362958D01*
X1919102Y-5359402D01*
X1926468Y-5359402D01*
X1933834Y-5362958D01*
X1944756Y-5370324D01*
X1981078Y-5406646D01*
X1981078Y-5355592D01*
X1915546Y-5288028D02*
G01*
X1908434Y-5291584D01*
X1904624Y-5302506D01*
X1904624Y-5309872D01*
X1908434Y-5320794D01*
X1919102Y-5328160D01*
X1937390Y-5331716D01*
X1955678Y-5331716D01*
X1970156Y-5328160D01*
X1977522Y-5320794D01*
X1981078Y-5309872D01*
X1981078Y-5306316D01*
X1977522Y-5295394D01*
X1970156Y-5288028D01*
X1959234Y-5284472D01*
X1955678Y-5284472D01*
X1944756Y-5288028D01*
X1937390Y-5295394D01*
X1933834Y-5306316D01*
X1933834Y-5309872D01*
X1937390Y-5320794D01*
X1944756Y-5328160D01*
X1955678Y-5331716D01*
X1922912Y-5178425D02*
G01*
X1915546Y-5182235D01*
X1908434Y-5189346D01*
X1904624Y-5196712D01*
X1904624Y-5211190D01*
X1908434Y-5218556D01*
X1915546Y-5225669D01*
X1922912Y-5229479D01*
X1933834Y-5233035D01*
X1951868Y-5233035D01*
X1962790Y-5229479D01*
X1970156Y-5225669D01*
X1977522Y-5218556D01*
X1981078Y-5211190D01*
X1981078Y-5196712D01*
X1977522Y-5189346D01*
X1970156Y-5182235D01*
X1962790Y-5178425D01*
X1951868Y-5178425D01*
X1951868Y-5196712D02*
G01*
X1951868Y-5178425D01*
X1922912Y-5150738D02*
G01*
X1919102Y-5150738D01*
X1911990Y-5147182D01*
X1908434Y-5143627D01*
X1904624Y-5136261D01*
X1904624Y-5121782D01*
X1908434Y-5114417D01*
X1911990Y-5110861D01*
X1919102Y-5107304D01*
X1926468Y-5107304D01*
X1933834Y-5110861D01*
X1944756Y-5118227D01*
X1981078Y-5154548D01*
X1981078Y-5103495D01*
X1904624Y-5035930D02*
G01*
X1904624Y-5072253D01*
X1937390Y-5076062D01*
X1933834Y-5072253D01*
X1930024Y-5061330D01*
X1930024Y-5050409D01*
X1933834Y-5039487D01*
X1940946Y-5032375D01*
X1951868Y-5028564D01*
X1959234Y-5028564D01*
X1970156Y-5032375D01*
X1977522Y-5039487D01*
X1981078Y-5050409D01*
X1981078Y-5061330D01*
X1977522Y-5072253D01*
X1973712Y-5076062D01*
X1966600Y-5079619D01*
X1922912Y-4924425D02*
G01*
X1915546Y-4928235D01*
X1908434Y-4935346D01*
X1904624Y-4942712D01*
X1904624Y-4957190D01*
X1908434Y-4964556D01*
X1915546Y-4971669D01*
X1922912Y-4975479D01*
X1933834Y-4979035D01*
X1951868Y-4979035D01*
X1962790Y-4975479D01*
X1970156Y-4971669D01*
X1977522Y-4964556D01*
X1981078Y-4957190D01*
X1981078Y-4942712D01*
X1977522Y-4935346D01*
X1970156Y-4928235D01*
X1962790Y-4924425D01*
X1951868Y-4924425D01*
X1951868Y-4942712D02*
G01*
X1951868Y-4924425D01*
X1904624Y-4893182D02*
G01*
X1904624Y-4853304D01*
X1933834Y-4875148D01*
X1933834Y-4864227D01*
X1937390Y-4856861D01*
X1940946Y-4853304D01*
X1951868Y-4849495D01*
X1959234Y-4849495D01*
X1970156Y-4853304D01*
X1977522Y-4860417D01*
X1981078Y-4871338D01*
X1981078Y-4882261D01*
X1977522Y-4893182D01*
X1973712Y-4896738D01*
X1966600Y-4900548D01*
X1904624Y-4818253D02*
G01*
X1904624Y-4778375D01*
X1933834Y-4800219D01*
X1933834Y-4789296D01*
X1937390Y-4781930D01*
X1940946Y-4778375D01*
X1951868Y-4774564D01*
X1959234Y-4774564D01*
X1970156Y-4778375D01*
X1977522Y-4785487D01*
X1981078Y-4796409D01*
X1981078Y-4807330D01*
X1977522Y-4818253D01*
X1973712Y-4822062D01*
X1966600Y-4825619D01*
X1922912Y-4668504D02*
G01*
X1915546Y-4672314D01*
X1908434Y-4679426D01*
X1904624Y-4686792D01*
X1904624Y-4701270D01*
X1908434Y-4708636D01*
X1915546Y-4715748D01*
X1922912Y-4719558D01*
X1933834Y-4723114D01*
X1951868Y-4723114D01*
X1962790Y-4719558D01*
X1970156Y-4715748D01*
X1977522Y-4708636D01*
X1981078Y-4701270D01*
X1981078Y-4686792D01*
X1977522Y-4679426D01*
X1970156Y-4672314D01*
X1962790Y-4668504D01*
X1951868Y-4668504D01*
X1951868Y-4686792D02*
G01*
X1951868Y-4668504D01*
X1904624Y-4637262D02*
G01*
X1904624Y-4597384D01*
X1933834Y-4619228D01*
X1933834Y-4608306D01*
X1937390Y-4600940D01*
X1940946Y-4597384D01*
X1951868Y-4593574D01*
X1959234Y-4593574D01*
X1970156Y-4597384D01*
X1977522Y-4604496D01*
X1981078Y-4615418D01*
X1981078Y-4626340D01*
X1977522Y-4637262D01*
X1973712Y-4640818D01*
X1966600Y-4644628D01*
X1922912Y-4566142D02*
G01*
X1919102Y-4566142D01*
X1911990Y-4562332D01*
X1908434Y-4558776D01*
X1904624Y-4551410D01*
X1904624Y-4536932D01*
X1908434Y-4529566D01*
X1911990Y-4526010D01*
X1919102Y-4522454D01*
X1926468Y-4522454D01*
X1933834Y-4526010D01*
X1944756Y-4533376D01*
X1981078Y-4569698D01*
X1981078Y-4518644D01*
X1922912Y-4416425D02*
G01*
X1915546Y-4420235D01*
X1908434Y-4427346D01*
X1904624Y-4434712D01*
X1904624Y-4449190D01*
X1908434Y-4456556D01*
X1915546Y-4463669D01*
X1922912Y-4467479D01*
X1933834Y-4471035D01*
X1951868Y-4471035D01*
X1962790Y-4467479D01*
X1970156Y-4463669D01*
X1977522Y-4456556D01*
X1981078Y-4449190D01*
X1981078Y-4434712D01*
X1977522Y-4427346D01*
X1970156Y-4420235D01*
X1962790Y-4416425D01*
X1951868Y-4416425D01*
X1951868Y-4434712D02*
G01*
X1951868Y-4416425D01*
X1904624Y-4385182D02*
G01*
X1904624Y-4345304D01*
X1933834Y-4367148D01*
X1933834Y-4356227D01*
X1937390Y-4348861D01*
X1940946Y-4345304D01*
X1951868Y-4341495D01*
X1959234Y-4341495D01*
X1970156Y-4345304D01*
X1977522Y-4352417D01*
X1981078Y-4363338D01*
X1981078Y-4374261D01*
X1977522Y-4385182D01*
X1973712Y-4388738D01*
X1966600Y-4392548D01*
X1904624Y-4273930D02*
G01*
X1904624Y-4310253D01*
X1937390Y-4314062D01*
X1933834Y-4310253D01*
X1930024Y-4299330D01*
X1930024Y-4288409D01*
X1933834Y-4277487D01*
X1940946Y-4270375D01*
X1951868Y-4266564D01*
X1959234Y-4266564D01*
X1970156Y-4270375D01*
X1977522Y-4277487D01*
X1981078Y-4288409D01*
X1981078Y-4299330D01*
X1977522Y-4310253D01*
X1973712Y-4314062D01*
X1966600Y-4317619D01*
X1922912Y-4164205D02*
G01*
X1915546Y-4168015D01*
X1908434Y-4175127D01*
X1904624Y-4182493D01*
X1904624Y-4196971D01*
X1908434Y-4204337D01*
X1915546Y-4211449D01*
X1922912Y-4215259D01*
X1933834Y-4218815D01*
X1951868Y-4218815D01*
X1962790Y-4215259D01*
X1970156Y-4211449D01*
X1977522Y-4204337D01*
X1981078Y-4196971D01*
X1981078Y-4182493D01*
X1977522Y-4175127D01*
X1970156Y-4168015D01*
X1962790Y-4164205D01*
X1951868Y-4164205D01*
X1951868Y-4182493D02*
G01*
X1951868Y-4164205D01*
X1904624Y-4132963D02*
G01*
X1904624Y-4093085D01*
X1933834Y-4114929D01*
X1933834Y-4104007D01*
X1937390Y-4096641D01*
X1940946Y-4093085D01*
X1951868Y-4089275D01*
X1959234Y-4089275D01*
X1970156Y-4093085D01*
X1977522Y-4100197D01*
X1981078Y-4111119D01*
X1981078Y-4122041D01*
X1977522Y-4132963D01*
X1973712Y-4136519D01*
X1966600Y-4140329D01*
X1904624Y-4029077D02*
G01*
X1955678Y-4065399D01*
X1955678Y-4010789D01*
X1904624Y-4029077D02*
G01*
X1981078Y-4029077D01*
X1915546Y-3872864D02*
G01*
X1908434Y-3879977D01*
X1904624Y-3890898D01*
X1904624Y-3905377D01*
X1908434Y-3916298D01*
X1915546Y-3923664D01*
X1922912Y-3923664D01*
X1930024Y-3920109D01*
X1933834Y-3916298D01*
X1937390Y-3909187D01*
X1944756Y-3887343D01*
X1948312Y-3879977D01*
X1951868Y-3876420D01*
X1959234Y-3872864D01*
X1970156Y-3872864D01*
X1977522Y-3879977D01*
X1981078Y-3890898D01*
X1981078Y-3905377D01*
X1977522Y-3916298D01*
X1970156Y-3923664D01*
X1904624Y-3848735D02*
G01*
X1981078Y-3848735D01*
X1904624Y-3848735D02*
G01*
X1981078Y-3797935D01*
X1904624Y-3797935D02*
G01*
X1981078Y-3797935D01*
X1915546Y-3618867D02*
G01*
X1908434Y-3625979D01*
X1904624Y-3636901D01*
X1904624Y-3651379D01*
X1908434Y-3662301D01*
X1915546Y-3669667D01*
X1922912Y-3669667D01*
X1930024Y-3666111D01*
X1933834Y-3662301D01*
X1937390Y-3655189D01*
X1944756Y-3633345D01*
X1948312Y-3625979D01*
X1951868Y-3622423D01*
X1959234Y-3618867D01*
X1970156Y-3618867D01*
X1977522Y-3625979D01*
X1981078Y-3636901D01*
X1981078Y-3651379D01*
X1977522Y-3662301D01*
X1970156Y-3669667D01*
X1904624Y-3594737D02*
G01*
X1981078Y-3594737D01*
X1904624Y-3594737D02*
G01*
X1904624Y-3561971D01*
X1908434Y-3551049D01*
X1911990Y-3547493D01*
X1919102Y-3543937D01*
X1930024Y-3543937D01*
X1937390Y-3547493D01*
X1940946Y-3551049D01*
X1944756Y-3561971D01*
X1944756Y-3594737D01*
X1904624Y-3413887D02*
G01*
X1981078Y-3413887D01*
X1904624Y-3413887D02*
G01*
X1904624Y-3366643D01*
X1940946Y-3413887D02*
G01*
X1940946Y-3384677D01*
X1981078Y-3413887D02*
G01*
X1981078Y-3366643D01*
X1904624Y-3342512D02*
G01*
X1981078Y-3342512D01*
X1904624Y-3342512D02*
G01*
X1981078Y-3291712D01*
X1904624Y-3291712D02*
G01*
X1981078Y-3291712D01*
X1904624Y-3206374D02*
G01*
X1904624Y-3166496D01*
X1933834Y-3188340D01*
X1933834Y-3177418D01*
X1937390Y-3170052D01*
X1940946Y-3166496D01*
X1951868Y-3162940D01*
X1959234Y-3162940D01*
X1970156Y-3166496D01*
X1977522Y-3173862D01*
X1981078Y-3184530D01*
X1981078Y-3195452D01*
X1977522Y-3206374D01*
X1973712Y-3210184D01*
X1966600Y-3213740D01*
X1904624Y-3138810D02*
G01*
X1981078Y-3109854D01*
X1904624Y-3080644D02*
G01*
X1981078Y-3109854D01*
X1904624Y-3049402D02*
G01*
X1904624Y-3009270D01*
X1933834Y-3031114D01*
X1933834Y-3020192D01*
X1937390Y-3013080D01*
X1940946Y-3009270D01*
X1951868Y-3005714D01*
X1959234Y-3005714D01*
X1970156Y-3009270D01*
X1977522Y-3016636D01*
X1981078Y-3027558D01*
X1981078Y-3038480D01*
X1977522Y-3049402D01*
X1973712Y-3052958D01*
X1966600Y-3056768D01*
D10*
X2997200Y-2424684D02*
G01*
X2997200Y-2502662D01*
X3002279Y-2518155D01*
X3012693Y-2528570D01*
X3028441Y-2533650D01*
X3038856Y-2533650D01*
X3054350Y-2528570D01*
X3064763Y-2518155D01*
X3069843Y-2502662D01*
X3069843Y-2424684D01*
X3166618Y-2440178D02*
G01*
X3161284Y-2429763D01*
X3145790Y-2424684D01*
X3135375Y-2424684D01*
X3119881Y-2429763D01*
X3109468Y-2445512D01*
X3104134Y-2471420D01*
X3104134Y-2497328D01*
X3109468Y-2518155D01*
X3119881Y-2528570D01*
X3135375Y-2533650D01*
X3140709Y-2533650D01*
X3156204Y-2528570D01*
X3166618Y-2518155D01*
X3171697Y-2502662D01*
X3171697Y-2497328D01*
X3166618Y-2481834D01*
X3156204Y-2471420D01*
X3140709Y-2466339D01*
X3135375Y-2466339D01*
X3119881Y-2471420D01*
X3109468Y-2481834D01*
X3104134Y-2497328D01*
D13*
X2730245Y-1917954D02*
G01*
X2222245Y-1917954D01*
X2222245Y-2171954D01*
X2730245Y-2171954D01*
X2730245Y-1917954D01*
X3784345Y-1917954D02*
G01*
X3276345Y-1917954D01*
X3276345Y-2171954D01*
X3784345Y-2171954D01*
X3784345Y-1917954D01*
D14*
X2778759Y-317500D02*
G01*
X2778759Y-647700D01*
X2733484Y-646142D02*
G01*
X2733484Y-321122D01*
X3047847Y-350215D02*
G01*
X3047847Y-312115D01*
X2953867Y-256235D02*
G01*
X3047847Y-350215D01*
X3007207Y-350215D01*
X2961487Y-365455D02*
G01*
X2961487Y-327355D01*
X2867507Y-271475D02*
G01*
X2961487Y-365455D01*
X2920847Y-365455D01*
X2743200Y-1117600D02*
G01*
X3251200Y-1117600D01*
X3251200Y-1117600D02*
G01*
X3251200Y-1193800D01*
X3251200Y-1193800D02*
G01*
X3251200Y-1270000D01*
X3251200Y-1270000D02*
G01*
X2743200Y-1270000D01*
X2743200Y-1270000D02*
G01*
X2743200Y-1193800D01*
X2743200Y-1193800D02*
G01*
X2743200Y-1117600D01*
X3251200Y-1193800D02*
G01*
X3276600Y-1193800D01*
X2743200Y-1193800D02*
G01*
X2717800Y-1193800D01*
X792469Y2273289D02*
G01*
X792469Y1301292D01*
X1295400Y2273289D02*
G01*
X1295400Y1301292D01*
X787400Y2273289D02*
G01*
X1295400Y2273289D01*
X741400Y701294D02*
G01*
X741400Y1301292D01*
X1341399Y1301292D01*
X1341399Y701294D01*
X741400Y701294D01*
X266400Y-2679700D02*
G01*
X266400Y1420291D01*
X1816397Y1420291D02*
G01*
X1816397Y-2679700D01*
X266400Y1420291D02*
G01*
X1816397Y1420291D01*
X1816397Y-2679700D02*
G01*
X266400Y-2679700D01*
X4729469Y2273289D02*
G01*
X4729469Y1301292D01*
X5232400Y2273289D02*
G01*
X5232400Y1301292D01*
X4724400Y2273289D02*
G01*
X5232400Y2273289D01*
X4678400Y701294D02*
G01*
X4678400Y1301292D01*
X5278399Y1301292D01*
X5278399Y701294D01*
X4678400Y701294D01*
X4203400Y-2679700D02*
G01*
X4203400Y1420291D01*
X5753397Y1420291D02*
G01*
X5753397Y-2679700D01*
X4203400Y1420291D02*
G01*
X5753397Y1420291D01*
X5753397Y-2679700D02*
G01*
X4203400Y-2679700D01*
X3920492Y-2578100D02*
G01*
X3920492Y-5128003D01*
X3368042Y-7760967D02*
G01*
X3368042Y-7852410D01*
X3380742Y-7860024D02*
G01*
X3354981Y-7861625D01*
X3393442Y-7915910D02*
G01*
X3375296Y-7927667D01*
X3375296Y-7927667D02*
G01*
X3347366Y-7884487D01*
X3309266Y-7892110D02*
G01*
X3309266Y-7912425D01*
X2704739Y-7927667D02*
G01*
X3294024Y-7927667D01*
X2623466Y-7927667D02*
G01*
X2651396Y-7881945D01*
X2669542Y-7872724D02*
G01*
X2653939Y-7869245D01*
X2689496Y-7892110D02*
G01*
X2689496Y-7912425D01*
X2644142Y-7860024D02*
G01*
X2618991Y-7861040D01*
X2603500Y-7915910D02*
G01*
X2623466Y-7927667D01*
X2631442Y-7870189D02*
G01*
X2606042Y-7913367D01*
X2626357Y-7760967D02*
G01*
X2626357Y-7852410D01*
X3368042Y-7870189D02*
G01*
X3393442Y-7913367D01*
X2630672Y-7782430D02*
G01*
X3367272Y-7782430D01*
X3354981Y-7861625D02*
G01*
X3342642Y-7862567D01*
X2719064Y-7905747D02*
G01*
X3308350Y-7905747D01*
X3317242Y-7357110D02*
G01*
X3368042Y-7357110D01*
X3368042Y-7522210D01*
X2626357Y-7857489D02*
G01*
X2626357Y-7357110D01*
X3368042Y-7357110D01*
X3368042Y-7857489D01*
X2667000Y-7357110D02*
G01*
X2626357Y-7357110D01*
X2626357Y-7512047D01*
X2235200Y-3479800D02*
G01*
X2235200Y-5003800D01*
X3759200Y-5003800D01*
X3759200Y-3479800D01*
X2235200Y-3479800D01*
X2120391Y-5128003D02*
G01*
X3920492Y-5128003D01*
X2120391Y-3178045D02*
G01*
X3720343Y-3178045D01*
X3920492Y-3178045D01*
D15*
X3505200Y-3098800D02*
G01*
X3505200Y-2664457D01*
D14*
X2120391Y-2578100D02*
G01*
X3920492Y-2578100D01*
X2120391Y-2578100D02*
G01*
X2120391Y-3928107D01*
X2120391Y-5128003D01*
D15*
X3759200Y-3098800D02*
G01*
X3759200Y-2667000D01*
X3251200Y-2667000D01*
X3251200Y-2933700D01*
X2984500Y-2933700D01*
X2984500Y-2664457D01*
X2743200Y-2664457D01*
X2743200Y-2933700D01*
X2478272Y-2933700D01*
X2478272Y-2664457D01*
X2247900Y-2664457D01*
X2247900Y-3126742D01*
X2247900Y-3124200D01*
D14*
X1600200Y-2971800D02*
G01*
X4394200Y-2971800D01*
X4394200Y-7797800D01*
X1600200Y-7797800D01*
X1600200Y-2971800D01*
G75*
G01*
X2733485Y-646143D02*
G03*
X2732166Y-321122I253801J163543D01*
G75*
G01*
X2778760Y-647700D02*
G03*
X2778760Y-317500I208061J165100D01*
G75*
G01*
X2646677Y-7870187D02*
G02*
X2691127Y-7885681I6998J-51434D01*
G75*
G01*
X2691127Y-7890253D02*
G03*
X2706367Y-7904731I15002J531D01*
G75*
G01*
X3295901Y-7926321D02*
G03*
X3311141Y-7910827I237J15009D01*
G75*
G01*
X3311141Y-7885681D02*
G02*
X3350257Y-7870187I32959J-26085D01*
M02*
